Pragati-Bold.ufo
<glyph name="dollar" format="1">
  <advance width="266"/>
  <unicode hex="0024"/>
  <outline>
    <contour>
      <point x="148" y="359" type="line"/>
      <point x="198" y="355"/>
      <point x="237" y="324"/>
      <point x="237" y="277" type="curve" smooth="yes"/>
      <point x="237" y="264" type="line"/>
      <point x="173" y="264" type="line"/>
      <point x="172" y="287"/>
      <point x="163" y="301"/>
      <point x="148" y="306" type="curve"/>
      <point x="148" y="231" type="line" smooth="yes"/>
      <point x="149" y="231"/>
      <point x="149" y="231"/>
      <point x="150" y="230" type="curve" smooth="yes"/>
      <point x="194" y="219"/>
      <point x="244" y="205"/>
      <point x="244" y="138" type="curve" smooth="yes"/>
      <point x="244" y="71"/>
      <point x="204" y="44"/>
      <point x="148" y="40" type="curve"/>
      <point x="148" y="-28" type="line"/>
      <point x="115" y="-28" type="line"/>
      <point x="115" y="40" type="line"/>
      <point x="54" y="45"/>
      <point x="19" y="83"/>
      <point x="19" y="137" type="curve" smooth="yes"/>
      <point x="19" y="140"/>
      <point x="20" y="144"/>
      <point x="20" y="144" type="curve"/>
      <point x="84" y="144" type="line"/>
      <point x="84" y="140" type="line" smooth="yes"/>
      <point x="84" y="113"/>
      <point x="98" y="99"/>
      <point x="115" y="94" type="curve"/>
      <point x="115" y="177" type="line"/>
      <point x="72" y="189"/>
      <point x="24" y="204"/>
      <point x="24" y="267" type="curve" smooth="yes"/>
      <point x="24" y="323"/>
      <point x="63" y="354"/>
      <point x="115" y="359" type="curve"/>
      <point x="115" y="421" type="line"/>
      <point x="148" y="421" type="line"/>
    </contour>
    <contour>
      <point x="115" y="306" type="line"/>
      <point x="99" y="301"/>
      <point x="88" y="289"/>
      <point x="88" y="273" type="curve" smooth="yes"/>
      <point x="88" y="256"/>
      <point x="99" y="248"/>
      <point x="115" y="241" type="curve"/>
    </contour>
    <contour>
      <point x="148" y="93" type="line"/>
      <point x="164" y="97"/>
      <point x="181" y="108"/>
      <point x="181" y="130" type="curve" smooth="yes"/>
      <point x="181" y="149"/>
      <point x="167" y="159"/>
      <point x="148" y="167" type="curve"/>
    </contour>
  </outline>
</glyph>
<glyph name="parenleft" format="1">
  <advance width="159"/>
  <unicode hex="0028"/>
  <outline>
    <contour>
      <point x="150" y="428" type="line"/>
      <point x="112" y="357"/>
      <point x="82" y="260"/>
      <point x="82" y="169" type="curve" smooth="yes"/>
      <point x="82" y="78"/>
      <point x="112" y="-20"/>
      <point x="150" y="-92" type="curve"/>
      <point x="104" y="-92" type="line"/>
      <point x="48" y="-20"/>
      <point x="18" y="72"/>
      <point x="18" y="168" type="curve" smooth="yes"/>
      <point x="18" y="264"/>
      <point x="48" y="357"/>
      <point x="104" y="428" type="curve"/>
    </contour>
  </outline>
</glyph>
<glyph name="period" format="1">
  <advance width="133"/>
  <unicode hex="002E"/>
  <outline>
    <contour>
      <point x="26" y="0" type="line"/>
      <point x="26" y="80" type="line"/>
      <point x="107" y="80" type="line"/>
      <point x="107" y="0" type="line"/>
    </contour>
  </outline>
</glyph>
<glyph name="one" format="1">
  <advance width="266"/>
  <unicode hex="0031"/>
  <outline>
    <contour>
      <point x="265" y="59" type="line"/>
      <point x="265" y="0" type="line"/>
      <point x="23" y="0" type="line"/>
      <point x="23" y="59" type="line"/>
      <point x="113" y="59" type="line"/>
      <point x="113" y="308" type="line"/>
      <point x="22" y="308" type="line"/>
      <point x="22" y="355" type="line"/>
      <point x="55" y="358"/>
      <point x="111" y="376"/>
      <point x="148" y="399" type="curve"/>
      <point x="183" y="399" type="line"/>
      <point x="183" y="59" type="line"/>
    </contour>
  </outline>
</glyph>
<glyph name="two" format="1">
  <advance width="266"/>
  <unicode hex="0032"/>
  <outline>
    <contour>
      <point x="139" y="407" type="curve" smooth="yes"/>
      <point x="198" y="407"/>
      <point x="246" y="376"/>
      <point x="246" y="303" type="curve" smooth="yes"/>
      <point x="246" y="230"/>
      <point x="191" y="167"/>
      <point x="149" y="120" type="curve" smooth="yes"/>
      <point x="141" y="110"/>
      <point x="133" y="101"/>
      <point x="126" y="93" type="curve" smooth="yes"/>
      <point x="118" y="83"/>
      <point x="111" y="73"/>
      <point x="107" y="65" type="curve"/>
      <point x="248" y="65" type="line"/>
      <point x="248" y="0" type="line"/>
      <point x="19" y="0" type="line"/>
      <point x="19" y="14" type="line" smooth="yes"/>
      <point x="19" y="35"/>
      <point x="23" y="54"/>
      <point x="31" y="72" type="curve" smooth="yes"/>
      <point x="46" y="108"/>
      <point x="73" y="139"/>
      <point x="100" y="168" type="curve" smooth="yes"/>
      <point x="137" y="210"/>
      <point x="173" y="250"/>
      <point x="173" y="304" type="curve" smooth="yes"/>
      <point x="173" y="322"/>
      <point x="165" y="347"/>
      <point x="136" y="347" type="curve" smooth="yes"/>
      <point x="107" y="347"/>
      <point x="96" y="319"/>
      <point x="96" y="286" type="curve" smooth="yes"/>
      <point x="96" y="262" type="line"/>
      <point x="24" y="262" type="line"/>
      <point x="24" y="262"/>
      <point x="22" y="272"/>
      <point x="22" y="285" type="curve" smooth="yes"/>
      <point x="22" y="371"/>
      <point x="77" y="407"/>
    </contour>
  </outline>
</glyph>
<glyph name="three" format="1">
  <advance width="266"/>
  <unicode hex="0033"/>
  <outline>
    <contour>
      <point x="131" y="407" type="curve" smooth="yes"/>
      <point x="197" y="407"/>
      <point x="241" y="368"/>
      <point x="241" y="297" type="curve" smooth="yes"/>
      <point x="241" y="250"/>
      <point x="219" y="224"/>
      <point x="189" y="208" type="curve"/>
      <point x="189" y="205" type="line"/>
      <point x="223" y="192"/>
      <point x="248" y="160"/>
      <point x="248" y="107" type="curve" smooth="yes"/>
      <point x="248" y="36"/>
      <point x="200" y="-7"/>
      <point x="133" y="-7" type="curve" smooth="yes"/>
      <point x="57" y="-7"/>
      <point x="14" y="40"/>
      <point x="14" y="113" type="curve" smooth="yes"/>
      <point x="14" y="123" type="line"/>
      <point x="88" y="123" type="line"/>
      <point x="88" y="111" type="line" smooth="yes"/>
      <point x="88" y="73"/>
      <point x="103" y="52"/>
      <point x="132" y="52" type="curve" smooth="yes"/>
      <point x="158" y="52"/>
      <point x="175" y="71"/>
      <point x="175" y="111" type="curve" smooth="yes"/>
      <point x="175" y="161"/>
      <point x="153" y="173"/>
      <point x="128" y="173" type="curve" smooth="yes"/>
      <point x="108" y="173" type="line"/>
      <point x="108" y="233" type="line"/>
      <point x="129" y="233" type="line" smooth="yes"/>
      <point x="151" y="233"/>
      <point x="168" y="253"/>
      <point x="168" y="294" type="curve" smooth="yes"/>
      <point x="168" y="331"/>
      <point x="154" y="348"/>
      <point x="132" y="348" type="curve" smooth="yes"/>
      <point x="108" y="348"/>
      <point x="94" y="329"/>
      <point x="94" y="292" type="curve" smooth="yes"/>
      <point x="94" y="281" type="line"/>
      <point x="22" y="281" type="line"/>
      <point x="22" y="297" type="line" smooth="yes"/>
      <point x="22" y="364"/>
      <point x="67" y="407"/>
    </contour>
  </outline>
</glyph>
<glyph name="six" format="1">
  <advance width="266"/>
  <unicode hex="0036"/>
  <outline>
    <contour>
      <point x="133" y="407" type="curve" smooth="yes"/>
      <point x="207" y="407"/>
      <point x="238" y="351"/>
      <point x="238" y="277" type="curve"/>
      <point x="166" y="277" type="line"/>
      <point x="166" y="322"/>
      <point x="158" y="348"/>
      <point x="130" y="348" type="curve" smooth="yes"/>
      <point x="94" y="348"/>
      <point x="91" y="298"/>
      <point x="90" y="219" type="curve"/>
      <point x="103" y="239"/>
      <point x="126" y="251"/>
      <point x="152" y="251" type="curve" smooth="yes"/>
      <point x="216" y="251"/>
      <point x="248" y="196"/>
      <point x="248" y="123" type="curve" smooth="yes"/>
      <point x="248" y="43"/>
      <point x="202" y="-7"/>
      <point x="138" y="-7" type="curve" smooth="yes"/>
      <point x="63" y="-7"/>
      <point x="18" y="40"/>
      <point x="18" y="188" type="curve" smooth="yes"/>
      <point x="18" y="355"/>
      <point x="61" y="407"/>
    </contour>
    <contour>
      <point x="135" y="194" type="curve" smooth="yes"/>
      <point x="107" y="194"/>
      <point x="94" y="165"/>
      <point x="94" y="123" type="curve" smooth="yes"/>
      <point x="94" y="82"/>
      <point x="107" y="52"/>
      <point x="135" y="52" type="curve" smooth="yes"/>
      <point x="163" y="52"/>
      <point x="176" y="82"/>
      <point x="176" y="123" type="curve" smooth="yes"/>
      <point x="176" y="165"/>
      <point x="163" y="194"/>
    </contour>
  </outline>
</glyph>
<glyph name="seven" format="1">
  <advance width="266"/>
  <unicode hex="0037"/>
  <outline>
    <contour>
      <point x="252" y="353" type="line"/>
      <point x="200" y="273"/>
      <point x="134" y="152"/>
      <point x="134" y="30" type="curve" smooth="yes"/>
      <point x="134" y="18"/>
      <point x="134" y="14"/>
      <point x="135" y="0" type="curve"/>
      <point x="58" y="0" type="line"/>
      <point x="58" y="128"/>
      <point x="115" y="254"/>
      <point x="177" y="334" type="curve"/>
      <point x="13" y="334" type="line"/>
      <point x="13" y="399" type="line"/>
      <point x="252" y="399" type="line"/>
    </contour>
  </outline>
</glyph>
<glyph name="eight" format="1">
  <advance width="266"/>
  <unicode hex="0038"/>
  <outline>
    <contour>
      <point x="133" y="407" type="curve" smooth="yes"/>
      <point x="204" y="407"/>
      <point x="240" y="357"/>
      <point x="240" y="295" type="curve" smooth="yes"/>
      <point x="240" y="258"/>
      <point x="225" y="224"/>
      <point x="196" y="205" type="curve"/>
      <point x="233" y="187"/>
      <point x="248" y="153"/>
      <point x="248" y="109" type="curve" smooth="yes"/>
      <point x="248" y="45"/>
      <point x="214" y="-7"/>
      <point x="133" y="-7" type="curve" smooth="yes"/>
      <point x="51" y="-7"/>
      <point x="18" y="45"/>
      <point x="18" y="109" type="curve" smooth="yes"/>
      <point x="18" y="153"/>
      <point x="33" y="187"/>
      <point x="69" y="205" type="curve"/>
      <point x="40" y="224"/>
      <point x="26" y="258"/>
      <point x="26" y="295" type="curve" smooth="yes"/>
      <point x="26" y="357"/>
      <point x="62" y="407"/>
    </contour>
    <contour>
      <point x="133" y="349" type="curve" smooth="yes"/>
      <point x="109" y="349"/>
      <point x="97" y="329"/>
      <point x="97" y="291" type="curve" smooth="yes"/>
      <point x="97" y="253"/>
      <point x="109" y="233"/>
      <point x="133" y="233" type="curve" smooth="yes"/>
      <point x="156" y="233"/>
      <point x="169" y="253"/>
      <point x="169" y="291" type="curve" smooth="yes"/>
      <point x="169" y="329"/>
      <point x="156" y="349"/>
    </contour>
    <contour>
      <point x="133" y="175" type="curve" smooth="yes"/>
      <point x="105" y="175"/>
      <point x="90" y="153"/>
      <point x="90" y="113" type="curve" smooth="yes"/>
      <point x="90" y="72"/>
      <point x="105" y="51"/>
      <point x="133" y="51" type="curve" smooth="yes"/>
      <point x="161" y="51"/>
      <point x="176" y="72"/>
      <point x="176" y="113" type="curve" smooth="yes"/>
      <point x="176" y="153"/>
      <point x="161" y="175"/>
    </contour>
  </outline>
</glyph>
<glyph name="nine" format="1">
  <advance width="266"/>
  <unicode hex="0039"/>
  <outline>
    <contour>
      <point x="128" y="407" type="curve" smooth="yes"/>
      <point x="203" y="407"/>
      <point x="248" y="359"/>
      <point x="248" y="212" type="curve" smooth="yes"/>
      <point x="248" y="45"/>
      <point x="205" y="-7"/>
      <point x="133" y="-7" type="curve" smooth="yes"/>
      <point x="59" y="-7"/>
      <point x="28" y="49"/>
      <point x="28" y="123" type="curve"/>
      <point x="100" y="123" type="line"/>
      <point x="100" y="78"/>
      <point x="108" y="52"/>
      <point x="135" y="52" type="curve" smooth="yes"/>
      <point x="171" y="52"/>
      <point x="175" y="102"/>
      <point x="176" y="180" type="curve"/>
      <point x="163" y="160"/>
      <point x="140" y="148"/>
      <point x="114" y="148" type="curve" smooth="yes"/>
      <point x="49" y="148"/>
      <point x="18" y="204"/>
      <point x="18" y="277" type="curve" smooth="yes"/>
      <point x="18" y="357"/>
      <point x="64" y="407"/>
    </contour>
    <contour>
      <point x="130" y="348" type="curve" smooth="yes"/>
      <point x="103" y="348"/>
      <point x="90" y="318"/>
      <point x="90" y="277" type="curve" smooth="yes"/>
      <point x="90" y="235"/>
      <point x="103" y="206"/>
      <point x="130" y="206" type="curve" smooth="yes"/>
      <point x="158" y="206"/>
      <point x="172" y="235"/>
      <point x="172" y="277" type="curve" smooth="yes"/>
      <point x="172" y="318"/>
      <point x="158" y="348"/>
    </contour>
  </outline>
</glyph>
<glyph name="greater" format="1">
  <advance width="279"/>
  <unicode hex="003E"/>
  <outline>
    <contour>
      <point x="260" y="115" type="line"/>
      <point x="20" y="-5" type="line"/>
      <point x="20" y="63" type="line"/>
      <point x="201" y="152" type="line"/>
      <point x="20" y="241" type="line"/>
      <point x="20" y="309" type="line"/>
      <point x="260" y="188" type="line"/>
    </contour>
  </outline>
</glyph>
<glyph name="A" format="1">
  <advance width="345"/>
  <unicode hex="0041"/>
  <outline>
    <contour>
      <point x="0" y="0" type="move" name="Anchor-1"/>
    </contour>
    <contour>
      <point x="173" y="399" type="move" name="Anchor-0"/>
    </contour>
    <contour>
      <point x="344" y="0" type="line"/>
      <point x="268" y="0" type="line"/>
      <point x="244" y="78" type="line"/>
      <point x="96" y="78" type="line"/>
      <point x="72" y="0" type="line"/>
      <point x="0" y="0" type="line"/>
      <point x="129" y="399" type="line"/>
      <point x="215" y="399" type="line"/>
    </contour>
    <contour>
      <point x="169" y="333" type="line"/>
      <point x="169" y="333"/>
      <point x="163" y="297"/>
      <point x="158" y="279" type="curve" smooth="yes"/>
      <point x="117" y="145" type="line"/>
      <point x="223" y="145" type="line"/>
      <point x="183" y="279" type="line" smooth="yes"/>
      <point x="177" y="299"/>
      <point x="171" y="333"/>
      <point x="171" y="333" type="curve"/>
    </contour>
  </outline>
</glyph>
<glyph name="D" format="1">
  <advance width="345"/>
  <unicode hex="0044"/>
  <outline>
    <contour>
      <point x="0" y="0" type="move" name="Anchor-1"/>
    </contour>
    <contour>
      <point x="173" y="399" type="move" name="Anchor-0"/>
    </contour>
    <contour>
      <point x="35" y="399" type="line"/>
      <point x="165" y="399" type="line" smooth="yes"/>
      <point x="264" y="399"/>
      <point x="325" y="334"/>
      <point x="325" y="206" type="curve" smooth="yes"/>
      <point x="325" y="69"/>
      <point x="264" y="0"/>
      <point x="165" y="0" type="curve" smooth="yes"/>
      <point x="35" y="0" type="line"/>
    </contour>
    <contour>
      <point x="109" y="67" type="line"/>
      <point x="158" y="67" type="line" smooth="yes"/>
      <point x="214" y="67"/>
      <point x="248" y="108"/>
      <point x="248" y="191" type="curve" smooth="yes"/>
      <point x="248" y="220" type="line" smooth="yes"/>
      <point x="248" y="295"/>
      <point x="214" y="333"/>
      <point x="158" y="333" type="curve" smooth="yes"/>
      <point x="109" y="333" type="line"/>
    </contour>
  </outline>
</glyph>
<glyph name="E" format="1">
  <advance width="319"/>
  <unicode hex="0045"/>
  <outline>
    <contour>
      <point x="159" y="0" type="move" name="Anchor-1"/>
    </contour>
    <contour>
      <point x="159" y="399" type="move" name="Anchor-0"/>
    </contour>
    <contour>
      <point x="35" y="399" type="line"/>
      <point x="289" y="399" type="line"/>
      <point x="289" y="333" type="line"/>
      <point x="109" y="333" type="line"/>
      <point x="109" y="238" type="line"/>
      <point x="264" y="238" type="line"/>
      <point x="264" y="171" type="line"/>
      <point x="109" y="171" type="line"/>
      <point x="109" y="67" type="line"/>
      <point x="293" y="67" type="line"/>
      <point x="293" y="0" type="line"/>
      <point x="35" y="0" type="line"/>
    </contour>
  </outline>
</glyph>
<glyph name="K" format="1">
  <advance width="345"/>
  <unicode hex="004B"/>
  <outline>
    <contour>
      <point x="173" y="0" type="move" name="Anchor-1"/>
    </contour>
    <contour>
      <point x="173" y="399" type="move" name="Anchor-0"/>
    </contour>
    <contour>
      <point x="256" y="399" type="line"/>
      <point x="339" y="399" type="line"/>
      <point x="221" y="237" type="line"/>
      <point x="343" y="0" type="line"/>
      <point x="259" y="0" type="line"/>
      <point x="173" y="179" type="line"/>
      <point x="110" y="102" type="line"/>
      <point x="110" y="0" type="line"/>
      <point x="35" y="0" type="line"/>
      <point x="35" y="399" type="line"/>
      <point x="110" y="399" type="line"/>
      <point x="110" y="195" type="line"/>
    </contour>
  </outline>
</glyph>
<glyph name="M" format="1">
  <advance width="398"/>
  <unicode hex="004D"/>
  <outline>
    <contour>
      <point x="367" y="0" type="line"/>
      <point x="299" y="0" type="line"/>
      <point x="299" y="254" type="line" smooth="yes"/>
      <point x="299" y="273"/>
      <point x="301" y="319"/>
      <point x="301" y="319" type="curve"/>
      <point x="299" y="319" type="line"/>
      <point x="297" y="311"/>
      <point x="295" y="303"/>
      <point x="294" y="295" type="curve" smooth="yes"/>
      <point x="292" y="288"/>
      <point x="291" y="281"/>
      <point x="289" y="273" type="curve" smooth="yes"/>
      <point x="229" y="0" type="line"/>
      <point x="164" y="0" type="line"/>
      <point x="108" y="256" type="line" smooth="yes"/>
      <point x="103" y="277"/>
      <point x="98" y="298"/>
      <point x="94" y="319" type="curve"/>
      <point x="92" y="319" type="line"/>
      <point x="92" y="319"/>
      <point x="94" y="270"/>
      <point x="94" y="254" type="curve" smooth="yes"/>
      <point x="94" y="0" type="line"/>
      <point x="31" y="0" type="line"/>
      <point x="31" y="399" type="line"/>
      <point x="136" y="399" type="line"/>
      <point x="185" y="179" type="line" smooth="yes"/>
      <point x="191" y="153"/>
      <point x="201" y="89"/>
      <point x="201" y="89" type="curve"/>
      <point x="204" y="89" type="line"/>
      <point x="204" y="89"/>
      <point x="212" y="156"/>
      <point x="217" y="179" type="curve" smooth="yes"/>
      <point x="266" y="399" type="line"/>
      <point x="367" y="399" type="line"/>
    </contour>
  </outline>
</glyph>
<glyph name="O" format="1">
  <advance width="372"/>
  <unicode hex="004F"/>
  <outline>
    <contour>
      <point x="0" y="0" type="move" name="Anchor-1"/>
    </contour>
    <contour>
      <point x="186" y="399" type="move" name="Anchor-0"/>
    </contour>
    <contour>
      <point x="186" y="407" type="curve" smooth="yes"/>
      <point x="289" y="407"/>
      <point x="352" y="341"/>
      <point x="352" y="200" type="curve" smooth="yes"/>
      <point x="352" y="59"/>
      <point x="289" y="-7"/>
      <point x="186" y="-7" type="curve" smooth="yes"/>
      <point x="83" y="-7"/>
      <point x="20" y="59"/>
      <point x="20" y="200" type="curve" smooth="yes"/>
      <point x="20" y="341"/>
      <point x="83" y="407"/>
    </contour>
    <contour>
      <point x="186" y="343" type="curve" smooth="yes"/>
      <point x="127" y="343"/>
      <point x="97" y="294"/>
      <point x="97" y="214" type="curve" smooth="yes"/>
      <point x="97" y="185" type="line" smooth="yes"/>
      <point x="97" y="105"/>
      <point x="127" y="57"/>
      <point x="186" y="57" type="curve" smooth="yes"/>
      <point x="245" y="57"/>
      <point x="275" y="105"/>
      <point x="275" y="185" type="curve" smooth="yes"/>
      <point x="275" y="214" type="line" smooth="yes"/>
      <point x="275" y="294"/>
      <point x="245" y="343"/>
    </contour>
  </outline>
</glyph>
<glyph name="Q" format="1">
  <advance width="372"/>
  <unicode hex="0051"/>
  <outline>
    <contour>
      <point x="20" y="200" type="curve" smooth="yes"/>
      <point x="20" y="341"/>
      <point x="83" y="407"/>
      <point x="186" y="407" type="curve" smooth="yes"/>
      <point x="289" y="407"/>
      <point x="352" y="341"/>
      <point x="352" y="200" type="curve" smooth="yes"/>
      <point x="352" y="100"/>
      <point x="320" y="38"/>
      <point x="265" y="10" type="curve"/>
      <point x="342" y="-72" type="line"/>
      <point x="250" y="-72" type="line"/>
      <point x="193" y="-7" type="line"/>
      <point x="186" y="-7" type="line" smooth="yes"/>
      <point x="83" y="-7"/>
      <point x="20" y="59"/>
    </contour>
    <contour>
      <point x="97" y="185" type="line" smooth="yes"/>
      <point x="97" y="105"/>
      <point x="127" y="57"/>
      <point x="186" y="57" type="curve" smooth="yes"/>
      <point x="245" y="57"/>
      <point x="275" y="105"/>
      <point x="275" y="185" type="curve" smooth="yes"/>
      <point x="275" y="214" type="line" smooth="yes"/>
      <point x="275" y="294"/>
      <point x="245" y="343"/>
      <point x="186" y="343" type="curve" smooth="yes"/>
      <point x="127" y="343"/>
      <point x="97" y="294"/>
      <point x="97" y="214" type="curve" smooth="yes"/>
    </contour>
  </outline>
</glyph>
<glyph name="S" format="1">
  <advance width="319"/>
  <unicode hex="0053"/>
  <outline>
    <contour>
      <point x="159" y="0" type="move" name="Anchor-1"/>
    </contour>
    <contour>
      <point x="159" y="399" type="move" name="Anchor-0"/>
    </contour>
    <contour>
      <point x="159" y="407" type="curve" smooth="yes"/>
      <point x="230" y="407"/>
      <point x="289" y="371"/>
      <point x="289" y="289" type="curve" smooth="yes"/>
      <point x="289" y="282" type="line"/>
      <point x="213" y="282" type="line"/>
      <point x="213" y="287" type="line" smooth="yes"/>
      <point x="213" y="321"/>
      <point x="192" y="343"/>
      <point x="158" y="343" type="curve" smooth="yes"/>
      <point x="123" y="343"/>
      <point x="103" y="324"/>
      <point x="103" y="300" type="curve" smooth="yes"/>
      <point x="103" y="265"/>
      <point x="138" y="254"/>
      <point x="179" y="242" type="curve" smooth="yes"/>
      <point x="233" y="225"/>
      <point x="297" y="204"/>
      <point x="297" y="120" type="curve" smooth="yes"/>
      <point x="297" y="28"/>
      <point x="239" y="-7"/>
      <point x="156" y="-7" type="curve" smooth="yes"/>
      <point x="82" y="-7"/>
      <point x="18" y="35"/>
      <point x="18" y="117" type="curve" smooth="yes"/>
      <point x="18" y="130" type="line"/>
      <point x="96" y="130" type="line"/>
      <point x="95" y="121" type="line"/>
      <point x="95" y="83"/>
      <point x="118" y="57"/>
      <point x="159" y="57" type="curve" smooth="yes"/>
      <point x="204" y="57"/>
      <point x="219" y="81"/>
      <point x="219" y="104" type="curve" smooth="yes"/>
      <point x="219" y="146"/>
      <point x="181" y="158"/>
      <point x="139" y="172" type="curve" smooth="yes"/>
      <point x="86" y="190"/>
      <point x="26" y="210"/>
      <point x="26" y="295" type="curve" smooth="yes"/>
      <point x="26" y="370"/>
      <point x="88" y="407"/>
    </contour>
  </outline>
</glyph>
<glyph name="Z" format="1">
  <advance width="292"/>
  <unicode hex="005A"/>
  <outline>
    <contour>
      <point x="0" y="0" type="move" name="Anchor-1"/>
    </contour>
    <contour>
      <point x="146" y="399" type="move" name="Anchor-0"/>
    </contour>
    <contour>
      <point x="275" y="370" type="line"/>
      <point x="111" y="67" type="line"/>
      <point x="279" y="67" type="line"/>
      <point x="279" y="0" type="line"/>
      <point x="9" y="0" type="line"/>
      <point x="9" y="28" type="line"/>
      <point x="173" y="333" type="line"/>
      <point x="22" y="333" type="line"/>
      <point x="22" y="399" type="line"/>
      <point x="275" y="399" type="line"/>
    </contour>
  </outline>
</glyph>
<glyph name="bracketleft" format="1">
  <advance width="159"/>
  <unicode hex="005B"/>
  <outline>
    <contour>
      <point x="96" y="373" type="line"/>
      <point x="96" y="-38" type="line"/>
      <point x="144" y="-38" type="line"/>
      <point x="144" y="-94" type="line"/>
      <point x="28" y="-94" type="line"/>
      <point x="28" y="428" type="line"/>
      <point x="144" y="428" type="line"/>
      <point x="144" y="373" type="line"/>
    </contour>
  </outline>
</glyph>
<glyph name="b" format="1">
  <advance width="292"/>
  <unicode hex="0062"/>
  <outline>
    <contour>
      <point x="102" y="275" type="line"/>
      <point x="105" y="275" type="line"/>
      <point x="116" y="299"/>
      <point x="142" y="314"/>
      <point x="173" y="314" type="curve" smooth="yes"/>
      <point x="227" y="314"/>
      <point x="268" y="265"/>
      <point x="268" y="154" type="curve" smooth="yes"/>
      <point x="268" y="43"/>
      <point x="230" y="-7"/>
      <point x="169" y="-7" type="curve" smooth="yes"/>
      <point x="140" y="-7"/>
      <point x="115" y="8"/>
      <point x="100" y="38" type="curve"/>
      <point x="98" y="38" type="line"/>
      <point x="90" y="0" type="line"/>
      <point x="32" y="0" type="line"/>
      <point x="32" y="421" type="line"/>
      <point x="102" y="421" type="line"/>
    </contour>
    <contour>
      <point x="148" y="250" type="curve" smooth="yes"/>
      <point x="115" y="250"/>
      <point x="102" y="218"/>
      <point x="102" y="163" type="curve" smooth="yes"/>
      <point x="102" y="142" type="line" smooth="yes"/>
      <point x="102" y="87"/>
      <point x="115" y="57"/>
      <point x="148" y="57" type="curve" smooth="yes"/>
      <point x="183" y="57"/>
      <point x="195" y="87"/>
      <point x="195" y="142" type="curve" smooth="yes"/>
      <point x="195" y="164" type="line" smooth="yes"/>
      <point x="195" y="219"/>
      <point x="183" y="250"/>
    </contour>
  </outline>
</glyph>
<glyph name="j" format="1">
  <advance width="133"/>
  <unicode hex="006A"/>
  <outline>
    <contour>
      <point x="32" y="358" type="line"/>
      <point x="32" y="421" type="line"/>
      <point x="101" y="421" type="line"/>
      <point x="101" y="358" type="line"/>
    </contour>
    <contour>
      <point x="101" y="-24" type="line" smooth="yes"/>
      <point x="101" y="-65"/>
      <point x="86" y="-106"/>
      <point x="30" y="-106" type="curve" smooth="yes"/>
      <point x="13" y="-106"/>
      <point x="-9" y="-103"/>
      <point x="-22" y="-99" type="curve"/>
      <point x="-22" y="-47" type="line"/>
      <point x="4" y="-47" type="line" smooth="yes"/>
      <point x="22" y="-47"/>
      <point x="32" y="-38"/>
      <point x="32" y="-19" type="curve" smooth="yes"/>
      <point x="32" y="306" type="line"/>
      <point x="101" y="306" type="line"/>
    </contour>
  </outline>
</glyph>
<glyph name="m" format="1">
  <advance width="424"/>
  <unicode hex="006D"/>
  <outline>
    <contour>
      <point x="319" y="314" type="curve" smooth="yes"/>
      <point x="362" y="314"/>
      <point x="394" y="289"/>
      <point x="394" y="215" type="curve" smooth="yes"/>
      <point x="394" y="0" type="line"/>
      <point x="324" y="0" type="line"/>
      <point x="324" y="196" type="line" smooth="yes"/>
      <point x="324" y="235"/>
      <point x="314" y="250"/>
      <point x="290" y="250" type="curve" smooth="yes"/>
      <point x="268" y="250"/>
      <point x="248" y="227"/>
      <point x="248" y="193" type="curve" smooth="yes"/>
      <point x="248" y="0" type="line"/>
      <point x="179" y="0" type="line"/>
      <point x="179" y="196" type="line" smooth="yes"/>
      <point x="179" y="235"/>
      <point x="167" y="250"/>
      <point x="144" y="250" type="curve" smooth="yes"/>
      <point x="120" y="250"/>
      <point x="102" y="225"/>
      <point x="102" y="188" type="curve" smooth="yes"/>
      <point x="102" y="0" type="line"/>
      <point x="32" y="0" type="line"/>
      <point x="32" y="306" type="line"/>
      <point x="90" y="306" type="line"/>
      <point x="98" y="269" type="line"/>
      <point x="101" y="269" type="line"/>
      <point x="115" y="293"/>
      <point x="140" y="314"/>
      <point x="173" y="314" type="curve" smooth="yes"/>
      <point x="204" y="314"/>
      <point x="227" y="301"/>
      <point x="239" y="269" type="curve"/>
      <point x="255" y="293"/>
      <point x="282" y="314"/>
    </contour>
  </outline>
</glyph>
<glyph name="q" format="1">
  <advance width="292"/>
  <unicode hex="0071"/>
  <outline>
    <contour>
      <point x="123" y="314" type="curve" smooth="yes"/>
      <point x="152" y="314"/>
      <point x="177" y="299"/>
      <point x="192" y="269" type="curve"/>
      <point x="194" y="269" type="line"/>
      <point x="202" y="306" type="line"/>
      <point x="260" y="306" type="line"/>
      <point x="260" y="-101" type="line"/>
      <point x="190" y="-101" type="line"/>
      <point x="190" y="32" type="line"/>
      <point x="187" y="32" type="line"/>
      <point x="176" y="7"/>
      <point x="150" y="-7"/>
      <point x="119" y="-7" type="curve" smooth="yes"/>
      <point x="65" y="-7"/>
      <point x="24" y="42"/>
      <point x="24" y="153" type="curve" smooth="yes"/>
      <point x="24" y="264"/>
      <point x="62" y="314"/>
    </contour>
    <contour>
      <point x="143" y="250" type="curve" smooth="yes"/>
      <point x="109" y="250"/>
      <point x="97" y="219"/>
      <point x="97" y="164" type="curve" smooth="yes"/>
      <point x="97" y="142" type="line" smooth="yes"/>
      <point x="97" y="87"/>
      <point x="109" y="57"/>
      <point x="143" y="57" type="curve" smooth="yes"/>
      <point x="177" y="57"/>
      <point x="190" y="88"/>
      <point x="190" y="143" type="curve" smooth="yes"/>
      <point x="190" y="164" type="line" smooth="yes"/>
      <point x="190" y="219"/>
      <point x="177" y="250"/>
    </contour>
  </outline>
</glyph>
<glyph name="r" format="1">
  <advance width="186"/>
  <unicode hex="0072"/>
  <outline>
    <contour>
      <point x="93" y="0" type="move" name="Anchor-1"/>
    </contour>
    <contour>
      <point x="93" y="306" type="move" name="Anchor-0"/>
    </contour>
    <contour>
      <point x="155" y="314" type="curve" smooth="yes"/>
      <point x="173" y="314"/>
      <point x="184" y="309"/>
      <point x="184" y="309" type="curve"/>
      <point x="184" y="241" type="line"/>
      <point x="159" y="241" type="line" smooth="yes"/>
      <point x="129" y="241"/>
      <point x="102" y="225"/>
      <point x="102" y="171" type="curve" smooth="yes"/>
      <point x="102" y="0" type="line"/>
      <point x="32" y="0" type="line"/>
      <point x="32" y="306" type="line"/>
      <point x="90" y="306" type="line"/>
      <point x="98" y="262" type="line"/>
      <point x="102" y="262" type="line"/>
      <point x="110" y="287"/>
      <point x="124" y="314"/>
    </contour>
  </outline>
</glyph>
<glyph name="v" format="1">
  <advance width="266"/>
  <unicode hex="0076"/>
  <outline>
    <contour>
      <point x="168" y="0" type="line"/>
      <point x="98" y="0" type="line"/>
      <point x="3" y="306" type="line"/>
      <point x="76" y="306" type="line"/>
      <point x="115" y="175" type="line" smooth="yes"/>
      <point x="122" y="154"/>
      <point x="125" y="132"/>
      <point x="129" y="111" type="curve" smooth="yes"/>
      <point x="131" y="102"/>
      <point x="132" y="92"/>
      <point x="134" y="83" type="curve"/>
      <point x="137" y="83" type="line"/>
      <point x="139" y="95"/>
      <point x="141" y="106"/>
      <point x="143" y="118" type="curve" smooth="yes"/>
      <point x="146" y="137"/>
      <point x="149" y="156"/>
      <point x="154" y="175" type="curve" smooth="yes"/>
      <point x="193" y="306" type="line"/>
      <point x="264" y="306" type="line"/>
    </contour>
  </outline>
</glyph>
<glyph name="x" format="1">
  <advance width="266"/>
  <unicode hex="0078"/>
  <outline>
    <contour>
      <point x="175" y="160" type="line"/>
      <point x="263" y="0" type="line"/>
      <point x="184" y="0" type="line"/>
      <point x="132" y="101" type="line"/>
      <point x="129" y="101" type="line"/>
      <point x="78" y="0" type="line"/>
      <point x="3" y="0" type="line"/>
      <point x="92" y="158" type="line"/>
      <point x="10" y="306" type="line"/>
      <point x="89" y="306" type="line"/>
      <point x="134" y="217" type="line"/>
      <point x="138" y="217" type="line"/>
      <point x="183" y="306" type="line"/>
      <point x="258" y="306" type="line"/>
    </contour>
  </outline>
</glyph>
<glyph name="z" format="1">
  <advance width="239"/>
  <unicode hex="007A"/>
  <outline>
    <contour>
      <point x="0" y="0" type="move" name="Anchor-1"/>
    </contour>
    <contour>
      <point x="119" y="306" type="move" name="Anchor-0"/>
    </contour>
    <contour>
      <point x="105" y="59" type="line"/>
      <point x="229" y="59" type="line"/>
      <point x="229" y="0" type="line"/>
      <point x="11" y="0" type="line"/>
      <point x="11" y="30" type="line"/>
      <point x="129" y="248" type="line"/>
      <point x="18" y="248" type="line"/>
      <point x="18" y="306" type="line"/>
      <point x="224" y="306" type="line"/>
      <point x="224" y="277" type="line"/>
    </contour>
  </outline>
</glyph>
<glyph name="braceright" format="1">
  <advance width="186"/>
  <unicode hex="007D"/>
  <outline>
    <contour>
      <point x="13" y="428" type="line"/>
      <point x="72" y="428"/>
      <point x="127" y="415"/>
      <point x="127" y="342" type="curve" smooth="yes"/>
      <point x="127" y="229" type="line" smooth="yes"/>
      <point x="127" y="204"/>
      <point x="151" y="194"/>
      <point x="172" y="194" type="curve"/>
      <point x="172" y="141" type="line"/>
      <point x="151" y="141"/>
      <point x="127" y="132"/>
      <point x="127" y="106" type="curve" smooth="yes"/>
      <point x="127" y="-7" type="line" smooth="yes"/>
      <point x="127" y="-80"/>
      <point x="72" y="-93"/>
      <point x="13" y="-93" type="curve"/>
      <point x="13" y="-47" type="line"/>
      <point x="33" y="-47"/>
      <point x="58" y="-42"/>
      <point x="58" y="-13" type="curve" smooth="yes"/>
      <point x="58" y="16"/>
      <point x="60" y="43"/>
      <point x="61" y="71" type="curve" smooth="yes"/>
      <point x="62" y="82"/>
      <point x="62" y="92"/>
      <point x="63" y="102" type="curve" smooth="yes"/>
      <point x="64" y="142"/>
      <point x="80" y="165"/>
      <point x="125" y="165" type="curve"/>
      <point x="125" y="171" type="line"/>
      <point x="80" y="171"/>
      <point x="63" y="194"/>
      <point x="63" y="233" type="curve" smooth="yes"/>
      <point x="62" y="244"/>
      <point x="62" y="255"/>
      <point x="61" y="266" type="curve" smooth="yes"/>
      <point x="60" y="293"/>
      <point x="58" y="320"/>
      <point x="58" y="348" type="curve" smooth="yes"/>
      <point x="58" y="378"/>
      <point x="33" y="384"/>
      <point x="13" y="384" type="curve"/>
    </contour>
  </outline>
</glyph>
<glyph name="asciitilde" format="1">
  <advance width="279"/>
  <unicode hex="007E"/>
  <outline>
    <contour>
      <point x="264" y="164" type="line"/>
      <point x="264" y="164"/>
      <point x="239" y="122"/>
      <point x="192" y="122" type="curve" smooth="yes"/>
      <point x="173" y="122"/>
      <point x="157" y="131"/>
      <point x="140" y="140" type="curve" smooth="yes"/>
      <point x="124" y="149"/>
      <point x="107" y="158"/>
      <point x="88" y="158" type="curve" smooth="yes"/>
      <point x="45" y="158"/>
      <point x="16" y="115"/>
      <point x="16" y="115" type="curve"/>
      <point x="16" y="185" type="line"/>
      <point x="16" y="185"/>
      <point x="40" y="227"/>
      <point x="88" y="227" type="curve" smooth="yes"/>
      <point x="106" y="227"/>
      <point x="122" y="218"/>
      <point x="139" y="210" type="curve" smooth="yes"/>
      <point x="155" y="201"/>
      <point x="172" y="192"/>
      <point x="192" y="192" type="curve" smooth="yes"/>
      <point x="233" y="192"/>
      <point x="264" y="234"/>
      <point x="264" y="234" type="curve"/>
    </contour>
  </outline>
</glyph>
<glyph name="exclamdown" format="1">
  <advance width="159"/>
  <unicode hex="00A1"/>
  <outline>
    <contour>
      <point x="120" y="227" type="line"/>
      <point x="40" y="227" type="line"/>
      <point x="40" y="306" type="line"/>
      <point x="120" y="306" type="line"/>
    </contour>
    <contour>
      <point x="103" y="192" type="line"/>
      <point x="124" y="-93" type="line"/>
      <point x="35" y="-93" type="line"/>
      <point x="39" y="-46"/>
      <point x="42" y="2"/>
      <point x="45" y="50" type="curve" smooth="yes"/>
      <point x="48" y="97"/>
      <point x="52" y="145"/>
      <point x="55" y="192" type="curve"/>
    </contour>
  </outline>
</glyph>
<glyph name="currency" format="1">
  <advance width="266"/>
  <unicode hex="00A4"/>
  <outline>
    <contour>
      <point x="133" y="336" type="curve" smooth="yes"/>
      <point x="159" y="336"/>
      <point x="185" y="325"/>
      <point x="206" y="308" type="curve"/>
      <point x="230" y="332" type="line"/>
      <point x="265" y="296" type="line"/>
      <point x="237" y="268" type="line"/>
      <point x="247" y="247"/>
      <point x="253" y="224"/>
      <point x="253" y="199" type="curve" smooth="yes"/>
      <point x="253" y="173"/>
      <point x="246" y="150"/>
      <point x="236" y="130" type="curve"/>
      <point x="265" y="101" type="line"/>
      <point x="229" y="66" type="line"/>
      <point x="205" y="90" type="line"/>
      <point x="185" y="73"/>
      <point x="159" y="63"/>
      <point x="133" y="63" type="curve" smooth="yes"/>
      <point x="105" y="63"/>
      <point x="80" y="73"/>
      <point x="60" y="90" type="curve"/>
      <point x="36" y="66" type="line"/>
      <point x="0" y="101" type="line"/>
      <point x="29" y="130" type="line"/>
      <point x="18" y="150"/>
      <point x="13" y="174"/>
      <point x="13" y="199" type="curve" smooth="yes"/>
      <point x="13" y="223"/>
      <point x="18" y="246"/>
      <point x="28" y="267" type="curve"/>
      <point x="0" y="296" type="line"/>
      <point x="35" y="332" type="line"/>
      <point x="59" y="308" type="line"/>
      <point x="80" y="325"/>
      <point x="105" y="336"/>
    </contour>
    <contour>
      <point x="133" y="284" type="curve" smooth="yes"/>
      <point x="94" y="284"/>
      <point x="62" y="246"/>
      <point x="62" y="199" type="curve" smooth="yes"/>
      <point x="62" y="153"/>
      <point x="94" y="115"/>
      <point x="133" y="115" type="curve" smooth="yes"/>
      <point x="171" y="115"/>
      <point x="204" y="153"/>
      <point x="204" y="199" type="curve" smooth="yes"/>
      <point x="204" y="246"/>
      <point x="171" y="284"/>
    </contour>
  </outline>
</glyph>
<glyph name="section" format="1">
  <advance width="266"/>
  <unicode hex="00A7"/>
  <outline>
    <contour>
      <point x="139" y="407" type="curve" smooth="yes"/>
      <point x="198" y="407"/>
      <point x="243" y="376"/>
      <point x="243" y="324" type="curve" smooth="yes"/>
      <point x="243" y="310" type="line"/>
      <point x="171" y="310" type="line"/>
      <point x="171" y="311" type="line" smooth="yes"/>
      <point x="171" y="338"/>
      <point x="158" y="349"/>
      <point x="137" y="349" type="curve" smooth="yes"/>
      <point x="115" y="349"/>
      <point x="101" y="338"/>
      <point x="101" y="319" type="curve" smooth="yes"/>
      <point x="101" y="284"/>
      <point x="131" y="269"/>
      <point x="164" y="252" type="curve" smooth="yes"/>
      <point x="205" y="232"/>
      <point x="251" y="209"/>
      <point x="251" y="144" type="curve" smooth="yes"/>
      <point x="251" y="113"/>
      <point x="238" y="82"/>
      <point x="214" y="61" type="curve"/>
      <point x="231" y="43"/>
      <point x="243" y="21"/>
      <point x="243" y="-13" type="curve" smooth="yes"/>
      <point x="243" y="-75"/>
      <point x="196" y="-106"/>
      <point x="133" y="-106" type="curve" smooth="yes"/>
      <point x="75" y="-106"/>
      <point x="30" y="-75"/>
      <point x="30" y="-22" type="curve" smooth="yes"/>
      <point x="30" y="-9" type="line"/>
      <point x="101" y="-9" type="line"/>
      <point x="101" y="-11" type="line" smooth="yes"/>
      <point x="102" y="-38"/>
      <point x="115" y="-49"/>
      <point x="136" y="-49" type="curve" smooth="yes"/>
      <point x="158" y="-49"/>
      <point x="172" y="-38"/>
      <point x="172" y="-18" type="curve" smooth="yes"/>
      <point x="172" y="16"/>
      <point x="142" y="32"/>
      <point x="109" y="48" type="curve" smooth="yes"/>
      <point x="68" y="69"/>
      <point x="22" y="91"/>
      <point x="22" y="156" type="curve" smooth="yes"/>
      <point x="22" y="187"/>
      <point x="35" y="218"/>
      <point x="59" y="239" type="curve"/>
      <point x="42" y="256"/>
      <point x="30" y="279"/>
      <point x="30" y="314" type="curve" smooth="yes"/>
      <point x="30" y="376"/>
      <point x="77" y="407"/>
    </contour>
    <contour>
      <point x="103" y="209" type="curve"/>
      <point x="96" y="200"/>
      <point x="90" y="188"/>
      <point x="90" y="177" type="curve" smooth="yes"/>
      <point x="90" y="135"/>
      <point x="123" y="117"/>
      <point x="158" y="97" type="curve" smooth="yes"/>
      <point x="161" y="95"/>
      <point x="165" y="93"/>
      <point x="169" y="91" type="curve"/>
      <point x="177" y="100"/>
      <point x="183" y="112"/>
      <point x="183" y="124" type="curve" smooth="yes"/>
      <point x="183" y="171"/>
      <point x="142" y="187"/>
    </contour>
  </outline>
</glyph>
<glyph name="guillemotleft" format="1">
  <advance width="266"/>
  <unicode hex="00AB"/>
  <outline>
    <contour>
      <point x="143" y="73" type="line"/>
      <point x="90" y="73" type="line"/>
      <point x="11" y="190" type="line"/>
      <point x="90" y="306" type="line"/>
      <point x="143" y="306" type="line"/>
      <point x="80" y="190" type="line"/>
    </contour>
    <contour>
      <point x="250" y="73" type="line"/>
      <point x="197" y="73" type="line"/>
      <point x="118" y="190" type="line"/>
      <point x="197" y="306" type="line"/>
      <point x="250" y="306" type="line"/>
      <point x="187" y="190" type="line"/>
    </contour>
  </outline>
</glyph>
<glyph name="logicalnot" format="1">
  <advance width="279"/>
  <unicode hex="00AC"/>
  <outline>
    <contour>
      <point x="198" y="109" type="line"/>
      <point x="198" y="204" type="line"/>
      <point x="17" y="204" type="line"/>
      <point x="17" y="270" type="line"/>
      <point x="259" y="270" type="line"/>
      <point x="259" y="109" type="line"/>
    </contour>
  </outline>
</glyph>
<glyph name="plusminus" format="1">
  <advance width="320"/>
  <unicode hex="00B1"/>
  <outline>
    <contour>
      <point x="279" y="245" type="line"/>
      <point x="279" y="185" type="line"/>
      <point x="189" y="185" type="line"/>
      <point x="189" y="84" type="line"/>
      <point x="129" y="84" type="line"/>
      <point x="129" y="185" type="line"/>
      <point x="40" y="185" type="line"/>
      <point x="40" y="245" type="line"/>
      <point x="129" y="245" type="line"/>
      <point x="129" y="347" type="line"/>
      <point x="189" y="347" type="line"/>
      <point x="189" y="245" type="line"/>
    </contour>
    <contour>
      <point x="40" y="0" type="line"/>
      <point x="40" y="60" type="line"/>
      <point x="279" y="60" type="line"/>
      <point x="279" y="0" type="line"/>
    </contour>
  </outline>
</glyph>
<glyph name="acute" format="1">
  <advance width="159"/>
  <unicode hex="00B4"/>
  <outline>
    <contour>
      <point x="86" y="344" type="line"/>
      <point x="28" y="344" type="line"/>
      <point x="78" y="421" type="line"/>
      <point x="148" y="421" type="line"/>
      <point x="148" y="419" type="line"/>
    </contour>
  </outline>
</glyph>
<glyph name="paragraph" format="1">
  <advance width="266"/>
  <unicode hex="00B6"/>
  <outline>
    <contour>
      <point x="233" y="355" type="line"/>
      <point x="233" y="-101" type="line"/>
      <point x="186" y="-101" type="line"/>
      <point x="186" y="355" type="line"/>
      <point x="156" y="355" type="line"/>
      <point x="156" y="-101" type="line"/>
      <point x="109" y="-101" type="line"/>
      <point x="109" y="146" type="line"/>
      <point x="53" y="153"/>
      <point x="11" y="206"/>
      <point x="11" y="272" type="curve" smooth="yes"/>
      <point x="11" y="343"/>
      <point x="60" y="399"/>
      <point x="123" y="399" type="curve" smooth="yes"/>
      <point x="262" y="399" type="line"/>
      <point x="262" y="355" type="line"/>
    </contour>
  </outline>
</glyph>
<glyph name="uni00B9" format="1">
  <advance width="159"/>
  <unicode hex="00B9"/>
  <outline>
    <contour>
      <point x="148" y="227" type="line"/>
      <point x="148" y="186" type="line"/>
      <point x="19" y="186" type="line"/>
      <point x="19" y="227" type="line"/>
      <point x="63" y="227" type="line"/>
      <point x="63" y="362" type="line"/>
      <point x="18" y="362" type="line"/>
      <point x="18" y="395" type="line"/>
      <point x="36" y="397"/>
      <point x="67" y="409"/>
      <point x="86" y="421" type="curve"/>
      <point x="109" y="421" type="line"/>
      <point x="109" y="227" type="line"/>
    </contour>
  </outline>
</glyph>
<glyph name="guillemotright" format="1">
  <advance width="266"/>
  <unicode hex="00BB"/>
  <outline>
    <contour>
      <point x="69" y="73" type="line"/>
      <point x="16" y="73" type="line"/>
      <point x="78" y="190" type="line"/>
      <point x="16" y="306" type="line"/>
      <point x="69" y="306" type="line"/>
      <point x="148" y="190" type="line"/>
    </contour>
    <contour>
      <point x="175" y="73" type="line"/>
      <point x="123" y="73" type="line"/>
      <point x="185" y="190" type="line"/>
      <point x="123" y="306" type="line"/>
      <point x="175" y="306" type="line"/>
      <point x="254" y="190" type="line"/>
    </contour>
  </outline>
</glyph>
<glyph name="questiondown" format="1">
  <advance width="292"/>
  <unicode hex="00BF"/>
  <outline>
    <contour>
      <point x="97" y="227" type="line"/>
      <point x="97" y="306" type="line"/>
      <point x="177" y="306" type="line"/>
      <point x="177" y="227" type="line"/>
    </contour>
    <contour>
      <point x="174" y="167" type="line" smooth="yes"/>
      <point x="174" y="133"/>
      <point x="157" y="112"/>
      <point x="140" y="91" type="curve" smooth="yes"/>
      <point x="122" y="70"/>
      <point x="104" y="48"/>
      <point x="104" y="10" type="curve" smooth="yes"/>
      <point x="104" y="-2"/>
      <point x="109" y="-38"/>
      <point x="145" y="-38" type="curve" smooth="yes"/>
      <point x="184" y="-38"/>
      <point x="190" y="2"/>
      <point x="190" y="23" type="curve" smooth="yes"/>
      <point x="190" y="33"/>
      <point x="189" y="39"/>
      <point x="189" y="39" type="curve"/>
      <point x="263" y="39" type="line"/>
      <point x="263" y="39"/>
      <point x="264" y="26"/>
      <point x="264" y="18" type="curve" smooth="yes"/>
      <point x="264" y="-47"/>
      <point x="223" y="-100"/>
      <point x="140" y="-100" type="curve" smooth="yes"/>
      <point x="71" y="-100"/>
      <point x="28" y="-58"/>
      <point x="28" y="3" type="curve" smooth="yes"/>
      <point x="28" y="61"/>
      <point x="50" y="86"/>
      <point x="70" y="109" type="curve" smooth="yes"/>
      <point x="86" y="128"/>
      <point x="101" y="145"/>
      <point x="101" y="175" type="curve" smooth="yes"/>
      <point x="101" y="192" type="line"/>
      <point x="174" y="192" type="line"/>
    </contour>
  </outline>
</glyph>
<glyph name="Atilde" format="1">
  <advance width="345"/>
  <unicode hex="00C3"/>
  <outline>
    <contour>
      <point x="270" y="515" type="line"/>
      <point x="270" y="482"/>
      <point x="254" y="444"/>
      <point x="213" y="444" type="curve" smooth="yes"/>
      <point x="199" y="444"/>
      <point x="186" y="449"/>
      <point x="173" y="455" type="curve" smooth="yes"/>
      <point x="161" y="460"/>
      <point x="149" y="465"/>
      <point x="136" y="465" type="curve" smooth="yes"/>
      <point x="123" y="465"/>
      <point x="115" y="459"/>
      <point x="113" y="444" type="curve"/>
      <point x="74" y="444" type="line"/>
      <point x="74" y="475"/>
      <point x="91" y="515"/>
      <point x="132" y="515" type="curve" smooth="yes"/>
      <point x="146" y="515"/>
      <point x="159" y="509"/>
      <point x="172" y="504" type="curve" smooth="yes"/>
      <point x="184" y="498"/>
      <point x="196" y="493"/>
      <point x="209" y="493" type="curve" smooth="yes"/>
      <point x="221" y="493"/>
      <point x="229" y="498"/>
      <point x="232" y="515" type="curve"/>
    </contour>
    <contour>
      <point x="344" y="0" type="line"/>
      <point x="268" y="0" type="line"/>
      <point x="244" y="78" type="line"/>
      <point x="96" y="78" type="line"/>
      <point x="72" y="0" type="line"/>
      <point x="0" y="0" type="line"/>
      <point x="129" y="399" type="line"/>
      <point x="215" y="399" type="line"/>
    </contour>
    <contour>
      <point x="169" y="333" type="line"/>
      <point x="169" y="333"/>
      <point x="163" y="297"/>
      <point x="158" y="279" type="curve" smooth="yes"/>
      <point x="117" y="145" type="line"/>
      <point x="223" y="145" type="line"/>
      <point x="183" y="279" type="line" smooth="yes"/>
      <point x="177" y="299"/>
      <point x="171" y="333"/>
      <point x="171" y="333" type="curve"/>
    </contour>
  </outline>
</glyph>
<glyph name="AE" format="1">
  <advance width="478"/>
  <unicode hex="00C6"/>
  <outline>
    <contour>
      <point x="0" y="0" type="move" name="Anchor-1"/>
    </contour>
    <contour>
      <point x="239" y="399" type="move" name="Anchor-0"/>
    </contour>
    <contour>
      <point x="449" y="333" type="line"/>
      <point x="255" y="333" type="line"/>
      <point x="279" y="238" type="line"/>
      <point x="424" y="238" type="line"/>
      <point x="424" y="171" type="line"/>
      <point x="295" y="171" type="line"/>
      <point x="320" y="67" type="line"/>
      <point x="453" y="67" type="line"/>
      <point x="453" y="0" type="line"/>
      <point x="260" y="0" type="line"/>
      <point x="241" y="78" type="line"/>
      <point x="94" y="78" type="line"/>
      <point x="65" y="0" type="line"/>
      <point x="-5" y="0" type="line"/>
      <point x="148" y="399" type="line"/>
      <point x="449" y="399" type="line"/>
    </contour>
    <contour>
      <point x="183" y="318" type="line"/>
      <point x="180" y="313"/>
      <point x="179" y="309"/>
      <point x="177" y="304" type="curve" smooth="yes"/>
      <point x="176" y="302"/>
      <point x="175" y="299"/>
      <point x="174" y="297" type="curve" smooth="yes"/>
      <point x="118" y="145" type="line"/>
      <point x="225" y="145" type="line"/>
      <point x="190" y="297" type="line" smooth="yes"/>
      <point x="188" y="304"/>
      <point x="186" y="311"/>
      <point x="185" y="318" type="curve"/>
    </contour>
  </outline>
</glyph>
<glyph name="Egrave" format="1">
  <advance width="319"/>
  <unicode hex="00C8"/>
  <outline>
    <contour>
      <point x="199" y="438" type="line"/>
      <point x="142" y="438" type="line"/>
      <point x="78" y="513" type="line"/>
      <point x="79" y="515" type="line"/>
      <point x="149" y="515" type="line"/>
    </contour>
    <contour>
      <point x="289" y="333" type="line"/>
      <point x="109" y="333" type="line"/>
      <point x="109" y="238" type="line"/>
      <point x="264" y="238" type="line"/>
      <point x="264" y="171" type="line"/>
      <point x="109" y="171" type="line"/>
      <point x="109" y="67" type="line"/>
      <point x="293" y="67" type="line"/>
      <point x="293" y="0" type="line"/>
      <point x="35" y="0" type="line"/>
      <point x="35" y="399" type="line"/>
      <point x="289" y="399" type="line"/>
    </contour>
  </outline>
</glyph>
<glyph name="Ecircumflex" format="1">
  <advance width="319"/>
  <unicode hex="00CA"/>
  <outline>
    <contour>
      <point x="185" y="436" type="line"/>
      <point x="159" y="476" type="line"/>
      <point x="133" y="436" type="line"/>
      <point x="81" y="436" type="line"/>
      <point x="131" y="515" type="line"/>
      <point x="188" y="515" type="line"/>
      <point x="238" y="436" type="line"/>
    </contour>
    <contour>
      <point x="35" y="399" type="line"/>
      <point x="289" y="399" type="line"/>
      <point x="289" y="333" type="line"/>
      <point x="109" y="333" type="line"/>
      <point x="109" y="238" type="line"/>
      <point x="264" y="238" type="line"/>
      <point x="264" y="171" type="line"/>
      <point x="109" y="171" type="line"/>
      <point x="109" y="67" type="line"/>
      <point x="293" y="67" type="line"/>
      <point x="293" y="0" type="line"/>
      <point x="35" y="0" type="line"/>
    </contour>
  </outline>
</glyph>
<glyph name="Edieresis" format="1">
  <advance width="319"/>
  <unicode hex="00CB"/>
  <outline>
    <contour>
      <point x="138" y="451" type="line"/>
      <point x="79" y="451" type="line"/>
      <point x="79" y="515" type="line"/>
      <point x="138" y="515" type="line"/>
    </contour>
    <contour>
      <point x="239" y="451" type="line"/>
      <point x="181" y="451" type="line"/>
      <point x="181" y="515" type="line"/>
      <point x="239" y="515" type="line"/>
    </contour>
    <contour>
      <point x="289" y="333" type="line"/>
      <point x="109" y="333" type="line"/>
      <point x="109" y="238" type="line"/>
      <point x="264" y="238" type="line"/>
      <point x="264" y="171" type="line"/>
      <point x="109" y="171" type="line"/>
      <point x="109" y="67" type="line"/>
      <point x="293" y="67" type="line"/>
      <point x="293" y="0" type="line"/>
      <point x="35" y="0" type="line"/>
      <point x="35" y="399" type="line"/>
      <point x="289" y="399" type="line"/>
    </contour>
  </outline>
</glyph>
<glyph name="Igrave" format="1">
  <advance width="133"/>
  <unicode hex="00CC"/>
  <outline>
    <contour>
      <point x="107" y="438" type="line"/>
      <point x="49" y="438" type="line"/>
      <point x="-14" y="513" type="line"/>
      <point x="-13" y="515" type="line"/>
      <point x="57" y="515" type="line"/>
    </contour>
    <contour>
      <point x="103" y="0" type="line"/>
      <point x="29" y="0" type="line"/>
      <point x="29" y="399" type="line"/>
      <point x="103" y="399" type="line"/>
    </contour>
  </outline>
</glyph>
<glyph name="Iacute" format="1">
  <advance width="133"/>
  <unicode hex="00CD"/>
  <outline>
    <contour>
      <point x="147" y="513" type="line"/>
      <point x="84" y="438" type="line"/>
      <point x="26" y="438" type="line"/>
      <point x="76" y="515" type="line"/>
      <point x="146" y="515" type="line"/>
    </contour>
    <contour>
      <point x="103" y="0" type="line"/>
      <point x="29" y="0" type="line"/>
      <point x="29" y="399" type="line"/>
      <point x="103" y="399" type="line"/>
    </contour>
  </outline>
</glyph>
<glyph name="Oslash" format="1">
  <advance width="372"/>
  <unicode hex="00D8"/>
  <outline>
    <contour>
      <point x="0" y="0" type="move" name="Anchor-1"/>
    </contour>
    <contour>
      <point x="186" y="399" type="move" name="Anchor-0"/>
    </contour>
    <contour>
      <point x="308" y="355" type="line"/>
      <point x="336" y="322"/>
      <point x="352" y="270"/>
      <point x="352" y="200" type="curve" smooth="yes"/>
      <point x="352" y="59"/>
      <point x="289" y="-7"/>
      <point x="186" y="-7" type="curve" smooth="yes"/>
      <point x="151" y="-7"/>
      <point x="121" y="1"/>
      <point x="96" y="16" type="curve"/>
      <point x="72" y="-22" type="line"/>
      <point x="23" y="-22" type="line"/>
      <point x="64" y="43" type="line"/>
      <point x="36" y="78"/>
      <point x="20" y="129"/>
      <point x="20" y="200" type="curve" smooth="yes"/>
      <point x="20" y="341"/>
      <point x="83" y="407"/>
      <point x="186" y="407" type="curve" smooth="yes"/>
      <point x="221" y="407"/>
      <point x="251" y="399"/>
      <point x="276" y="384" type="curve"/>
      <point x="300" y="421" type="line"/>
      <point x="349" y="421" type="line"/>
    </contour>
    <contour>
      <point x="186" y="343" type="curve" smooth="yes"/>
      <point x="127" y="343"/>
      <point x="97" y="294"/>
      <point x="97" y="214" type="curve" smooth="yes"/>
      <point x="97" y="185" type="line" smooth="yes"/>
      <point x="97" y="158"/>
      <point x="100" y="133"/>
      <point x="107" y="113" type="curve"/>
      <point x="239" y="324" type="line"/>
      <point x="225" y="336"/>
      <point x="208" y="343"/>
    </contour>
    <contour>
      <point x="133" y="75" type="line"/>
      <point x="146" y="63"/>
      <point x="164" y="57"/>
      <point x="186" y="57" type="curve" smooth="yes"/>
      <point x="245" y="57"/>
      <point x="275" y="105"/>
      <point x="275" y="185" type="curve" smooth="yes"/>
      <point x="275" y="214" type="line" smooth="yes"/>
      <point x="275" y="242"/>
      <point x="272" y="266"/>
      <point x="264" y="285" type="curve"/>
    </contour>
  </outline>
</glyph>
<glyph name="Ucircumflex" format="1">
  <advance width="345"/>
  <unicode hex="00DB"/>
  <outline>
    <contour>
      <point x="251" y="436" type="line"/>
      <point x="198" y="436" type="line"/>
      <point x="173" y="476" type="line"/>
      <point x="146" y="436" type="line"/>
      <point x="94" y="436" type="line"/>
      <point x="144" y="515" type="line"/>
      <point x="202" y="515" type="line"/>
    </contour>
    <contour>
      <point x="310" y="125" type="line" smooth="yes"/>
      <point x="310" y="38"/>
      <point x="258" y="-7"/>
      <point x="173" y="-7" type="curve" smooth="yes"/>
      <point x="87" y="-7"/>
      <point x="36" y="38"/>
      <point x="36" y="125" type="curve" smooth="yes"/>
      <point x="36" y="399" type="line"/>
      <point x="110" y="399" type="line"/>
      <point x="110" y="128" type="line" smooth="yes"/>
      <point x="110" y="82"/>
      <point x="133" y="57"/>
      <point x="173" y="57" type="curve" smooth="yes"/>
      <point x="212" y="57"/>
      <point x="235" y="82"/>
      <point x="235" y="128" type="curve" smooth="yes"/>
      <point x="235" y="399" type="line"/>
      <point x="310" y="399" type="line"/>
    </contour>
  </outline>
</glyph>
<glyph name="Yacute" format="1">
  <advance width="319"/>
  <unicode hex="00DD"/>
  <outline>
    <contour>
      <point x="240" y="513" type="line"/>
      <point x="177" y="438" type="line"/>
      <point x="119" y="438" type="line"/>
      <point x="169" y="515" type="line"/>
      <point x="239" y="515" type="line"/>
    </contour>
    <contour>
      <point x="197" y="151" type="line"/>
      <point x="197" y="0" type="line"/>
      <point x="123" y="0" type="line"/>
      <point x="123" y="151" type="line"/>
      <point x="0" y="399" type="line"/>
      <point x="78" y="399" type="line"/>
      <point x="160" y="224" type="line"/>
      <point x="163" y="224" type="line"/>
      <point x="244" y="399" type="line"/>
      <point x="319" y="399" type="line"/>
    </contour>
  </outline>
</glyph>
<glyph name="germandbls" format="1">
  <advance width="292"/>
  <unicode hex="00DF"/>
  <outline>
    <contour>
      <point x="148" y="428" type="curve" smooth="yes"/>
      <point x="214" y="428"/>
      <point x="264" y="387"/>
      <point x="264" y="319" type="curve" smooth="yes"/>
      <point x="264" y="281"/>
      <point x="241" y="243"/>
      <point x="208" y="230" type="curve"/>
      <point x="208" y="228" type="line"/>
      <point x="248" y="214"/>
      <point x="275" y="169"/>
      <point x="275" y="125" type="curve" smooth="yes"/>
      <point x="275" y="49"/>
      <point x="224" y="0"/>
      <point x="159" y="0" type="curve" smooth="yes"/>
      <point x="121" y="0" type="line"/>
      <point x="121" y="59" type="line"/>
      <point x="152" y="59" type="line" smooth="yes"/>
      <point x="181" y="59"/>
      <point x="205" y="90"/>
      <point x="205" y="125" type="curve" smooth="yes"/>
      <point x="205" y="160"/>
      <point x="181" y="188"/>
      <point x="152" y="188" type="curve" smooth="yes"/>
      <point x="121" y="188" type="line"/>
      <point x="121" y="254" type="line"/>
      <point x="150" y="254" type="line" smooth="yes"/>
      <point x="173" y="254"/>
      <point x="193" y="283"/>
      <point x="193" y="318" type="curve" smooth="yes"/>
      <point x="193" y="348"/>
      <point x="177" y="369"/>
      <point x="145" y="369" type="curve" smooth="yes"/>
      <point x="114" y="369"/>
      <point x="93" y="347"/>
      <point x="93" y="308" type="curve" smooth="yes"/>
      <point x="93" y="0" type="line"/>
      <point x="23" y="0" type="line"/>
      <point x="23" y="303" type="line" smooth="yes"/>
      <point x="23" y="392"/>
      <point x="78" y="428"/>
    </contour>
  </outline>
</glyph>
<glyph name="aacute" format="1">
  <advance width="266"/>
  <unicode hex="00E1"/>
  <outline>
    <contour>
      <point x="207" y="419" type="line"/>
      <point x="144" y="344" type="line"/>
      <point x="86" y="344" type="line"/>
      <point x="136" y="421" type="line"/>
      <point x="206" y="421" type="line"/>
    </contour>
    <contour>
      <point x="127" y="314" type="curve" smooth="yes"/>
      <point x="198" y="314"/>
      <point x="231" y="280"/>
      <point x="231" y="223" type="curve" smooth="yes"/>
      <point x="231" y="72" type="line" smooth="yes"/>
      <point x="231" y="58"/>
      <point x="239" y="52"/>
      <point x="247" y="52" type="curve" smooth="yes"/>
      <point x="261" y="52" type="line"/>
      <point x="261" y="3" type="line"/>
      <point x="254" y="-2"/>
      <point x="241" y="-7"/>
      <point x="219" y="-7" type="curve" smooth="yes"/>
      <point x="192" y="-7"/>
      <point x="173" y="9"/>
      <point x="165" y="33" type="curve"/>
      <point x="163" y="33" type="line"/>
      <point x="145" y="9"/>
      <point x="126" y="-7"/>
      <point x="85" y="-7" type="curve" smooth="yes"/>
      <point x="57" y="-7"/>
      <point x="8" y="8"/>
      <point x="8" y="79" type="curve" smooth="yes"/>
      <point x="8" y="162"/>
      <point x="71" y="186"/>
      <point x="160" y="186" type="curve"/>
      <point x="160" y="218" type="line" smooth="yes"/>
      <point x="160" y="239"/>
      <point x="155" y="256"/>
      <point x="128" y="256" type="curve" smooth="yes"/>
      <point x="100" y="256"/>
      <point x="92" y="239"/>
      <point x="92" y="224" type="curve" smooth="yes"/>
      <point x="92" y="215" type="line"/>
      <point x="23" y="215" type="line"/>
      <point x="22" y="219"/>
      <point x="22" y="223"/>
      <point x="22" y="229" type="curve" smooth="yes"/>
      <point x="22" y="279"/>
      <point x="63" y="314"/>
    </contour>
    <contour>
      <point x="160" y="136" type="line"/>
      <point x="119" y="136"/>
      <point x="80" y="125"/>
      <point x="80" y="86" type="curve" smooth="yes"/>
      <point x="80" y="65"/>
      <point x="90" y="51"/>
      <point x="114" y="51" type="curve" smooth="yes"/>
      <point x="148" y="51"/>
      <point x="160" y="82"/>
      <point x="160" y="118" type="curve" smooth="yes"/>
    </contour>
  </outline>
</glyph>
<glyph name="eacute" format="1">
  <advance width="266"/>
  <unicode hex="00E9"/>
  <outline>
    <contour>
      <point x="214" y="419" type="line"/>
      <point x="150" y="344" type="line"/>
      <point x="93" y="344" type="line"/>
      <point x="143" y="421" type="line"/>
      <point x="213" y="421" type="line"/>
    </contour>
    <contour>
      <point x="136" y="314" type="curve" smooth="yes"/>
      <point x="210" y="314"/>
      <point x="246" y="264"/>
      <point x="246" y="153" type="curve" smooth="yes"/>
      <point x="246" y="136" type="line"/>
      <point x="91" y="136" type="line"/>
      <point x="92" y="81"/>
      <point x="103" y="50"/>
      <point x="138" y="50" type="curve" smooth="yes"/>
      <point x="162" y="50"/>
      <point x="177" y="72"/>
      <point x="177" y="108" type="curve"/>
      <point x="246" y="108" type="line"/>
      <point x="246" y="30"/>
      <point x="200" y="-7"/>
      <point x="138" y="-7" type="curve" smooth="yes"/>
      <point x="59" y="-7"/>
      <point x="18" y="43"/>
      <point x="18" y="153" type="curve" smooth="yes"/>
      <point x="18" y="264"/>
      <point x="60" y="314"/>
    </contour>
    <contour>
      <point x="136" y="256" type="curve" smooth="yes"/>
      <point x="106" y="256"/>
      <point x="94" y="231"/>
      <point x="92" y="186" type="curve"/>
      <point x="173" y="186" type="line"/>
      <point x="173" y="231"/>
      <point x="161" y="256"/>
    </contour>
  </outline>
</glyph>
<glyph name="icircumflex" format="1">
  <advance width="133"/>
  <unicode hex="00EE"/>
  <outline>
    <contour>
      <point x="93" y="343" type="line"/>
      <point x="67" y="383" type="line"/>
      <point x="41" y="343" type="line"/>
      <point x="-13" y="343" type="line"/>
      <point x="38" y="421" type="line"/>
      <point x="96" y="421" type="line"/>
      <point x="145" y="343" type="line"/>
    </contour>
    <contour>
      <point x="32" y="0" type="line"/>
      <point x="32" y="306" type="line"/>
      <point x="101" y="306" type="line"/>
      <point x="101" y="0" type="line"/>
    </contour>
  </outline>
</glyph>
<glyph name="idieresis" format="1">
  <advance width="133"/>
  <unicode hex="00EF"/>
  <outline>
    <contour>
      <point x="45" y="358" type="line"/>
      <point x="-13" y="358" type="line"/>
      <point x="-13" y="421" type="line"/>
      <point x="45" y="421" type="line"/>
    </contour>
    <contour>
      <point x="147" y="358" type="line"/>
      <point x="88" y="358" type="line"/>
      <point x="88" y="421" type="line"/>
      <point x="147" y="421" type="line"/>
    </contour>
    <contour>
      <point x="101" y="0" type="line"/>
      <point x="32" y="0" type="line"/>
      <point x="32" y="306" type="line"/>
      <point x="101" y="306" type="line"/>
    </contour>
  </outline>
</glyph>
<glyph name="divide" format="1">
  <advance width="320"/>
  <unicode hex="00F7"/>
  <outline>
    <contour>
      <point x="129" y="209" type="line"/>
      <point x="129" y="273" type="line"/>
      <point x="190" y="273" type="line"/>
      <point x="190" y="209" type="line"/>
    </contour>
    <contour>
      <point x="19" y="118" type="line"/>
      <point x="19" y="179" type="line"/>
      <point x="300" y="179" type="line"/>
      <point x="300" y="118" type="line"/>
    </contour>
    <contour>
      <point x="129" y="24" type="line"/>
      <point x="129" y="88" type="line"/>
      <point x="190" y="88" type="line"/>
      <point x="190" y="24" type="line"/>
    </contour>
  </outline>
</glyph>
<glyph name="thorn" format="1">
  <advance width="292"/>
  <unicode hex="00FE"/>
  <outline>
    <contour>
      <point x="169" y="314" type="curve" smooth="yes"/>
      <point x="230" y="314"/>
      <point x="268" y="264"/>
      <point x="268" y="153" type="curve" smooth="yes"/>
      <point x="268" y="42"/>
      <point x="227" y="-7"/>
      <point x="173" y="-7" type="curve" smooth="yes"/>
      <point x="142" y="-7"/>
      <point x="116" y="7"/>
      <point x="105" y="32" type="curve"/>
      <point x="102" y="32" type="line"/>
      <point x="102" y="-101" type="line"/>
      <point x="32" y="-101" type="line"/>
      <point x="32" y="421" type="line"/>
      <point x="102" y="421" type="line"/>
      <point x="102" y="272" type="line"/>
      <point x="117" y="300"/>
      <point x="141" y="314"/>
    </contour>
    <contour>
      <point x="195" y="142" type="curve" smooth="yes"/>
      <point x="195" y="164" type="line" smooth="yes"/>
      <point x="195" y="219"/>
      <point x="183" y="250"/>
      <point x="148" y="250" type="curve" smooth="yes"/>
      <point x="115" y="250"/>
      <point x="102" y="219"/>
      <point x="102" y="164" type="curve" smooth="yes"/>
      <point x="102" y="143" type="line" smooth="yes"/>
      <point x="102" y="88"/>
      <point x="115" y="57"/>
      <point x="148" y="57" type="curve" smooth="yes"/>
      <point x="183" y="57"/>
      <point x="195" y="87"/>
    </contour>
  </outline>
</glyph>
<glyph name="ydieresis" format="1">
  <advance width="266"/>
  <unicode hex="00FF"/>
  <outline>
    <contour>
      <point x="111" y="358" type="line"/>
      <point x="53" y="358" type="line"/>
      <point x="53" y="421" type="line"/>
      <point x="111" y="421" type="line"/>
    </contour>
    <contour>
      <point x="214" y="358" type="line"/>
      <point x="155" y="358" type="line"/>
      <point x="155" y="421" type="line"/>
      <point x="214" y="421" type="line"/>
    </contour>
    <contour>
      <point x="179" y="16" type="line" smooth="yes"/>
      <point x="160" y="-51"/>
      <point x="130" y="-106"/>
      <point x="71" y="-106" type="curve" smooth="yes"/>
      <point x="43" y="-106"/>
      <point x="26" y="-101"/>
      <point x="26" y="-101" type="curve"/>
      <point x="26" y="-47" type="line"/>
      <point x="57" y="-47" type="line" smooth="yes"/>
      <point x="77" y="-47"/>
      <point x="96" y="-34"/>
      <point x="104" y="0" type="curve"/>
      <point x="3" y="306" type="line"/>
      <point x="76" y="306" type="line"/>
      <point x="123" y="163" type="line" smooth="yes"/>
      <point x="128" y="145"/>
      <point x="130" y="128"/>
      <point x="133" y="111" type="curve" smooth="yes"/>
      <point x="135" y="101"/>
      <point x="136" y="92"/>
      <point x="138" y="83" type="curve"/>
      <point x="141" y="83" type="line"/>
      <point x="143" y="92"/>
      <point x="144" y="101"/>
      <point x="145" y="110" type="curve" smooth="yes"/>
      <point x="148" y="127"/>
      <point x="151" y="145"/>
      <point x="156" y="162" type="curve" smooth="yes"/>
      <point x="193" y="306" type="line"/>
      <point x="264" y="306" type="line"/>
    </contour>
  </outline>
</glyph>
<glyph name="Aogonek" format="1">
  <advance width="345"/>
  <unicode hex="0104"/>
  <outline>
    <contour>
      <point x="353" y="-71" type="curve" smooth="yes"/>
      <point x="366" y="-71" type="line"/>
      <point x="366" y="-103" type="line"/>
      <point x="353" y="-108"/>
      <point x="340" y="-111"/>
      <point x="328" y="-111" type="curve" smooth="yes"/>
      <point x="301" y="-111"/>
      <point x="270" y="-98"/>
      <point x="270" y="-58" type="curve" smooth="yes"/>
      <point x="270" y="-32"/>
      <point x="281" y="-18"/>
      <point x="293" y="-4" type="curve" smooth="yes"/>
      <point x="294" y="-3"/>
      <point x="295" y="-1"/>
      <point x="296" y="0" type="curve" smooth="yes"/>
      <point x="268" y="0" type="line"/>
      <point x="244" y="78" type="line"/>
      <point x="96" y="78" type="line"/>
      <point x="72" y="0" type="line"/>
      <point x="0" y="0" type="line"/>
      <point x="129" y="399" type="line"/>
      <point x="215" y="399" type="line"/>
      <point x="344" y="0" type="line"/>
      <point x="337" y="-7"/>
      <point x="327" y="-22"/>
      <point x="327" y="-41" type="curve" smooth="yes"/>
      <point x="327" y="-56"/>
      <point x="334" y="-71"/>
    </contour>
    <contour>
      <point x="117" y="145" type="line"/>
      <point x="223" y="145" type="line"/>
      <point x="183" y="279" type="line" smooth="yes"/>
      <point x="177" y="299"/>
      <point x="171" y="333"/>
      <point x="171" y="333" type="curve"/>
      <point x="169" y="333" type="line"/>
      <point x="169" y="333"/>
      <point x="163" y="297"/>
      <point x="158" y="279" type="curve" smooth="yes"/>
    </contour>
  </outline>
</glyph>
<glyph name="Edotaccent" format="1">
  <advance width="319"/>
  <unicode hex="0116"/>
  <outline>
    <contour>
      <point x="128" y="447" type="line"/>
      <point x="128" y="515" type="line"/>
      <point x="190" y="515" type="line"/>
      <point x="190" y="447" type="line"/>
    </contour>
    <contour>
      <point x="35" y="399" type="line"/>
      <point x="289" y="399" type="line"/>
      <point x="289" y="333" type="line"/>
      <point x="109" y="333" type="line"/>
      <point x="109" y="238" type="line"/>
      <point x="264" y="238" type="line"/>
      <point x="264" y="171" type="line"/>
      <point x="109" y="171" type="line"/>
      <point x="109" y="67" type="line"/>
      <point x="293" y="67" type="line"/>
      <point x="293" y="0" type="line"/>
      <point x="35" y="0" type="line"/>
    </contour>
  </outline>
</glyph>
<glyph name="Eogonek" format="1">
  <advance width="319"/>
  <unicode hex="0118"/>
  <outline>
    <contour>
      <point x="109" y="333" type="line"/>
      <point x="109" y="238" type="line"/>
      <point x="264" y="238" type="line"/>
      <point x="264" y="171" type="line"/>
      <point x="109" y="171" type="line"/>
      <point x="109" y="67" type="line"/>
      <point x="293" y="67" type="line"/>
      <point x="293" y="0" type="line"/>
      <point x="286" y="-8"/>
      <point x="275" y="-24"/>
      <point x="275" y="-41" type="curve" smooth="yes"/>
      <point x="275" y="-56"/>
      <point x="283" y="-71"/>
      <point x="302" y="-71" type="curve" smooth="yes"/>
      <point x="314" y="-71" type="line"/>
      <point x="314" y="-103" type="line"/>
      <point x="301" y="-108"/>
      <point x="289" y="-111"/>
      <point x="276" y="-111" type="curve" smooth="yes"/>
      <point x="249" y="-111"/>
      <point x="218" y="-98"/>
      <point x="218" y="-58" type="curve" smooth="yes"/>
      <point x="218" y="-31"/>
      <point x="230" y="-14"/>
      <point x="244" y="0" type="curve"/>
      <point x="35" y="0" type="line"/>
      <point x="35" y="399" type="line"/>
      <point x="289" y="399" type="line"/>
      <point x="289" y="333" type="line"/>
    </contour>
  </outline>
</glyph>
<glyph name="Gcircumflex" format="1">
  <advance width="372"/>
  <unicode hex="011C"/>
  <outline>
    <contour>
      <point x="186" y="476" type="line"/>
      <point x="160" y="436" type="line"/>
      <point x="108" y="436" type="line"/>
      <point x="158" y="515" type="line"/>
      <point x="215" y="515" type="line"/>
      <point x="264" y="436" type="line"/>
      <point x="212" y="436" type="line"/>
    </contour>
    <contour>
      <point x="176" y="153" type="line"/>
      <point x="176" y="217" type="line"/>
      <point x="342" y="217" type="line"/>
      <point x="342" y="0" type="line"/>
      <point x="294" y="0" type="line"/>
      <point x="281" y="44" type="line"/>
      <point x="255" y="11"/>
      <point x="216" y="-7"/>
      <point x="174" y="-7" type="curve" smooth="yes"/>
      <point x="76" y="-7"/>
      <point x="20" y="58"/>
      <point x="20" y="200" type="curve" smooth="yes"/>
      <point x="20" y="341"/>
      <point x="82" y="407"/>
      <point x="189" y="407" type="curve" smooth="yes"/>
      <point x="270" y="407"/>
      <point x="342" y="355"/>
      <point x="342" y="260" type="curve"/>
      <point x="266" y="260" type="line"/>
      <point x="266" y="314"/>
      <point x="230" y="343"/>
      <point x="187" y="343" type="curve" smooth="yes"/>
      <point x="125" y="343"/>
      <point x="97" y="294"/>
      <point x="97" y="214" type="curve" smooth="yes"/>
      <point x="97" y="185" type="line" smooth="yes"/>
      <point x="97" y="103"/>
      <point x="125" y="57"/>
      <point x="188" y="57" type="curve" smooth="yes"/>
      <point x="233" y="57"/>
      <point x="266" y="94"/>
      <point x="266" y="153" type="curve"/>
    </contour>
  </outline>
</glyph>
<glyph name="Hcircumflex" format="1">
  <advance width="345"/>
  <unicode hex="0124"/>
  <outline>
    <contour>
      <point x="251" y="436" type="line"/>
      <point x="198" y="436" type="line"/>
      <point x="173" y="476" type="line"/>
      <point x="146" y="436" type="line"/>
      <point x="94" y="436" type="line"/>
      <point x="144" y="515" type="line"/>
      <point x="202" y="515" type="line"/>
    </contour>
    <contour>
      <point x="310" y="0" type="line"/>
      <point x="235" y="0" type="line"/>
      <point x="235" y="171" type="line"/>
      <point x="109" y="171" type="line"/>
      <point x="109" y="0" type="line"/>
      <point x="35" y="0" type="line"/>
      <point x="35" y="399" type="line"/>
      <point x="109" y="399" type="line"/>
      <point x="109" y="238" type="line"/>
      <point x="235" y="238" type="line"/>
      <point x="235" y="399" type="line"/>
      <point x="310" y="399" type="line"/>
    </contour>
  </outline>
</glyph>
<glyph name="Hbar" format="1">
  <advance width="345"/>
  <unicode hex="0126"/>
  <outline>
    <contour>
      <point x="310" y="285" type="line"/>
      <point x="310" y="0" type="line"/>
      <point x="235" y="0" type="line"/>
      <point x="235" y="167" type="line"/>
      <point x="109" y="167" type="line"/>
      <point x="109" y="0" type="line"/>
      <point x="35" y="0" type="line"/>
      <point x="35" y="285" type="line"/>
      <point x="6" y="285" type="line"/>
      <point x="6" y="336" type="line"/>
      <point x="35" y="336" type="line"/>
      <point x="35" y="399" type="line"/>
      <point x="109" y="399" type="line"/>
      <point x="109" y="336" type="line"/>
      <point x="235" y="336" type="line"/>
      <point x="235" y="399" type="line"/>
      <point x="310" y="399" type="line"/>
      <point x="310" y="336" type="line"/>
      <point x="339" y="336" type="line"/>
      <point x="339" y="285" type="line"/>
    </contour>
    <contour>
      <point x="235" y="285" type="line"/>
      <point x="109" y="285" type="line"/>
      <point x="109" y="233" type="line"/>
      <point x="235" y="233" type="line"/>
    </contour>
  </outline>
</glyph>
<glyph name="hbar" format="1">
  <advance width="292"/>
  <unicode hex="0127"/>
  <outline>
    <contour>
      <point x="102" y="390" type="line"/>
      <point x="179" y="390" type="line"/>
      <point x="179" y="339" type="line"/>
      <point x="102" y="339" type="line"/>
      <point x="102" y="273" type="line"/>
      <point x="104" y="273" type="line"/>
      <point x="118" y="293"/>
      <point x="142" y="314"/>
      <point x="179" y="314" type="curve" smooth="yes"/>
      <point x="225" y="314"/>
      <point x="260" y="287"/>
      <point x="260" y="215" type="curve" smooth="yes"/>
      <point x="260" y="0" type="line"/>
      <point x="190" y="0" type="line"/>
      <point x="190" y="196" type="line" smooth="yes"/>
      <point x="190" y="235"/>
      <point x="175" y="250"/>
      <point x="150" y="250" type="curve" smooth="yes"/>
      <point x="123" y="250"/>
      <point x="102" y="223"/>
      <point x="102" y="188" type="curve" smooth="yes"/>
      <point x="102" y="0" type="line"/>
      <point x="32" y="0" type="line"/>
      <point x="32" y="339" type="line"/>
      <point x="0" y="339" type="line"/>
      <point x="0" y="390" type="line"/>
      <point x="32" y="390" type="line"/>
      <point x="32" y="421" type="line"/>
      <point x="102" y="421" type="line"/>
    </contour>
  </outline>
</glyph>
<glyph name="Itilde" format="1">
  <advance width="133"/>
  <unicode hex="0128"/>
  <outline>
    <contour>
      <point x="165" y="515" type="line"/>
      <point x="165" y="482"/>
      <point x="148" y="444"/>
      <point x="107" y="444" type="curve" smooth="yes"/>
      <point x="93" y="444"/>
      <point x="80" y="449"/>
      <point x="68" y="455" type="curve" smooth="yes"/>
      <point x="56" y="460"/>
      <point x="43" y="465"/>
      <point x="30" y="465" type="curve" smooth="yes"/>
      <point x="18" y="465"/>
      <point x="10" y="459"/>
      <point x="7" y="444" type="curve"/>
      <point x="-32" y="444" type="line"/>
      <point x="-32" y="475"/>
      <point x="-15" y="515"/>
      <point x="26" y="515" type="curve" smooth="yes"/>
      <point x="41" y="515"/>
      <point x="54" y="509"/>
      <point x="67" y="504" type="curve" smooth="yes"/>
      <point x="79" y="498"/>
      <point x="90" y="493"/>
      <point x="103" y="493" type="curve" smooth="yes"/>
      <point x="116" y="493"/>
      <point x="123" y="498"/>
      <point x="126" y="515" type="curve"/>
    </contour>
    <contour>
      <point x="29" y="0" type="line"/>
      <point x="29" y="399" type="line"/>
      <point x="103" y="399" type="line"/>
      <point x="103" y="0" type="line"/>
    </contour>
  </outline>
</glyph>
<glyph name="itilde" format="1">
  <advance width="133"/>
  <unicode hex="0129"/>
  <outline>
    <contour>
      <point x="165" y="421" type="line"/>
      <point x="165" y="389"/>
      <point x="148" y="350"/>
      <point x="107" y="350" type="curve" smooth="yes"/>
      <point x="93" y="350"/>
      <point x="80" y="356"/>
      <point x="68" y="361" type="curve" smooth="yes"/>
      <point x="56" y="367"/>
      <point x="43" y="372"/>
      <point x="30" y="372" type="curve" smooth="yes"/>
      <point x="18" y="372"/>
      <point x="10" y="366"/>
      <point x="7" y="350" type="curve"/>
      <point x="-32" y="350" type="line"/>
      <point x="-32" y="382"/>
      <point x="-15" y="421"/>
      <point x="26" y="421" type="curve" smooth="yes"/>
      <point x="41" y="421"/>
      <point x="54" y="415"/>
      <point x="67" y="410" type="curve" smooth="yes"/>
      <point x="79" y="404"/>
      <point x="90" y="399"/>
      <point x="103" y="399" type="curve" smooth="yes"/>
      <point x="116" y="399"/>
      <point x="123" y="405"/>
      <point x="126" y="421" type="curve"/>
    </contour>
    <contour>
      <point x="32" y="0" type="line"/>
      <point x="32" y="306" type="line"/>
      <point x="101" y="306" type="line"/>
      <point x="101" y="0" type="line"/>
    </contour>
  </outline>
</glyph>
<glyph name="Imacron" format="1">
  <advance width="133"/>
  <unicode hex="012A"/>
  <outline>
    <contour>
      <point x="-8" y="442" type="line"/>
      <point x="-8" y="493" type="line"/>
      <point x="141" y="493" type="line"/>
      <point x="141" y="442" type="line"/>
    </contour>
    <contour>
      <point x="29" y="0" type="line"/>
      <point x="29" y="399" type="line"/>
      <point x="103" y="399" type="line"/>
      <point x="103" y="0" type="line"/>
    </contour>
  </outline>
</glyph>
<glyph name="Ibreve" format="1">
  <advance width="133"/>
  <unicode hex="012C"/>
  <outline>
    <contour>
      <point x="144" y="515" type="line"/>
      <point x="144" y="485"/>
      <point x="115" y="452"/>
      <point x="67" y="452" type="curve" smooth="yes"/>
      <point x="18" y="452"/>
      <point x="-12" y="485"/>
      <point x="-12" y="515" type="curve"/>
      <point x="32" y="515" type="line"/>
      <point x="34" y="506"/>
      <point x="47" y="495"/>
      <point x="67" y="495" type="curve" smooth="yes"/>
      <point x="86" y="495"/>
      <point x="100" y="506"/>
      <point x="101" y="515" type="curve"/>
    </contour>
    <contour>
      <point x="29" y="0" type="line"/>
      <point x="29" y="399" type="line"/>
      <point x="103" y="399" type="line"/>
      <point x="103" y="0" type="line"/>
    </contour>
  </outline>
</glyph>
<glyph name="Iogonek" format="1">
  <advance width="133"/>
  <unicode hex="012E"/>
  <outline>
    <contour>
      <point x="103" y="0" type="line" smooth="yes"/>
      <point x="102" y="-1"/>
      <point x="102" y="-2"/>
      <point x="101" y="-3" type="curve" smooth="yes"/>
      <point x="95" y="-12"/>
      <point x="86" y="-26"/>
      <point x="86" y="-41" type="curve" smooth="yes"/>
      <point x="86" y="-56"/>
      <point x="93" y="-71"/>
      <point x="113" y="-71" type="curve" smooth="yes"/>
      <point x="125" y="-71" type="line"/>
      <point x="125" y="-103" type="line"/>
      <point x="112" y="-108"/>
      <point x="100" y="-111"/>
      <point x="87" y="-111" type="curve" smooth="yes"/>
      <point x="61" y="-111"/>
      <point x="29" y="-98"/>
      <point x="29" y="-58" type="curve" smooth="yes"/>
      <point x="29" y="-31"/>
      <point x="41" y="-14"/>
      <point x="55" y="0" type="curve"/>
      <point x="29" y="0" type="line"/>
      <point x="29" y="399" type="line"/>
      <point x="103" y="399" type="line"/>
    </contour>
  </outline>
</glyph>
<glyph name="Idotaccent" format="1">
  <advance width="133"/>
  <unicode hex="0130"/>
  <outline>
    <contour>
      <point x="36" y="447" type="line"/>
      <point x="36" y="515" type="line"/>
      <point x="98" y="515" type="line"/>
      <point x="98" y="447" type="line"/>
    </contour>
    <contour>
      <point x="29" y="0" type="line"/>
      <point x="29" y="399" type="line"/>
      <point x="103" y="399" type="line"/>
      <point x="103" y="0" type="line"/>
    </contour>
  </outline>
</glyph>
<glyph name="dotlessi" format="1">
  <advance width="133"/>
  <unicode hex="0131"/>
  <outline>
    <contour>
      <point x="0" y="0" type="move" name="Anchor-1"/>
    </contour>
    <contour>
      <point x="67" y="306" type="move" name="Anchor-0"/>
    </contour>
    <contour>
      <point x="32" y="0" type="line"/>
      <point x="32" y="306" type="line"/>
      <point x="101" y="306" type="line"/>
      <point x="101" y="0" type="line"/>
    </contour>
  </outline>
</glyph>
<glyph name="ij" format="1">
  <advance width="266"/>
  <unicode hex="0133"/>
  <outline>
    <contour>
      <point x="101" y="358" type="line"/>
      <point x="32" y="358" type="line"/>
      <point x="32" y="421" type="line"/>
      <point x="101" y="421" type="line"/>
    </contour>
    <contour>
      <point x="234" y="358" type="line"/>
      <point x="164" y="358" type="line"/>
      <point x="164" y="421" type="line"/>
      <point x="234" y="421" type="line"/>
    </contour>
    <contour>
      <point x="101" y="0" type="line"/>
      <point x="32" y="0" type="line"/>
      <point x="32" y="306" type="line"/>
      <point x="101" y="306" type="line"/>
    </contour>
    <contour>
      <point x="234" y="-24" type="line" smooth="yes"/>
      <point x="234" y="-65"/>
      <point x="219" y="-106"/>
      <point x="163" y="-106" type="curve" smooth="yes"/>
      <point x="146" y="-106"/>
      <point x="123" y="-103"/>
      <point x="111" y="-99" type="curve"/>
      <point x="111" y="-47" type="line"/>
      <point x="137" y="-47" type="line" smooth="yes"/>
      <point x="155" y="-47"/>
      <point x="164" y="-38"/>
      <point x="164" y="-19" type="curve" smooth="yes"/>
      <point x="164" y="306" type="line"/>
      <point x="234" y="306" type="line"/>
    </contour>
  </outline>
</glyph>
<glyph name="jcircumflex" format="1">
  <advance width="133"/>
  <unicode hex="0135"/>
  <outline>
    <contour>
      <point x="94" y="343" type="line"/>
      <point x="68" y="383" type="line"/>
      <point x="42" y="343" type="line"/>
      <point x="-11" y="343" type="line"/>
      <point x="39" y="421" type="line"/>
      <point x="97" y="421" type="line"/>
      <point x="146" y="343" type="line"/>
    </contour>
    <contour>
      <point x="101" y="-24" type="line" smooth="yes"/>
      <point x="101" y="-65"/>
      <point x="86" y="-106"/>
      <point x="30" y="-106" type="curve" smooth="yes"/>
      <point x="13" y="-106"/>
      <point x="-9" y="-103"/>
      <point x="-22" y="-99" type="curve"/>
      <point x="-22" y="-47" type="line"/>
      <point x="4" y="-47" type="line" smooth="yes"/>
      <point x="22" y="-47"/>
      <point x="32" y="-38"/>
      <point x="32" y="-19" type="curve" smooth="yes"/>
      <point x="32" y="306" type="line"/>
      <point x="101" y="306" type="line"/>
    </contour>
  </outline>
</glyph>
<glyph name="Kcommaaccent" format="1">
  <advance width="345"/>
  <unicode hex="0136"/>
  <outline>
    <contour>
      <point x="256" y="399" type="line"/>
      <point x="339" y="399" type="line"/>
      <point x="221" y="237" type="line"/>
      <point x="343" y="0" type="line"/>
      <point x="259" y="0" type="line"/>
      <point x="173" y="179" type="line"/>
      <point x="110" y="102" type="line"/>
      <point x="110" y="0" type="line"/>
      <point x="35" y="0" type="line"/>
      <point x="35" y="399" type="line"/>
      <point x="110" y="399" type="line"/>
      <point x="110" y="195" type="line"/>
    </contour>
    <contour>
      <point x="182" y="-153" type="line"/>
      <point x="144" y="-153" type="line"/>
      <point x="165" y="-103" type="line"/>
      <point x="136" y="-103" type="line"/>
      <point x="136" y="-32" type="line"/>
      <point x="208" y="-32" type="line"/>
      <point x="208" y="-98" type="line"/>
    </contour>
  </outline>
</glyph>
<glyph name="Lacute" format="1">
  <advance width="292"/>
  <unicode hex="0139"/>
  <outline>
    <contour>
      <point x="154" y="513" type="line"/>
      <point x="92" y="438" type="line"/>
      <point x="34" y="438" type="line"/>
      <point x="84" y="515" type="line"/>
      <point x="154" y="515" type="line"/>
    </contour>
    <contour>
      <point x="109" y="70" type="line"/>
      <point x="279" y="70" type="line"/>
      <point x="279" y="0" type="line"/>
      <point x="35" y="0" type="line"/>
      <point x="35" y="399" type="line"/>
      <point x="109" y="399" type="line"/>
    </contour>
  </outline>
</glyph>
<glyph name="lacute" format="1">
  <advance width="133"/>
  <unicode hex="013A"/>
  <outline>
    <contour>
      <point x="147" y="513" type="line"/>
      <point x="84" y="438" type="line"/>
      <point x="26" y="438" type="line"/>
      <point x="76" y="515" type="line"/>
      <point x="146" y="515" type="line"/>
    </contour>
    <contour>
      <point x="101" y="0" type="line"/>
      <point x="32" y="0" type="line"/>
      <point x="32" y="421" type="line"/>
      <point x="101" y="421" type="line"/>
    </contour>
  </outline>
</glyph>
<glyph name="Lcommaaccent" format="1">
  <advance width="292"/>
  <unicode hex="013B"/>
  <outline>
    <contour>
      <point x="109" y="70" type="line"/>
      <point x="279" y="70" type="line"/>
      <point x="279" y="0" type="line"/>
      <point x="35" y="0" type="line"/>
      <point x="35" y="399" type="line"/>
      <point x="109" y="399" type="line"/>
    </contour>
    <contour>
      <point x="182" y="-98" type="line"/>
      <point x="156" y="-153" type="line"/>
      <point x="118" y="-153" type="line"/>
      <point x="138" y="-103" type="line"/>
      <point x="110" y="-103" type="line"/>
      <point x="110" y="-32" type="line"/>
      <point x="182" y="-32" type="line"/>
    </contour>
  </outline>
</glyph>
<glyph name="Ldot" format="1">
  <advance width="292"/>
  <unicode hex="013F"/>
  <outline>
    <contour>
      <point x="109" y="70" type="line"/>
      <point x="279" y="70" type="line"/>
      <point x="279" y="0" type="line"/>
      <point x="35" y="0" type="line"/>
      <point x="35" y="399" type="line"/>
      <point x="109" y="399" type="line"/>
    </contour>
    <contour>
      <point x="244" y="239" type="line"/>
      <point x="183" y="239" type="line"/>
      <point x="183" y="305" type="line"/>
      <point x="244" y="305" type="line"/>
    </contour>
  </outline>
</glyph>
<glyph name="ldot" format="1">
  <advance width="194"/>
  <unicode hex="0140"/>
  <outline>
    <contour>
      <point x="32" y="0" type="line"/>
      <point x="32" y="421" type="line"/>
      <point x="101" y="421" type="line"/>
      <point x="101" y="0" type="line"/>
    </contour>
    <contour>
      <point x="124" y="162" type="line"/>
      <point x="124" y="239" type="line"/>
      <point x="194" y="239" type="line"/>
      <point x="194" y="162" type="line"/>
    </contour>
  </outline>
</glyph>
<glyph name="lslash" format="1">
  <advance width="133"/>
  <unicode hex="0142"/>
  <outline>
    <contour>
      <point x="148" y="294" type="line"/>
      <point x="148" y="238" type="line"/>
      <point x="101" y="197" type="line"/>
      <point x="101" y="0" type="line"/>
      <point x="32" y="0" type="line"/>
      <point x="32" y="134" type="line"/>
      <point x="-8" y="100" type="line"/>
      <point x="-8" y="156" type="line"/>
      <point x="32" y="190" type="line"/>
      <point x="32" y="421" type="line"/>
      <point x="101" y="421" type="line"/>
      <point x="101" y="253" type="line"/>
    </contour>
  </outline>
</glyph>
<glyph name="Nacute" format="1">
  <advance width="345"/>
  <unicode hex="0143"/>
  <outline>
    <contour>
      <point x="253" y="513" type="line"/>
      <point x="190" y="438" type="line"/>
      <point x="132" y="438" type="line"/>
      <point x="183" y="515" type="line"/>
      <point x="252" y="515" type="line"/>
    </contour>
    <contour>
      <point x="310" y="0" type="line"/>
      <point x="244" y="0" type="line"/>
      <point x="120" y="220" type="line" smooth="yes"/>
      <point x="115" y="229"/>
      <point x="102" y="258"/>
      <point x="102" y="258" type="curve"/>
      <point x="100" y="256" type="line"/>
      <point x="100" y="256"/>
      <point x="101" y="233"/>
      <point x="101" y="223" type="curve" smooth="yes"/>
      <point x="101" y="0" type="line"/>
      <point x="35" y="0" type="line"/>
      <point x="35" y="399" type="line"/>
      <point x="101" y="399" type="line"/>
      <point x="224" y="179" type="line" smooth="yes"/>
      <point x="231" y="169"/>
      <point x="243" y="142"/>
      <point x="243" y="142" type="curve"/>
      <point x="244" y="144" type="line"/>
      <point x="244" y="399" type="line"/>
      <point x="310" y="399" type="line"/>
    </contour>
  </outline>
</glyph>
<glyph name="ncommaaccent" format="1">
  <advance width="292"/>
  <unicode hex="0146"/>
  <outline>
    <contour>
      <point x="179" y="314" type="curve" smooth="yes"/>
      <point x="225" y="314"/>
      <point x="260" y="287"/>
      <point x="260" y="215" type="curve" smooth="yes"/>
      <point x="260" y="0" type="line"/>
      <point x="190" y="0" type="line"/>
      <point x="190" y="196" type="line" smooth="yes"/>
      <point x="190" y="235"/>
      <point x="175" y="250"/>
      <point x="150" y="250" type="curve" smooth="yes"/>
      <point x="123" y="250"/>
      <point x="102" y="223"/>
      <point x="102" y="188" type="curve" smooth="yes"/>
      <point x="102" y="0" type="line"/>
      <point x="32" y="0" type="line"/>
      <point x="32" y="306" type="line"/>
      <point x="90" y="306" type="line"/>
      <point x="98" y="269" type="line"/>
      <point x="101" y="269" type="line"/>
      <point x="117" y="293"/>
      <point x="142" y="314"/>
    </contour>
    <contour>
      <point x="156" y="-153" type="line"/>
      <point x="118" y="-153" type="line"/>
      <point x="138" y="-103" type="line"/>
      <point x="110" y="-103" type="line"/>
      <point x="110" y="-32" type="line"/>
      <point x="182" y="-32" type="line"/>
      <point x="182" y="-98" type="line"/>
    </contour>
  </outline>
</glyph>
<glyph name="Omacron" format="1">
  <advance width="372"/>
  <unicode hex="014C"/>
  <outline>
    <contour>
      <point x="112" y="442" type="line"/>
      <point x="112" y="493" type="line"/>
      <point x="260" y="493" type="line"/>
      <point x="260" y="442" type="line"/>
    </contour>
    <contour>
      <point x="186" y="407" type="curve" smooth="yes"/>
      <point x="289" y="407"/>
      <point x="352" y="341"/>
      <point x="352" y="200" type="curve" smooth="yes"/>
      <point x="352" y="59"/>
      <point x="289" y="-7"/>
      <point x="186" y="-7" type="curve" smooth="yes"/>
      <point x="83" y="-7"/>
      <point x="20" y="59"/>
      <point x="20" y="200" type="curve" smooth="yes"/>
      <point x="20" y="341"/>
      <point x="83" y="407"/>
    </contour>
    <contour>
      <point x="186" y="343" type="curve" smooth="yes"/>
      <point x="127" y="343"/>
      <point x="97" y="294"/>
      <point x="97" y="214" type="curve" smooth="yes"/>
      <point x="97" y="185" type="line" smooth="yes"/>
      <point x="97" y="105"/>
      <point x="127" y="57"/>
      <point x="186" y="57" type="curve" smooth="yes"/>
      <point x="245" y="57"/>
      <point x="275" y="105"/>
      <point x="275" y="185" type="curve" smooth="yes"/>
      <point x="275" y="214" type="line" smooth="yes"/>
      <point x="275" y="294"/>
      <point x="245" y="343"/>
    </contour>
  </outline>
</glyph>
<glyph name="Obreve" format="1">
  <advance width="372"/>
  <unicode hex="014E"/>
  <outline>
    <contour>
      <point x="264" y="515" type="line"/>
      <point x="264" y="485"/>
      <point x="234" y="452"/>
      <point x="186" y="452" type="curve" smooth="yes"/>
      <point x="138" y="452"/>
      <point x="108" y="485"/>
      <point x="108" y="515" type="curve"/>
      <point x="152" y="515" type="line"/>
      <point x="153" y="506"/>
      <point x="167" y="495"/>
      <point x="186" y="495" type="curve" smooth="yes"/>
      <point x="206" y="495"/>
      <point x="219" y="506"/>
      <point x="221" y="515" type="curve"/>
    </contour>
    <contour>
      <point x="186" y="407" type="curve" smooth="yes"/>
      <point x="289" y="407"/>
      <point x="352" y="341"/>
      <point x="352" y="200" type="curve" smooth="yes"/>
      <point x="352" y="59"/>
      <point x="289" y="-7"/>
      <point x="186" y="-7" type="curve" smooth="yes"/>
      <point x="83" y="-7"/>
      <point x="20" y="59"/>
      <point x="20" y="200" type="curve" smooth="yes"/>
      <point x="20" y="341"/>
      <point x="83" y="407"/>
    </contour>
    <contour>
      <point x="186" y="343" type="curve" smooth="yes"/>
      <point x="127" y="343"/>
      <point x="97" y="294"/>
      <point x="97" y="214" type="curve" smooth="yes"/>
      <point x="97" y="185" type="line" smooth="yes"/>
      <point x="97" y="105"/>
      <point x="127" y="57"/>
      <point x="186" y="57" type="curve" smooth="yes"/>
      <point x="245" y="57"/>
      <point x="275" y="105"/>
      <point x="275" y="185" type="curve" smooth="yes"/>
      <point x="275" y="214" type="line" smooth="yes"/>
      <point x="275" y="294"/>
      <point x="245" y="343"/>
    </contour>
  </outline>
</glyph>
<glyph name="ohungarumlaut" format="1">
  <advance width="292"/>
  <unicode hex="0151"/>
  <outline>
    <contour>
      <point x="127" y="344" type="line"/>
      <point x="80" y="344" type="line"/>
      <point x="117" y="421" type="line"/>
      <point x="175" y="421" type="line"/>
      <point x="175" y="419" type="line"/>
    </contour>
    <contour>
      <point x="208" y="344" type="line"/>
      <point x="162" y="344" type="line"/>
      <point x="198" y="421" type="line"/>
      <point x="256" y="421" type="line"/>
      <point x="257" y="419" type="line"/>
    </contour>
    <contour>
      <point x="146" y="314" type="curve" smooth="yes"/>
      <point x="228" y="314"/>
      <point x="269" y="264"/>
      <point x="269" y="153" type="curve" smooth="yes"/>
      <point x="269" y="43"/>
      <point x="228" y="-7"/>
      <point x="146" y="-7" type="curve" smooth="yes"/>
      <point x="65" y="-7"/>
      <point x="24" y="43"/>
      <point x="24" y="153" type="curve" smooth="yes"/>
      <point x="24" y="264"/>
      <point x="65" y="314"/>
    </contour>
    <contour>
      <point x="146" y="254" type="curve" smooth="yes"/>
      <point x="110" y="254"/>
      <point x="97" y="223"/>
      <point x="97" y="164" type="curve" smooth="yes"/>
      <point x="97" y="142" type="line" smooth="yes"/>
      <point x="97" y="83"/>
      <point x="110" y="52"/>
      <point x="146" y="52" type="curve" smooth="yes"/>
      <point x="183" y="52"/>
      <point x="196" y="83"/>
      <point x="196" y="142" type="curve" smooth="yes"/>
      <point x="196" y="164" type="line" smooth="yes"/>
      <point x="196" y="223"/>
      <point x="183" y="254"/>
    </contour>
  </outline>
</glyph>
<glyph name="OE" format="1">
  <advance width="478"/>
  <unicode hex="0152"/>
  <outline>
    <contour>
      <point x="0" y="0" type="move" name="Anchor-1"/>
    </contour>
    <contour>
      <point x="239" y="399" type="move" name="Anchor-0"/>
    </contour>
    <contour>
      <point x="150" y="407" type="curve" smooth="yes"/>
      <point x="186" y="407"/>
      <point x="215" y="393"/>
      <point x="238" y="364" type="curve"/>
      <point x="238" y="399" type="line"/>
      <point x="457" y="399" type="line"/>
      <point x="457" y="333" type="line"/>
      <point x="312" y="333" type="line"/>
      <point x="312" y="238" type="line"/>
      <point x="432" y="238" type="line"/>
      <point x="432" y="171" type="line"/>
      <point x="312" y="171" type="line"/>
      <point x="312" y="67" type="line"/>
      <point x="461" y="67" type="line"/>
      <point x="461" y="0" type="line"/>
      <point x="238" y="0" type="line"/>
      <point x="238" y="36" type="line"/>
      <point x="215" y="7"/>
      <point x="186" y="-7"/>
      <point x="150" y="-7" type="curve" smooth="yes"/>
      <point x="68" y="-7"/>
      <point x="18" y="59"/>
      <point x="18" y="200" type="curve" smooth="yes"/>
      <point x="18" y="341"/>
      <point x="68" y="407"/>
    </contour>
    <contour>
      <point x="165" y="343" type="curve" smooth="yes"/>
      <point x="118" y="343"/>
      <point x="94" y="306"/>
      <point x="94" y="214" type="curve" smooth="yes"/>
      <point x="94" y="185" type="line" smooth="yes"/>
      <point x="94" y="94"/>
      <point x="118" y="57"/>
      <point x="165" y="57" type="curve" smooth="yes"/>
      <point x="214" y="57"/>
      <point x="237" y="94"/>
      <point x="237" y="185" type="curve" smooth="yes"/>
      <point x="237" y="214" type="line" smooth="yes"/>
      <point x="237" y="306"/>
      <point x="214" y="343"/>
    </contour>
  </outline>
</glyph>
<glyph name="rcommaaccent" format="1">
  <advance width="186"/>
  <unicode hex="0157"/>
  <outline>
    <contour>
      <point x="155" y="314" type="curve" smooth="yes"/>
      <point x="173" y="314"/>
      <point x="184" y="309"/>
      <point x="184" y="309" type="curve"/>
      <point x="184" y="241" type="line"/>
      <point x="159" y="241" type="line" smooth="yes"/>
      <point x="129" y="241"/>
      <point x="102" y="225"/>
      <point x="102" y="171" type="curve" smooth="yes"/>
      <point x="102" y="0" type="line"/>
      <point x="32" y="0" type="line"/>
      <point x="32" y="306" type="line"/>
      <point x="90" y="306" type="line"/>
      <point x="98" y="262" type="line"/>
      <point x="102" y="262" type="line"/>
      <point x="110" y="287"/>
      <point x="124" y="314"/>
    </contour>
    <contour>
      <point x="80" y="-153" type="line"/>
      <point x="42" y="-153" type="line"/>
      <point x="63" y="-103" type="line"/>
      <point x="34" y="-103" type="line"/>
      <point x="34" y="-32" type="line"/>
      <point x="107" y="-32" type="line"/>
      <point x="107" y="-98" type="line"/>
    </contour>
  </outline>
</glyph>
<glyph name="rcaron" format="1">
  <advance width="186"/>
  <unicode hex="0159"/>
  <outline>
    <contour>
      <point x="37" y="343" type="line"/>
      <point x="-13" y="421" type="line"/>
      <point x="39" y="421" type="line"/>
      <point x="65" y="381" type="line"/>
      <point x="91" y="421" type="line"/>
      <point x="143" y="421" type="line"/>
      <point x="94" y="343" type="line"/>
    </contour>
    <contour>
      <point x="155" y="314" type="curve" smooth="yes"/>
      <point x="173" y="314"/>
      <point x="184" y="309"/>
      <point x="184" y="309" type="curve"/>
      <point x="184" y="241" type="line"/>
      <point x="159" y="241" type="line" smooth="yes"/>
      <point x="129" y="241"/>
      <point x="102" y="225"/>
      <point x="102" y="171" type="curve" smooth="yes"/>
      <point x="102" y="0" type="line"/>
      <point x="32" y="0" type="line"/>
      <point x="32" y="306" type="line"/>
      <point x="90" y="306" type="line"/>
      <point x="98" y="262" type="line"/>
      <point x="102" y="262" type="line"/>
      <point x="110" y="287"/>
      <point x="124" y="314"/>
    </contour>
  </outline>
</glyph>
<glyph name="scedilla" format="1">
  <advance width="266"/>
  <unicode hex="015F"/>
  <outline>
    <contour>
      <point x="133" y="314" type="curve" smooth="yes"/>
      <point x="192" y="314"/>
      <point x="237" y="283"/>
      <point x="237" y="230" type="curve" smooth="yes"/>
      <point x="237" y="217" type="line"/>
      <point x="165" y="217" type="line"/>
      <point x="165" y="218" type="line" smooth="yes"/>
      <point x="165" y="244"/>
      <point x="152" y="256"/>
      <point x="131" y="256" type="curve" smooth="yes"/>
      <point x="109" y="256"/>
      <point x="95" y="244"/>
      <point x="95" y="226" type="curve" smooth="yes"/>
      <point x="95" y="202"/>
      <point x="120" y="195"/>
      <point x="150" y="188" type="curve" smooth="yes"/>
      <point x="192" y="177"/>
      <point x="244" y="164"/>
      <point x="244" y="92" type="curve" smooth="yes"/>
      <point x="244" y="22"/>
      <point x="202" y="-3"/>
      <point x="144" y="-7" type="curve"/>
      <point x="143" y="-19" type="line"/>
      <point x="168" y="-21"/>
      <point x="189" y="-32"/>
      <point x="189" y="-59" type="curve" smooth="yes"/>
      <point x="189" y="-98"/>
      <point x="151" y="-106"/>
      <point x="126" y="-106" type="curve" smooth="yes"/>
      <point x="109" y="-106"/>
      <point x="91" y="-104"/>
      <point x="77" y="-101" type="curve"/>
      <point x="77" y="-73" type="line"/>
      <point x="118" y="-73" type="line" smooth="yes"/>
      <point x="131" y="-73"/>
      <point x="139" y="-70"/>
      <point x="139" y="-59" type="curve" smooth="yes"/>
      <point x="139" y="-49"/>
      <point x="134" y="-45"/>
      <point x="119" y="-45" type="curve" smooth="yes"/>
      <point x="100" y="-45" type="line"/>
      <point x="105" y="-5" type="line"/>
      <point x="50" y="3"/>
      <point x="19" y="39"/>
      <point x="19" y="90" type="curve" smooth="yes"/>
      <point x="19" y="93"/>
      <point x="20" y="98"/>
      <point x="20" y="98" type="curve"/>
      <point x="91" y="98" type="line"/>
      <point x="91" y="93" type="line" smooth="yes"/>
      <point x="92" y="61"/>
      <point x="113" y="50"/>
      <point x="133" y="50" type="curve" smooth="yes"/>
      <point x="152" y="50"/>
      <point x="173" y="58"/>
      <point x="173" y="83" type="curve" smooth="yes"/>
      <point x="173" y="111"/>
      <point x="146" y="118"/>
      <point x="115" y="127" type="curve" smooth="yes"/>
      <point x="73" y="139"/>
      <point x="24" y="152"/>
      <point x="24" y="220" type="curve" smooth="yes"/>
      <point x="24" y="283"/>
      <point x="72" y="314"/>
    </contour>
  </outline>
</glyph>
<glyph name="scaron" format="1">
  <advance width="266"/>
  <unicode hex="0161"/>
  <outline>
    <contour>
      <point x="162" y="343" type="line"/>
      <point x="105" y="343" type="line"/>
      <point x="55" y="421" type="line"/>
      <point x="107" y="421" type="line"/>
      <point x="133" y="381" type="line"/>
      <point x="159" y="421" type="line"/>
      <point x="212" y="421" type="line"/>
    </contour>
    <contour>
      <point x="133" y="314" type="curve" smooth="yes"/>
      <point x="192" y="314"/>
      <point x="237" y="283"/>
      <point x="237" y="230" type="curve" smooth="yes"/>
      <point x="237" y="217" type="line"/>
      <point x="165" y="217" type="line"/>
      <point x="165" y="218" type="line" smooth="yes"/>
      <point x="165" y="244"/>
      <point x="152" y="256"/>
      <point x="131" y="256" type="curve" smooth="yes"/>
      <point x="109" y="256"/>
      <point x="95" y="244"/>
      <point x="95" y="226" type="curve" smooth="yes"/>
      <point x="95" y="202"/>
      <point x="120" y="195"/>
      <point x="150" y="188" type="curve" smooth="yes"/>
      <point x="192" y="177"/>
      <point x="244" y="164"/>
      <point x="244" y="92" type="curve" smooth="yes"/>
      <point x="244" y="18"/>
      <point x="196" y="-7"/>
      <point x="130" y="-7" type="curve" smooth="yes"/>
      <point x="60" y="-7"/>
      <point x="19" y="32"/>
      <point x="19" y="90" type="curve" smooth="yes"/>
      <point x="19" y="93"/>
      <point x="20" y="98"/>
      <point x="20" y="98" type="curve"/>
      <point x="91" y="98" type="line"/>
      <point x="91" y="93" type="line" smooth="yes"/>
      <point x="92" y="61"/>
      <point x="113" y="50"/>
      <point x="133" y="50" type="curve" smooth="yes"/>
      <point x="152" y="50"/>
      <point x="173" y="58"/>
      <point x="173" y="83" type="curve" smooth="yes"/>
      <point x="173" y="111"/>
      <point x="146" y="118"/>
      <point x="115" y="127" type="curve" smooth="yes"/>
      <point x="73" y="139"/>
      <point x="24" y="152"/>
      <point x="24" y="220" type="curve" smooth="yes"/>
      <point x="24" y="283"/>
      <point x="72" y="314"/>
    </contour>
  </outline>
</glyph>
<glyph name="Tcaron" format="1">
  <advance width="292"/>
  <unicode hex="0164"/>
  <outline>
    <contour>
      <point x="175" y="436" type="line"/>
      <point x="118" y="436" type="line"/>
      <point x="68" y="515" type="line"/>
      <point x="120" y="515" type="line"/>
      <point x="146" y="474" type="line"/>
      <point x="172" y="515" type="line"/>
      <point x="224" y="515" type="line"/>
    </contour>
    <contour>
      <point x="283" y="333" type="line"/>
      <point x="183" y="333" type="line"/>
      <point x="183" y="0" type="line"/>
      <point x="109" y="0" type="line"/>
      <point x="109" y="333" type="line"/>
      <point x="10" y="333" type="line"/>
      <point x="10" y="399" type="line"/>
      <point x="283" y="399" type="line"/>
    </contour>
  </outline>
</glyph>
<glyph name="utilde" format="1">
  <advance width="292"/>
  <unicode hex="0169"/>
  <outline>
    <contour>
      <point x="244" y="421" type="line"/>
      <point x="244" y="389"/>
      <point x="228" y="350"/>
      <point x="186" y="350" type="curve" smooth="yes"/>
      <point x="172" y="350"/>
      <point x="159" y="356"/>
      <point x="147" y="361" type="curve" smooth="yes"/>
      <point x="135" y="367"/>
      <point x="122" y="372"/>
      <point x="109" y="372" type="curve" smooth="yes"/>
      <point x="98" y="372"/>
      <point x="89" y="366"/>
      <point x="87" y="350" type="curve"/>
      <point x="48" y="350" type="line"/>
      <point x="48" y="382"/>
      <point x="65" y="421"/>
      <point x="105" y="421" type="curve" smooth="yes"/>
      <point x="120" y="421"/>
      <point x="133" y="415"/>
      <point x="146" y="410" type="curve" smooth="yes"/>
      <point x="158" y="404"/>
      <point x="170" y="399"/>
      <point x="183" y="399" type="curve" smooth="yes"/>
      <point x="195" y="399"/>
      <point x="204" y="405"/>
      <point x="206" y="421" type="curve"/>
    </contour>
    <contour>
      <point x="202" y="0" type="line"/>
      <point x="194" y="38" type="line"/>
      <point x="191" y="38" type="line"/>
      <point x="175" y="14"/>
      <point x="150" y="-7"/>
      <point x="113" y="-7" type="curve" smooth="yes"/>
      <point x="67" y="-7"/>
      <point x="32" y="19"/>
      <point x="32" y="92" type="curve" smooth="yes"/>
      <point x="32" y="306" type="line"/>
      <point x="102" y="306" type="line"/>
      <point x="102" y="111" type="line" smooth="yes"/>
      <point x="102" y="71"/>
      <point x="116" y="57"/>
      <point x="142" y="57" type="curve" smooth="yes"/>
      <point x="169" y="57"/>
      <point x="190" y="82"/>
      <point x="190" y="117" type="curve" smooth="yes"/>
      <point x="190" y="306" type="line"/>
      <point x="260" y="306" type="line"/>
      <point x="260" y="0" type="line"/>
    </contour>
  </outline>
</glyph>
<glyph name="Ubreve" format="1">
  <advance width="345"/>
  <unicode hex="016C"/>
  <outline>
    <contour>
      <point x="250" y="515" type="line"/>
      <point x="250" y="485"/>
      <point x="220" y="452"/>
      <point x="172" y="452" type="curve" smooth="yes"/>
      <point x="124" y="452"/>
      <point x="95" y="485"/>
      <point x="95" y="515" type="curve"/>
      <point x="138" y="515" type="line"/>
      <point x="140" y="506"/>
      <point x="153" y="495"/>
      <point x="172" y="495" type="curve" smooth="yes"/>
      <point x="192" y="495"/>
      <point x="206" y="506"/>
      <point x="207" y="515" type="curve"/>
    </contour>
    <contour>
      <point x="310" y="125" type="line" smooth="yes"/>
      <point x="310" y="38"/>
      <point x="258" y="-7"/>
      <point x="173" y="-7" type="curve" smooth="yes"/>
      <point x="87" y="-7"/>
      <point x="36" y="38"/>
      <point x="36" y="125" type="curve" smooth="yes"/>
      <point x="36" y="399" type="line"/>
      <point x="110" y="399" type="line"/>
      <point x="110" y="128" type="line" smooth="yes"/>
      <point x="110" y="82"/>
      <point x="133" y="57"/>
      <point x="173" y="57" type="curve" smooth="yes"/>
      <point x="212" y="57"/>
      <point x="235" y="82"/>
      <point x="235" y="128" type="curve" smooth="yes"/>
      <point x="235" y="399" type="line"/>
      <point x="310" y="399" type="line"/>
    </contour>
  </outline>
</glyph>
<glyph name="Uhungarumlaut" format="1">
  <advance width="345"/>
  <unicode hex="0170"/>
  <outline>
    <contour>
      <point x="202" y="513" type="line"/>
      <point x="153" y="438" type="line"/>
      <point x="107" y="438" type="line"/>
      <point x="143" y="515" type="line"/>
      <point x="201" y="515" type="line"/>
    </contour>
    <contour>
      <point x="283" y="513" type="line"/>
      <point x="234" y="438" type="line"/>
      <point x="188" y="438" type="line"/>
      <point x="224" y="515" type="line"/>
      <point x="283" y="515" type="line"/>
    </contour>
    <contour>
      <point x="310" y="125" type="line" smooth="yes"/>
      <point x="310" y="38"/>
      <point x="258" y="-7"/>
      <point x="173" y="-7" type="curve" smooth="yes"/>
      <point x="87" y="-7"/>
      <point x="36" y="38"/>
      <point x="36" y="125" type="curve" smooth="yes"/>
      <point x="36" y="399" type="line"/>
      <point x="110" y="399" type="line"/>
      <point x="110" y="128" type="line" smooth="yes"/>
      <point x="110" y="82"/>
      <point x="133" y="57"/>
      <point x="173" y="57" type="curve" smooth="yes"/>
      <point x="212" y="57"/>
      <point x="235" y="82"/>
      <point x="235" y="128" type="curve" smooth="yes"/>
      <point x="235" y="399" type="line"/>
      <point x="310" y="399" type="line"/>
    </contour>
  </outline>
</glyph>
<glyph name="Uogonek" format="1">
  <advance width="345"/>
  <unicode hex="0172"/>
  <outline>
    <contour>
      <point x="235" y="399" type="line"/>
      <point x="310" y="399" type="line"/>
      <point x="310" y="130" type="line" smooth="yes"/>
      <point x="310" y="64"/>
      <point x="283" y="21"/>
      <point x="236" y="3" type="curve"/>
      <point x="229" y="-5"/>
      <point x="218" y="-22"/>
      <point x="218" y="-38" type="curve" smooth="yes"/>
      <point x="218" y="-53"/>
      <point x="225" y="-68"/>
      <point x="244" y="-68" type="curve" smooth="yes"/>
      <point x="258" y="-68" type="line"/>
      <point x="258" y="-100" type="line"/>
      <point x="244" y="-105"/>
      <point x="232" y="-108"/>
      <point x="219" y="-108" type="curve" smooth="yes"/>
      <point x="192" y="-108"/>
      <point x="161" y="-96"/>
      <point x="161" y="-55" type="curve" smooth="yes"/>
      <point x="161" y="-34"/>
      <point x="168" y="-19"/>
      <point x="178" y="-7" type="curve"/>
      <point x="173" y="-7" type="line" smooth="yes"/>
      <point x="87" y="-7"/>
      <point x="36" y="40"/>
      <point x="36" y="130" type="curve" smooth="yes"/>
      <point x="36" y="399" type="line"/>
      <point x="110" y="399" type="line"/>
      <point x="110" y="132" type="line" smooth="yes"/>
      <point x="110" y="83"/>
      <point x="133" y="57"/>
      <point x="173" y="57" type="curve" smooth="yes"/>
      <point x="212" y="57"/>
      <point x="235" y="83"/>
      <point x="235" y="132" type="curve" smooth="yes"/>
    </contour>
  </outline>
</glyph>
<glyph name="Ycircumflex" format="1">
  <advance width="319"/>
  <unicode hex="0176"/>
  <outline>
    <contour>
      <point x="185" y="436" type="line"/>
      <point x="159" y="476" type="line"/>
      <point x="133" y="436" type="line"/>
      <point x="81" y="436" type="line"/>
      <point x="131" y="515" type="line"/>
      <point x="188" y="515" type="line"/>
      <point x="238" y="436" type="line"/>
    </contour>
    <contour>
      <point x="197" y="0" type="line"/>
      <point x="123" y="0" type="line"/>
      <point x="123" y="151" type="line"/>
      <point x="0" y="399" type="line"/>
      <point x="78" y="399" type="line"/>
      <point x="160" y="224" type="line"/>
      <point x="163" y="224" type="line"/>
      <point x="244" y="399" type="line"/>
      <point x="319" y="399" type="line"/>
      <point x="197" y="151" type="line"/>
    </contour>
  </outline>
</glyph>
<glyph name="ycircumflex" format="1">
  <advance width="266"/>
  <unicode hex="0177"/>
  <outline>
    <contour>
      <point x="159" y="343" type="line"/>
      <point x="133" y="383" type="line"/>
      <point x="107" y="343" type="line"/>
      <point x="55" y="343" type="line"/>
      <point x="105" y="421" type="line"/>
      <point x="162" y="421" type="line"/>
      <point x="212" y="343" type="line"/>
    </contour>
    <contour>
      <point x="179" y="16" type="line" smooth="yes"/>
      <point x="160" y="-51"/>
      <point x="130" y="-106"/>
      <point x="71" y="-106" type="curve" smooth="yes"/>
      <point x="43" y="-106"/>
      <point x="26" y="-101"/>
      <point x="26" y="-101" type="curve"/>
      <point x="26" y="-47" type="line"/>
      <point x="57" y="-47" type="line" smooth="yes"/>
      <point x="77" y="-47"/>
      <point x="96" y="-34"/>
      <point x="104" y="0" type="curve"/>
      <point x="3" y="306" type="line"/>
      <point x="76" y="306" type="line"/>
      <point x="123" y="163" type="line" smooth="yes"/>
      <point x="128" y="145"/>
      <point x="130" y="128"/>
      <point x="133" y="111" type="curve" smooth="yes"/>
      <point x="135" y="101"/>
      <point x="136" y="92"/>
      <point x="138" y="83" type="curve"/>
      <point x="141" y="83" type="line"/>
      <point x="143" y="92"/>
      <point x="144" y="101"/>
      <point x="145" y="110" type="curve" smooth="yes"/>
      <point x="148" y="127"/>
      <point x="151" y="145"/>
      <point x="156" y="162" type="curve" smooth="yes"/>
      <point x="193" y="306" type="line"/>
      <point x="264" y="306" type="line"/>
    </contour>
  </outline>
</glyph>
<glyph name="Zacute" format="1">
  <advance width="292"/>
  <unicode hex="0179"/>
  <outline>
    <contour>
      <point x="227" y="513" type="line"/>
      <point x="163" y="438" type="line"/>
      <point x="106" y="438" type="line"/>
      <point x="156" y="515" type="line"/>
      <point x="226" y="515" type="line"/>
    </contour>
    <contour>
      <point x="275" y="370" type="line"/>
      <point x="111" y="67" type="line"/>
      <point x="279" y="67" type="line"/>
      <point x="279" y="0" type="line"/>
      <point x="9" y="0" type="line"/>
      <point x="9" y="28" type="line"/>
      <point x="173" y="333" type="line"/>
      <point x="22" y="333" type="line"/>
      <point x="22" y="399" type="line"/>
      <point x="275" y="399" type="line"/>
    </contour>
  </outline>
</glyph>
<glyph name="Zdotaccent" format="1">
  <advance width="292"/>
  <unicode hex="017B"/>
  <outline>
    <contour>
      <point x="177" y="447" type="line"/>
      <point x="115" y="447" type="line"/>
      <point x="115" y="515" type="line"/>
      <point x="177" y="515" type="line"/>
    </contour>
    <contour>
      <point x="275" y="370" type="line"/>
      <point x="111" y="67" type="line"/>
      <point x="279" y="67" type="line"/>
      <point x="279" y="0" type="line"/>
      <point x="9" y="0" type="line"/>
      <point x="9" y="28" type="line"/>
      <point x="173" y="333" type="line"/>
      <point x="22" y="333" type="line"/>
      <point x="22" y="399" type="line"/>
      <point x="275" y="399" type="line"/>
    </contour>
  </outline>
</glyph>
<glyph name="zdotaccent" format="1">
  <advance width="239"/>
  <unicode hex="017C"/>
  <outline>
    <contour>
      <point x="88" y="354" type="line"/>
      <point x="88" y="421" type="line"/>
      <point x="151" y="421" type="line"/>
      <point x="151" y="354" type="line"/>
    </contour>
    <contour>
      <point x="105" y="59" type="line"/>
      <point x="229" y="59" type="line"/>
      <point x="229" y="0" type="line"/>
      <point x="11" y="0" type="line"/>
      <point x="11" y="30" type="line"/>
      <point x="129" y="248" type="line"/>
      <point x="18" y="248" type="line"/>
      <point x="18" y="306" type="line"/>
      <point x="224" y="306" type="line"/>
      <point x="224" y="277" type="line"/>
    </contour>
  </outline>
</glyph>
<glyph name="longs" format="1">
  <advance width="133"/>
  <unicode hex="017F"/>
  <outline>
    <contour>
      <point x="108" y="426" type="curve" smooth="yes"/>
      <point x="125" y="426"/>
      <point x="148" y="422"/>
      <point x="159" y="419" type="curve"/>
      <point x="159" y="367" type="line"/>
      <point x="130" y="367" type="line" smooth="yes"/>
      <point x="115" y="367"/>
      <point x="106" y="358"/>
      <point x="106" y="342" type="curve" smooth="yes"/>
      <point x="106" y="0" type="line"/>
      <point x="36" y="0" type="line"/>
      <point x="36" y="248" type="line"/>
      <point x="5" y="248" type="line"/>
      <point x="5" y="306" type="line"/>
      <point x="36" y="306" type="line"/>
      <point x="36" y="344" type="line" smooth="yes"/>
      <point x="36" y="384"/>
      <point x="53" y="426"/>
    </contour>
  </outline>
</glyph>
<glyph name="ring" format="1">
  <advance width="159"/>
  <unicode hex="02DA"/>
  <outline>
    <contour>
      <point x="81" y="439" type="curve" smooth="yes"/>
      <point x="113" y="439"/>
      <point x="137" y="413"/>
      <point x="137" y="383" type="curve" smooth="yes"/>
      <point x="137" y="352"/>
      <point x="112" y="327"/>
      <point x="81" y="327" type="curve" smooth="yes"/>
      <point x="51" y="327"/>
      <point x="25" y="351"/>
      <point x="25" y="383" type="curve" smooth="yes"/>
      <point x="25" y="414"/>
      <point x="50" y="439"/>
    </contour>
    <contour>
      <point x="81" y="409" type="curve" smooth="yes"/>
      <point x="66" y="409"/>
      <point x="54" y="398"/>
      <point x="54" y="383" type="curve" smooth="yes"/>
      <point x="54" y="368"/>
      <point x="66" y="356"/>
      <point x="81" y="356" type="curve" smooth="yes"/>
      <point x="96" y="356"/>
      <point x="108" y="368"/>
      <point x="108" y="383" type="curve" smooth="yes"/>
      <point x="108" y="398"/>
      <point x="96" y="409"/>
    </contour>
  </outline>
</glyph>
<glyph name="ogonek" format="1">
  <advance width="159"/>
  <unicode hex="02DB"/>
  <outline>
    <contour>
      <point x="111" y="5" type="line"/>
      <point x="103" y="-3"/>
      <point x="93" y="-20"/>
      <point x="93" y="-36" type="curve" smooth="yes"/>
      <point x="93" y="-51"/>
      <point x="100" y="-66"/>
      <point x="119" y="-66" type="curve" smooth="yes"/>
      <point x="132" y="-66" type="line"/>
      <point x="132" y="-98" type="line"/>
      <point x="119" y="-103"/>
      <point x="107" y="-106"/>
      <point x="94" y="-106" type="curve" smooth="yes"/>
      <point x="67" y="-106"/>
      <point x="36" y="-94"/>
      <point x="36" y="-53" type="curve" smooth="yes"/>
      <point x="36" y="-25"/>
      <point x="49" y="-8"/>
      <point x="64" y="7" type="curve"/>
      <point x="109" y="7" type="line"/>
    </contour>
  </outline>
</glyph>
<glyph name="tilde" format="1">
  <advance width="159"/>
  <unicode hex="02DC"/>
  <outline>
    <contour>
      <point x="177" y="421" type="line"/>
      <point x="177" y="389"/>
      <point x="161" y="350"/>
      <point x="119" y="350" type="curve" smooth="yes"/>
      <point x="105" y="350"/>
      <point x="93" y="356"/>
      <point x="80" y="361" type="curve" smooth="yes"/>
      <point x="68" y="367"/>
      <point x="56" y="372"/>
      <point x="43" y="372" type="curve" smooth="yes"/>
      <point x="30" y="372"/>
      <point x="22" y="366"/>
      <point x="20" y="350" type="curve"/>
      <point x="-18" y="350" type="line"/>
      <point x="-18" y="382"/>
      <point x="-3" y="421"/>
      <point x="38" y="421" type="curve" smooth="yes"/>
      <point x="53" y="421"/>
      <point x="66" y="415"/>
      <point x="79" y="410" type="curve" smooth="yes"/>
      <point x="91" y="404"/>
      <point x="103" y="399"/>
      <point x="116" y="399" type="curve" smooth="yes"/>
      <point x="128" y="399"/>
      <point x="136" y="405"/>
      <point x="138" y="421" type="curve"/>
    </contour>
  </outline>
</glyph>
<glyph name="hungarumlaut" format="1">
  <advance width="159"/>
  <unicode hex="02DD"/>
  <outline>
    <contour>
      <point x="48" y="344" type="line"/>
      <point x="3" y="344" type="line"/>
      <point x="38" y="421" type="line"/>
      <point x="97" y="421" type="line"/>
      <point x="98" y="419" type="line"/>
    </contour>
    <contour>
      <point x="130" y="344" type="line"/>
      <point x="84" y="344" type="line"/>
      <point x="120" y="421" type="line"/>
      <point x="179" y="421" type="line"/>
      <point x="179" y="419" type="line"/>
    </contour>
  </outline>
</glyph>
<glyph name="uni0326" format="1">
  <advance width="0"/>
  <unicode hex="0326"/>
  <outline>
    <contour>
      <point x="-80" y="0" type="move" name="_Anchor-8"/>
    </contour>
    <contour>
      <point x="-80" y="0" type="move" name="_Anchor-7"/>
    </contour>
    <contour>
      <point x="-80" y="0" type="move" name="_Anchor-1"/>
    </contour>
    <contour>
      <point x="-71" y="-153" type="line"/>
      <point x="-109" y="-153" type="line"/>
      <point x="-88" y="-103" type="line"/>
      <point x="-117" y="-103" type="line"/>
      <point x="-117" y="-32" type="line"/>
      <point x="-44" y="-32" type="line"/>
      <point x="-44" y="-98" type="line"/>
    </contour>
  </outline>
</glyph>
<glyph name="Omega" format="1">
  <advance width="447"/>
  <unicode hex="03A9"/>
  <outline>
    <contour>
      <point x="223" y="407" type="curve" smooth="yes"/>
      <point x="326" y="407"/>
      <point x="389" y="341"/>
      <point x="389" y="200" type="curve" smooth="yes"/>
      <point x="389" y="134"/>
      <point x="366" y="88"/>
      <point x="331" y="58" type="curve"/>
      <point x="338" y="59"/>
      <point x="346" y="61"/>
      <point x="352" y="63" type="curve" smooth="yes"/>
      <point x="361" y="65"/>
      <point x="369" y="67"/>
      <point x="374" y="67" type="curve" smooth="yes"/>
      <point x="389" y="67" type="line"/>
      <point x="389" y="0" type="line"/>
      <point x="245" y="0" type="line"/>
      <point x="245" y="47" type="line"/>
      <point x="290" y="59"/>
      <point x="312" y="104"/>
      <point x="312" y="173" type="curve" smooth="yes"/>
      <point x="312" y="214" type="line" smooth="yes"/>
      <point x="312" y="294"/>
      <point x="283" y="343"/>
      <point x="223" y="343" type="curve" smooth="yes"/>
      <point x="163" y="343"/>
      <point x="133" y="294"/>
      <point x="133" y="214" type="curve" smooth="yes"/>
      <point x="133" y="173" type="line" smooth="yes"/>
      <point x="133" y="105"/>
      <point x="157" y="60"/>
      <point x="201" y="47" type="curve"/>
      <point x="201" y="0" type="line"/>
      <point x="57" y="0" type="line"/>
      <point x="57" y="67" type="line"/>
      <point x="72" y="67" type="line" smooth="yes"/>
      <point x="76" y="67"/>
      <point x="84" y="65"/>
      <point x="93" y="63" type="curve" smooth="yes"/>
      <point x="100" y="61"/>
      <point x="108" y="59"/>
      <point x="115" y="58" type="curve"/>
      <point x="80" y="88"/>
      <point x="57" y="134"/>
      <point x="57" y="200" type="curve" smooth="yes"/>
      <point x="57" y="341"/>
      <point x="120" y="407"/>
    </contour>
  </outline>
</glyph>
<glyph name="mu" format="1">
  <advance width="292"/>
  <unicode hex="03BC"/>
  <outline>
    <contour>
      <point x="202" y="0" type="line"/>
      <point x="194" y="38" type="line"/>
      <point x="191" y="38" type="line"/>
      <point x="178" y="14"/>
      <point x="156" y="-7"/>
      <point x="125" y="-7" type="curve" smooth="yes"/>
      <point x="117" y="-7"/>
      <point x="109" y="-5"/>
      <point x="102" y="-3" type="curve"/>
      <point x="102" y="-101" type="line"/>
      <point x="32" y="-101" type="line"/>
      <point x="32" y="306" type="line"/>
      <point x="102" y="306" type="line"/>
      <point x="102" y="111" type="line" smooth="yes"/>
      <point x="102" y="71"/>
      <point x="116" y="57"/>
      <point x="142" y="57" type="curve" smooth="yes"/>
      <point x="169" y="57"/>
      <point x="190" y="82"/>
      <point x="190" y="117" type="curve" smooth="yes"/>
      <point x="190" y="306" type="line"/>
      <point x="260" y="306" type="line"/>
      <point x="260" y="0" type="line"/>
    </contour>
  </outline>
</glyph>
<glyph name="pi" format="1">
  <advance width="366"/>
  <unicode hex="03C0"/>
  <outline>
    <contour>
      <point x="285" y="248" type="line"/>
      <point x="285" y="91" type="line" smooth="yes"/>
      <point x="285" y="43"/>
      <point x="289" y="18"/>
      <point x="293" y="0" type="curve"/>
      <point x="224" y="0" type="line"/>
      <point x="219" y="9"/>
      <point x="215" y="39"/>
      <point x="215" y="86" type="curve" smooth="yes"/>
      <point x="215" y="248" type="line"/>
      <point x="152" y="248" type="line"/>
      <point x="148" y="178"/>
      <point x="132" y="48"/>
      <point x="113" y="0" type="curve"/>
      <point x="44" y="0" type="line"/>
      <point x="63" y="58"/>
      <point x="80" y="178"/>
      <point x="82" y="248" type="curve"/>
      <point x="45" y="248"/>
      <point x="32" y="245"/>
      <point x="18" y="240" type="curve"/>
      <point x="12" y="289" type="line"/>
      <point x="27" y="300"/>
      <point x="55" y="306"/>
      <point x="105" y="306" type="curve" smooth="yes"/>
      <point x="339" y="306" type="line"/>
      <point x="334" y="248" type="line"/>
    </contour>
  </outline>
</glyph>
<glyph name="uni0900" format="1">
  <advance width="0"/>
  <unicode hex="0900"/>
  <outline>
    <contour>
      <point x="-82" y="545" type="move" name="Anchor-4"/>
    </contour>
    <contour>
      <point x="-84" y="399" type="move" name="_Anchor-2"/>
    </contour>
    <contour>
      <point x="28" y="440" type="curve"/>
      <point x="-24" y="440" type="line"/>
      <point x="-24" y="485"/>
      <point x="-42" y="503"/>
      <point x="-84" y="503" type="curve" smooth="yes"/>
      <point x="-126" y="503"/>
      <point x="-144" y="485"/>
      <point x="-144" y="440" type="curve"/>
      <point x="-196" y="440" type="line"/>
      <point x="-196" y="502"/>
      <point x="-156" y="545"/>
      <point x="-84" y="545" type="curve" smooth="yes"/>
      <point x="-12" y="545"/>
      <point x="28" y="502"/>
    </contour>
    <contour>
      <point x="-119" y="471" type="line"/>
      <point x="-51" y="471" type="line"/>
      <point x="-51" y="403" type="line"/>
      <point x="-119" y="403" type="line"/>
    </contour>
  </outline>
</glyph>
<glyph name="uni0903" format="1">
  <advance width="144"/>
  <unicode hex="0903"/>
  <outline>
    <contour>
      <point x="-7" y="338" type="line"/>
      <point x="-7" y="399" type="line"/>
      <point x="150" y="399" type="line"/>
      <point x="150" y="338" type="line"/>
    </contour>
    <contour>
      <point x="32" y="219" type="line"/>
      <point x="32" y="299" type="line"/>
      <point x="112" y="299" type="line"/>
      <point x="112" y="219" type="line"/>
    </contour>
    <contour>
      <point x="32" y="50" type="line"/>
      <point x="32" y="130" type="line"/>
      <point x="112" y="130" type="line"/>
      <point x="112" y="50" type="line"/>
    </contour>
  </outline>
</glyph>
<glyph name="uni0908" format="1">
  <advance width="307"/>
  <unicode hex="0908"/>
  <outline>
    <contour>
      <point x="112" y="-20" type="move" name="Anchor-7"/>
    </contour>
    <contour>
      <point x="0" y="0" type="move" name="Anchor-6"/>
    </contour>
    <contour>
      <point x="0" y="0" type="move" name="Anchor-5"/>
    </contour>
    <contour>
      <point x="223" y="399" type="move" name="Anchor-3"/>
    </contour>
    <contour>
      <point x="0" y="0" type="move" name="Anchor-2"/>
    </contour>
    <contour>
      <point x="144" y="238" type="line" smooth="yes"/>
      <point x="127" y="238"/>
      <point x="117" y="233"/>
      <point x="117" y="219" type="curve" smooth="yes"/>
      <point x="117" y="204"/>
      <point x="130" y="198"/>
      <point x="157" y="198" type="curve" smooth="yes"/>
      <point x="179" y="198" type="line" smooth="yes"/>
      <point x="241" y="198"/>
      <point x="285" y="177"/>
      <point x="285" y="109" type="curve" smooth="yes"/>
      <point x="285" y="42"/>
      <point x="240" y="14"/>
      <point x="180" y="14" type="curve" smooth="yes"/>
      <point x="154" y="14"/>
      <point x="132" y="19"/>
      <point x="115" y="29" type="curve"/>
      <point x="115" y="-31" type="line"/>
      <point x="51" y="-31" type="line"/>
      <point x="51" y="119" type="line"/>
      <point x="128" y="119" type="line"/>
      <point x="128" y="115" type="line" smooth="yes"/>
      <point x="128" y="86"/>
      <point x="146" y="72"/>
      <point x="175" y="72" type="curve" smooth="yes"/>
      <point x="201" y="72"/>
      <point x="214" y="84"/>
      <point x="214" y="106" type="curve" smooth="yes"/>
      <point x="214" y="134"/>
      <point x="192" y="137"/>
      <point x="165" y="137" type="curve" smooth="yes"/>
      <point x="159" y="137" type="line" smooth="yes"/>
      <point x="94" y="137"/>
      <point x="46" y="158"/>
      <point x="46" y="219" type="curve" smooth="yes"/>
      <point x="46" y="277"/>
      <point x="88" y="299"/>
      <point x="146" y="299" type="curve" smooth="yes"/>
      <point x="188" y="299" type="line"/>
      <point x="188" y="338" type="line"/>
      <point x="-7" y="338" type="line"/>
      <point x="-7" y="399" type="line"/>
      <point x="185" y="399" type="line"/>
      <point x="174" y="421"/>
      <point x="169" y="442"/>
      <point x="169" y="460" type="curve" smooth="yes"/>
      <point x="169" y="512"/>
      <point x="215" y="545"/>
      <point x="285" y="545" type="curve" smooth="yes"/>
      <point x="304" y="545" type="line"/>
      <point x="304" y="484" type="line"/>
      <point x="297" y="484" type="line" smooth="yes"/>
      <point x="258" y="484"/>
      <point x="238" y="469"/>
      <point x="238" y="442" type="curve" smooth="yes"/>
      <point x="238" y="428"/>
      <point x="242" y="414"/>
      <point x="250" y="399" type="curve"/>
      <point x="314" y="399" type="line"/>
      <point x="314" y="338" type="line"/>
      <point x="258" y="338" type="line"/>
      <point x="258" y="238" type="line"/>
    </contour>
  </outline>
</glyph>
<glyph name="uni090A" format="1">
  <advance width="399"/>
  <unicode hex="090A"/>
  <outline>
    <contour>
      <point x="123" y="0" type="move" name="Anchor-7"/>
    </contour>
    <contour>
      <point x="0" y="0" type="move" name="Anchor-6"/>
    </contour>
    <contour>
      <point x="0" y="0" type="move" name="Anchor-5"/>
    </contour>
    <contour>
      <point x="161" y="399" type="move" name="Anchor-3"/>
    </contour>
    <contour>
      <point x="0" y="0" type="move" name="Anchor-2"/>
    </contour>
    <contour>
      <point x="405" y="338" type="line"/>
      <point x="208" y="338" type="line"/>
      <point x="212" y="327"/>
      <point x="214" y="314"/>
      <point x="214" y="299" type="curve" smooth="yes"/>
      <point x="214" y="289" type="line" smooth="yes"/>
      <point x="214" y="257"/>
      <point x="199" y="237"/>
      <point x="179" y="224" type="curve"/>
      <point x="179" y="222" type="line"/>
      <point x="186" y="219"/>
      <point x="192" y="215"/>
      <point x="198" y="209" type="curve"/>
      <point x="211" y="229"/>
      <point x="235" y="246"/>
      <point x="275" y="246" type="curve" smooth="yes"/>
      <point x="342" y="246"/>
      <point x="386" y="206"/>
      <point x="386" y="136" type="curve" smooth="yes"/>
      <point x="386" y="61"/>
      <point x="338" y="28"/>
      <point x="273" y="28" type="curve" smooth="yes"/>
      <point x="270" y="28"/>
      <point x="266" y="28"/>
      <point x="261" y="29" type="curve"/>
      <point x="261" y="92" type="line"/>
      <point x="267" y="92" type="line" smooth="yes"/>
      <point x="298" y="92"/>
      <point x="316" y="109"/>
      <point x="316" y="135" type="curve" smooth="yes"/>
      <point x="316" y="140" type="line" smooth="yes"/>
      <point x="316" y="165"/>
      <point x="301" y="183"/>
      <point x="273" y="183" type="curve" smooth="yes"/>
      <point x="233" y="183"/>
      <point x="219" y="159"/>
      <point x="219" y="121" type="curve" smooth="yes"/>
      <point x="217" y="63"/>
      <point x="175" y="28"/>
      <point x="111" y="28" type="curve" smooth="yes"/>
      <point x="45" y="28"/>
      <point x="5" y="65"/>
      <point x="5" y="122" type="curve" smooth="yes"/>
      <point x="5" y="128"/>
      <point x="6" y="134"/>
      <point x="7" y="140" type="curve" smooth="yes"/>
      <point x="7" y="140"/>
      <point x="7" y="141"/>
      <point x="7" y="142" type="curve" smooth="yes"/>
      <point x="78" y="142" type="line"/>
      <point x="78" y="127" type="line" smooth="yes"/>
      <point x="78" y="101"/>
      <point x="91" y="86"/>
      <point x="113" y="86" type="curve" smooth="yes"/>
      <point x="133" y="86"/>
      <point x="146" y="98"/>
      <point x="146" y="125" type="curve" smooth="yes"/>
      <point x="146" y="146" type="line" smooth="yes"/>
      <point x="146" y="182"/>
      <point x="127" y="191"/>
      <point x="106" y="191" type="curve" smooth="yes"/>
      <point x="87" y="191" type="line"/>
      <point x="87" y="249" type="line"/>
      <point x="107" y="249" type="line" smooth="yes"/>
      <point x="127" y="249"/>
      <point x="140" y="262"/>
      <point x="141" y="289" type="curve" smooth="yes"/>
      <point x="141" y="299" type="line" smooth="yes"/>
      <point x="141" y="324"/>
      <point x="132" y="338"/>
      <point x="113" y="338" type="curve" smooth="yes"/>
      <point x="-7" y="338" type="line"/>
      <point x="-7" y="399" type="line"/>
      <point x="405" y="399" type="line"/>
    </contour>
  </outline>
</glyph>
<glyph name="uni091E" format="1">
  <advance width="404"/>
  <unicode hex="091E"/>
  <outline>
    <contour>
      <point x="322" y="0" type="move" name="Anchor-7"/>
    </contour>
    <contour>
      <point x="0" y="0" type="move" name="Anchor-6"/>
    </contour>
    <contour>
      <point x="71" y="28" type="move" name="Anchor-5"/>
    </contour>
    <contour>
      <point x="322" y="399" type="move" name="Anchor-3"/>
    </contour>
    <contour>
      <point x="188" y="399" type="move" name="Anchor-2"/>
    </contour>
    <contour>
      <point x="411" y="399" type="line"/>
      <point x="411" y="338" type="line"/>
      <point x="354" y="338" type="line"/>
      <point x="354" y="0" type="line"/>
      <point x="284" y="0" type="line"/>
      <point x="284" y="143" type="line"/>
      <point x="211" y="143" type="line"/>
      <point x="204" y="75"/>
      <point x="169" y="44"/>
      <point x="107" y="44" type="curve" smooth="yes"/>
      <point x="49" y="44"/>
      <point x="11" y="75"/>
      <point x="11" y="122" type="curve" smooth="yes"/>
      <point x="11" y="125"/>
      <point x="11" y="130"/>
      <point x="13" y="134" type="curve"/>
      <point x="80" y="134" type="line"/>
      <point x="80" y="131" type="line" smooth="yes"/>
      <point x="80" y="114"/>
      <point x="89" y="103"/>
      <point x="107" y="103" type="curve" smooth="yes"/>
      <point x="132" y="103"/>
      <point x="142" y="121"/>
      <point x="142" y="154" type="curve" smooth="yes"/>
      <point x="142" y="189" type="line" smooth="yes"/>
      <point x="142" y="222"/>
      <point x="132" y="240"/>
      <point x="109" y="240" type="curve" smooth="yes"/>
      <point x="92" y="240"/>
      <point x="82" y="230"/>
      <point x="82" y="212" type="curve" smooth="yes"/>
      <point x="82" y="210" type="line"/>
      <point x="13" y="210" type="line"/>
      <point x="11" y="214"/>
      <point x="11" y="219"/>
      <point x="11" y="221" type="curve" smooth="yes"/>
      <point x="11" y="268"/>
      <point x="50" y="299"/>
      <point x="109" y="299" type="curve" smooth="yes"/>
      <point x="166" y="299"/>
      <point x="201" y="269"/>
      <point x="210" y="205" type="curve"/>
      <point x="284" y="205" type="line"/>
      <point x="284" y="338" type="line"/>
      <point x="-13" y="338" type="line"/>
      <point x="-13" y="399" type="line"/>
    </contour>
  </outline>
</glyph>
<glyph name="uni0920" format="1">
  <advance width="291"/>
  <unicode hex="0920"/>
  <outline>
    <contour>
      <point x="146" y="28" type="move" name="Anchor-7"/>
    </contour>
    <contour>
      <point x="0" y="0" type="move" name="Anchor-6"/>
    </contour>
    <contour>
      <point x="146" y="28" type="move" name="Anchor-5"/>
    </contour>
    <contour>
      <point x="192" y="399" type="move" name="Anchor-3"/>
    </contour>
    <contour>
      <point x="146" y="399" type="move" name="Anchor-2"/>
    </contour>
    <contour>
      <point x="298" y="338" type="line"/>
      <point x="227" y="338" type="line"/>
      <point x="227" y="277" type="line"/>
      <point x="255" y="255"/>
      <point x="269" y="218"/>
      <point x="269" y="163" type="curve" smooth="yes"/>
      <point x="269" y="71"/>
      <point x="228" y="28"/>
      <point x="146" y="28" type="curve" smooth="yes"/>
      <point x="65" y="28"/>
      <point x="24" y="71"/>
      <point x="24" y="163" type="curve" smooth="yes"/>
      <point x="24" y="256"/>
      <point x="65" y="299"/>
      <point x="146" y="299" type="curve" smooth="yes"/>
      <point x="157" y="299" type="line"/>
      <point x="157" y="338" type="line"/>
      <point x="-7" y="338" type="line"/>
      <point x="-7" y="399" type="line"/>
      <point x="298" y="399" type="line"/>
    </contour>
    <contour>
      <point x="196" y="153" type="curve" smooth="yes"/>
      <point x="196" y="174" type="line" smooth="yes"/>
      <point x="196" y="208"/>
      <point x="188" y="231"/>
      <point x="169" y="240" type="curve"/>
      <point x="146" y="240" type="line" smooth="yes"/>
      <point x="110" y="240"/>
      <point x="97" y="217"/>
      <point x="97" y="174" type="curve" smooth="yes"/>
      <point x="97" y="153" type="line" smooth="yes"/>
      <point x="97" y="110"/>
      <point x="110" y="87"/>
      <point x="146" y="87" type="curve" smooth="yes"/>
      <point x="183" y="87"/>
      <point x="196" y="110"/>
    </contour>
  </outline>
</glyph>
<glyph name="uni0924" format="1">
  <advance width="320"/>
  <unicode hex="0924"/>
  <outline>
    <contour>
      <point x="241" y="0" type="move" name="Anchor-7"/>
    </contour>
    <contour>
      <point x="0" y="0" type="move" name="Anchor-6"/>
    </contour>
    <contour>
      <point x="13" y="0" type="move" name="Anchor-5"/>
    </contour>
    <contour>
      <point x="241" y="399" type="move" name="Anchor-3"/>
    </contour>
    <contour>
      <point x="142" y="399" type="move" name="Anchor-2"/>
    </contour>
    <contour>
      <point x="333" y="399" type="line"/>
      <point x="333" y="338" type="line"/>
      <point x="276" y="338" type="line"/>
      <point x="276" y="0" type="line"/>
      <point x="206" y="0" type="line"/>
      <point x="206" y="208" type="line"/>
      <point x="126" y="208" type="line" smooth="yes"/>
      <point x="96" y="208"/>
      <point x="87" y="191"/>
      <point x="87" y="163" type="curve" smooth="yes"/>
      <point x="87" y="143"/>
      <point x="89" y="96"/>
      <point x="142" y="0" type="curve"/>
      <point x="66" y="0" type="line"/>
      <point x="17" y="98"/>
      <point x="15" y="143"/>
      <point x="15" y="168" type="curve" smooth="yes"/>
      <point x="15" y="221"/>
      <point x="45" y="270"/>
      <point x="125" y="270" type="curve" smooth="yes"/>
      <point x="206" y="270" type="line"/>
      <point x="206" y="338" type="line"/>
      <point x="-7" y="338" type="line"/>
      <point x="-7" y="399" type="line"/>
    </contour>
  </outline>
</glyph>
<glyph name="uni0927" format="1">
  <advance width="411"/>
  <unicode hex="0927"/>
  <outline>
    <contour>
      <point x="326" y="0" type="move" name="Anchor-7"/>
    </contour>
    <contour>
      <point x="0" y="0" type="move" name="Anchor-6"/>
    </contour>
    <contour>
      <point x="88" y="28" type="move" name="Anchor-5"/>
    </contour>
    <contour>
      <point x="326" y="399" type="move" name="Anchor-3"/>
    </contour>
    <contour>
      <point x="206" y="399" type="move" name="Anchor-2"/>
    </contour>
    <contour>
      <point x="417" y="399" type="line"/>
      <point x="417" y="338" type="line"/>
      <point x="360" y="338" type="line"/>
      <point x="360" y="0" type="line"/>
      <point x="291" y="0" type="line"/>
      <point x="291" y="76" type="line"/>
      <point x="269" y="58"/>
      <point x="235" y="48"/>
      <point x="189" y="48" type="curve" smooth="yes"/>
      <point x="94" y="48"/>
      <point x="40" y="92"/>
      <point x="40" y="156" type="curve" smooth="yes"/>
      <point x="40" y="196"/>
      <point x="60" y="225"/>
      <point x="90" y="237" type="curve"/>
      <point x="64" y="248"/>
      <point x="40" y="271"/>
      <point x="40" y="316" type="curve" smooth="yes"/>
      <point x="40" y="371"/>
      <point x="74" y="407"/>
      <point x="134" y="407" type="curve" smooth="yes"/>
      <point x="190" y="407"/>
      <point x="221" y="376"/>
      <point x="221" y="333" type="curve" smooth="yes"/>
      <point x="221" y="326"/>
      <point x="220" y="320"/>
      <point x="220" y="316" type="curve" smooth="yes"/>
      <point x="219" y="315"/>
      <point x="219" y="313"/>
      <point x="219" y="312" type="curve" smooth="yes"/>
      <point x="153" y="312" type="line"/>
      <point x="153" y="329" type="line" smooth="yes"/>
      <point x="153" y="339"/>
      <point x="148" y="349"/>
      <point x="135" y="349" type="curve" smooth="yes"/>
      <point x="117" y="349"/>
      <point x="113" y="328"/>
      <point x="113" y="312" type="curve" smooth="yes"/>
      <point x="113" y="280"/>
      <point x="129" y="263"/>
      <point x="150" y="263" type="curve" smooth="yes"/>
      <point x="189" y="263" type="line"/>
      <point x="189" y="206" type="line"/>
      <point x="151" y="206" type="line" smooth="yes"/>
      <point x="129" y="206"/>
      <point x="113" y="192"/>
      <point x="113" y="164" type="curve" smooth="yes"/>
      <point x="113" y="127"/>
      <point x="142" y="105"/>
      <point x="198" y="105" type="curve" smooth="yes"/>
      <point x="261" y="105"/>
      <point x="291" y="132"/>
      <point x="291" y="178" type="curve" smooth="yes"/>
      <point x="291" y="338" type="line"/>
      <point x="241" y="338" type="line"/>
      <point x="241" y="399" type="line"/>
    </contour>
  </outline>
</glyph>
<glyph name="uni0928" format="1">
  <advance width="374"/>
  <unicode hex="0928"/>
  <outline>
    <contour>
      <point x="289" y="0" type="move" name="Anchor-7"/>
    </contour>
    <contour>
      <point x="0" y="0" type="move" name="Anchor-6"/>
    </contour>
    <contour>
      <point x="98" y="74" type="move" name="Anchor-5"/>
    </contour>
    <contour>
      <point x="289" y="399" type="move" name="Anchor-3"/>
    </contour>
    <contour>
      <point x="171" y="399" type="move" name="Anchor-2"/>
    </contour>
    <contour>
      <point x="381" y="399" type="line"/>
      <point x="381" y="338" type="line"/>
      <point x="324" y="338" type="line"/>
      <point x="324" y="0" type="line"/>
      <point x="254" y="0" type="line"/>
      <point x="254" y="197" type="line"/>
      <point x="194" y="197" type="line"/>
      <point x="194" y="167" type="line" smooth="yes"/>
      <point x="194" y="111"/>
      <point x="156" y="74"/>
      <point x="98" y="74" type="curve" smooth="yes"/>
      <point x="40" y="74"/>
      <point x="1" y="111"/>
      <point x="1" y="167" type="curve" smooth="yes"/>
      <point x="1" y="222"/>
      <point x="40" y="259"/>
      <point x="98" y="259" type="curve" smooth="yes"/>
      <point x="254" y="259" type="line"/>
      <point x="254" y="338" type="line"/>
      <point x="-7" y="338" type="line"/>
      <point x="-7" y="399" type="line"/>
    </contour>
    <contour>
      <point x="124" y="167" type="curve" smooth="yes"/>
      <point x="124" y="197" type="line"/>
      <point x="98" y="197" type="line" smooth="yes"/>
      <point x="82" y="197"/>
      <point x="71" y="185"/>
      <point x="71" y="167" type="curve" smooth="yes"/>
      <point x="71" y="150"/>
      <point x="83" y="135"/>
      <point x="98" y="135" type="curve" smooth="yes"/>
      <point x="113" y="135"/>
      <point x="124" y="148"/>
    </contour>
  </outline>
</glyph>
<glyph name="uni092E" format="1">
  <advance width="399"/>
  <unicode hex="092E"/>
  <outline>
    <contour>
      <point x="314" y="0" type="move" name="Anchor-7"/>
    </contour>
    <contour>
      <point x="0" y="0" type="move" name="Anchor-6"/>
    </contour>
    <contour>
      <point x="70" y="0" type="move" name="Anchor-5"/>
    </contour>
    <contour>
      <point x="314" y="399" type="move" name="Anchor-3"/>
    </contour>
    <contour>
      <point x="212" y="399" type="move" name="Anchor-2"/>
    </contour>
    <contour>
      <point x="406" y="399" type="line"/>
      <point x="406" y="338" type="line"/>
      <point x="349" y="338" type="line"/>
      <point x="349" y="0" type="line"/>
      <point x="279" y="0" type="line"/>
      <point x="279" y="153" type="line"/>
      <point x="193" y="153" type="line"/>
      <point x="193" y="123" type="line" smooth="yes"/>
      <point x="193" y="67"/>
      <point x="154" y="30"/>
      <point x="97" y="30" type="curve" smooth="yes"/>
      <point x="38" y="30"/>
      <point x="0" y="67"/>
      <point x="0" y="123" type="curve" smooth="yes"/>
      <point x="0" y="178"/>
      <point x="38" y="215"/>
      <point x="97" y="215" type="curve" smooth="yes"/>
      <point x="123" y="215" type="line"/>
      <point x="123" y="338" type="line"/>
      <point x="-7" y="338" type="line"/>
      <point x="-7" y="399" type="line"/>
    </contour>
    <contour>
      <point x="193" y="215" type="line"/>
      <point x="279" y="215" type="line"/>
      <point x="279" y="338" type="line"/>
      <point x="193" y="338" type="line"/>
    </contour>
    <contour>
      <point x="123" y="123" type="curve" smooth="yes"/>
      <point x="123" y="153" type="line"/>
      <point x="97" y="153" type="line" smooth="yes"/>
      <point x="80" y="153"/>
      <point x="70" y="141"/>
      <point x="70" y="123" type="curve" smooth="yes"/>
      <point x="70" y="105"/>
      <point x="82" y="91"/>
      <point x="97" y="91" type="curve" smooth="yes"/>
      <point x="113" y="91"/>
      <point x="123" y="104"/>
    </contour>
  </outline>
</glyph>
<glyph name="uni0931" format="1">
  <advance width="240"/>
  <unicode hex="0931"/>
  <outline>
    <contour>
      <point x="158" y="0" type="move" name="Anchor-7"/>
    </contour>
    <contour>
      <point x="0" y="0" type="move" name="Anchor-6"/>
    </contour>
    <contour>
      <point x="17" y="88" type="move" name="Anchor-5"/>
    </contour>
    <contour>
      <point x="158" y="399" type="move" name="Anchor-3"/>
    </contour>
    <contour>
      <point x="0" y="0" type="move" name="Anchor-2"/>
    </contour>
    <contour>
      <point x="246" y="399" type="line"/>
      <point x="246" y="338" type="line"/>
      <point x="193" y="338" type="line"/>
      <point x="193" y="272" type="line" smooth="yes"/>
      <point x="193" y="199"/>
      <point x="162" y="159"/>
      <point x="103" y="156" type="curve"/>
      <point x="185" y="0" type="line"/>
      <point x="112" y="0" type="line"/>
      <point x="32" y="167" type="line"/>
      <point x="32" y="214" type="line"/>
      <point x="80" y="214" type="line" smooth="yes"/>
      <point x="108" y="214"/>
      <point x="123" y="231"/>
      <point x="123" y="264" type="curve" smooth="yes"/>
      <point x="123" y="338" type="line"/>
      <point x="-7" y="338" type="line"/>
      <point x="-7" y="399" type="line"/>
    </contour>
    <contour>
      <point x="-23" y="-31" type="line"/>
      <point x="-23" y="49" type="line"/>
      <point x="57" y="49" type="line"/>
      <point x="57" y="-31" type="line"/>
    </contour>
  </outline>
</glyph>
<glyph name="uni0939" format="1">
  <advance width="317"/>
  <unicode hex="0939"/>
  <outline>
    <contour>
      <point x="180" y="-20" type="move" name="Anchor-7"/>
    </contour>
    <contour>
      <point x="0" y="0" type="move" name="Anchor-6"/>
    </contour>
    <contour>
      <point x="156" y="-42" type="move" name="Anchor-5"/>
    </contour>
    <contour>
      <point x="220" y="399" type="move" name="Anchor-3"/>
    </contour>
    <contour>
      <point x="159" y="399" type="move" name="Anchor-2"/>
    </contour>
    <contour>
      <point x="137" y="238" type="line" smooth="yes"/>
      <point x="125" y="238"/>
      <point x="111" y="231"/>
      <point x="111" y="215" type="curve" smooth="yes"/>
      <point x="111" y="196"/>
      <point x="138" y="194"/>
      <point x="157" y="194" type="curve" smooth="yes"/>
      <point x="164" y="195"/>
      <point x="171" y="195"/>
      <point x="179" y="195" type="curve" smooth="yes"/>
      <point x="256" y="195"/>
      <point x="297" y="149"/>
      <point x="297" y="85" type="curve" smooth="yes"/>
      <point x="297" y="78"/>
      <point x="297" y="70"/>
      <point x="296" y="66" type="curve"/>
      <point x="229" y="66" type="line"/>
      <point x="229" y="86" type="line" smooth="yes"/>
      <point x="229" y="121"/>
      <point x="208" y="140"/>
      <point x="172" y="140" type="curve" smooth="yes"/>
      <point x="130" y="140"/>
      <point x="109" y="121"/>
      <point x="109" y="82" type="curve" smooth="yes"/>
      <point x="109" y="39"/>
      <point x="137" y="18"/>
      <point x="194" y="18" type="curve" smooth="yes"/>
      <point x="243" y="18" type="line"/>
      <point x="243" y="-34" type="line"/>
      <point x="227" y="-38"/>
      <point x="208" y="-42"/>
      <point x="188" y="-42" type="curve" smooth="yes"/>
      <point x="96" y="-42"/>
      <point x="42" y="3"/>
      <point x="42" y="78" type="curve" smooth="yes"/>
      <point x="42" y="114"/>
      <point x="53" y="141"/>
      <point x="73" y="160" type="curve"/>
      <point x="54" y="171"/>
      <point x="40" y="189"/>
      <point x="40" y="221" type="curve" smooth="yes"/>
      <point x="40" y="277"/>
      <point x="82" y="299"/>
      <point x="139" y="299" type="curve" smooth="yes"/>
      <point x="175" y="299" type="line"/>
      <point x="175" y="338" type="line"/>
      <point x="-7" y="338" type="line"/>
      <point x="-7" y="399" type="line"/>
      <point x="324" y="399" type="line"/>
      <point x="324" y="338" type="line"/>
      <point x="255" y="338" type="line"/>
      <point x="255" y="238" type="line"/>
    </contour>
  </outline>
</glyph>
<glyph name="uni093A" format="1">
  <advance width="0"/>
  <unicode hex="093A"/>
  <outline>
    <contour>
      <point x="-85" y="399" type="move" name="_Anchor-4"/>
    </contour>
    <contour>
      <point x="-85" y="399" type="move" name="_Anchor-3"/>
    </contour>
    <contour>
      <point x="-85" y="399" type="move" name="_Anchor-0"/>
    </contour>
    <contour>
      <point x="-50" y="521" type="line"/>
      <point x="-50" y="393" type="line"/>
      <point x="-120" y="393" type="line"/>
      <point x="-120" y="521" type="line"/>
    </contour>
  </outline>
</glyph>
<glyph name="uni093C" format="1">
  <advance width="0"/>
  <unicode hex="093C"/>
  <outline>
    <contour>
      <point x="-82" y="0" type="move" name="_Anchor-9"/>
    </contour>
    <contour>
      <point x="-82" y="0" type="move" name="_Anchor-5"/>
    </contour>
    <contour>
      <point x="-122" y="-119" type="line"/>
      <point x="-122" y="-39" type="line"/>
      <point x="-42" y="-39" type="line"/>
      <point x="-42" y="-119" type="line"/>
    </contour>
  </outline>
</glyph>
<glyph name="uni0940" format="1">
  <advance width="170"/>
  <unicode hex="0940"/>
  <outline>
    <contour>
      <point x="82" y="0" type="move" name="Anchor-7"/>
    </contour>
    <contour>
      <point x="0" y="0" type="move" name="Anchor-6"/>
    </contour>
    <contour>
      <point x="0" y="0" type="move" name="Anchor-5"/>
    </contour>
    <contour>
      <point x="85" y="399" type="move" name="Anchor-3"/>
    </contour>
    <contour>
      <point x="85" y="399" type="move" name="Anchor-2"/>
    </contour>
    <contour>
      <point x="120" y="399" type="line"/>
      <point x="177" y="399" type="line"/>
      <point x="177" y="338" type="line"/>
      <point x="120" y="338" type="line"/>
      <point x="120" y="0" type="line"/>
      <point x="50" y="0" type="line"/>
      <point x="50" y="338" type="line"/>
      <point x="-7" y="338" type="line"/>
      <point x="-7" y="399" type="line"/>
      <point x="50" y="399" type="line"/>
      <point x="50" y="462" type="line" smooth="yes"/>
      <point x="50" y="490"/>
      <point x="41" y="517"/>
      <point x="0" y="517" type="curve" smooth="yes"/>
      <point x="-42" y="517"/>
      <point x="-50" y="490"/>
      <point x="-50" y="466" type="curve" smooth="yes"/>
      <point x="-50" y="444" type="line"/>
      <point x="-118" y="444" type="line"/>
      <point x="-119" y="450"/>
      <point x="-119" y="459"/>
      <point x="-119" y="470" type="curve" smooth="yes"/>
      <point x="-119" y="533"/>
      <point x="-78" y="574"/>
      <point x="-1" y="574" type="curve" smooth="yes"/>
      <point x="76" y="574"/>
      <point x="120" y="534"/>
      <point x="120" y="466" type="curve" smooth="yes"/>
    </contour>
  </outline>
</glyph>
<glyph name="uni0943" format="1">
  <advance width="0"/>
  <unicode hex="0943"/>
  <outline>
    <contour>
      <point x="-85" y="0" type="move" name="_Anchor-8"/>
    </contour>
    <contour>
      <point x="-85" y="0" type="move" name="_Anchor-7"/>
    </contour>
    <contour>
      <point x="-85" y="0" type="move" name="_Anchor-1"/>
    </contour>
    <contour>
      <point x="-69" y="61" type="curve" smooth="yes"/>
      <point x="-62" y="61"/>
      <point x="-56" y="60"/>
      <point x="-50" y="59" type="curve"/>
      <point x="-50" y="0" type="line"/>
      <point x="-63" y="0" type="line" smooth="yes"/>
      <point x="-85" y="0"/>
      <point x="-99" y="-9"/>
      <point x="-99" y="-28" type="curve" smooth="yes"/>
      <point x="-99" y="-46"/>
      <point x="-85" y="-55"/>
      <point x="-63" y="-55" type="curve" smooth="yes"/>
      <point x="-47" y="-55"/>
      <point x="-32" y="-51"/>
      <point x="-21" y="-46" type="curve"/>
      <point x="-21" y="-106" type="line"/>
      <point x="-37" y="-113"/>
      <point x="-51" y="-116"/>
      <point x="-69" y="-116" type="curve" smooth="yes"/>
      <point x="-120" y="-116"/>
      <point x="-169" y="-85"/>
      <point x="-169" y="-28" type="curve" smooth="yes"/>
      <point x="-169" y="30"/>
      <point x="-120" y="61"/>
    </contour>
  </outline>
</glyph>
<glyph name="uni094C" format="1">
  <advance width="170"/>
  <unicode hex="094C"/>
  <outline>
    <contour>
      <point x="85" y="0" type="move" name="Anchor-7"/>
    </contour>
    <contour>
      <point x="0" y="0" type="move" name="Anchor-6"/>
    </contour>
    <contour>
      <point x="0" y="0" type="move" name="Anchor-5"/>
    </contour>
    <contour>
      <point x="85" y="399" type="move" name="Anchor-3"/>
    </contour>
    <contour>
      <point x="85" y="399" type="move" name="Anchor-2"/>
    </contour>
    <contour>
      <point x="177" y="399" type="line"/>
      <point x="177" y="338" type="line"/>
      <point x="120" y="338" type="line"/>
      <point x="120" y="0" type="line"/>
      <point x="50" y="0" type="line"/>
      <point x="50" y="338" type="line"/>
      <point x="-28" y="338" type="line"/>
      <point x="-28" y="399" type="line"/>
      <point x="-23" y="399" type="line"/>
      <point x="-77" y="574" type="line"/>
      <point x="-7" y="574" type="line"/>
      <point x="42" y="399" type="line"/>
      <point x="53" y="399" type="line" smooth="yes"/>
      <point x="53" y="401"/>
      <point x="53" y="403"/>
      <point x="52" y="404" type="curve" smooth="yes"/>
      <point x="50" y="433"/>
      <point x="47" y="461"/>
      <point x="47" y="490" type="curve" smooth="yes"/>
      <point x="47" y="574" type="line"/>
      <point x="118" y="574" type="line"/>
      <point x="118" y="399" type="line"/>
    </contour>
  </outline>
</glyph>
<glyph name="uni0951" format="1">
  <advance width="0"/>
  <unicode hex="0951"/>
  <outline>
    <contour>
      <point x="-85" y="399" type="move" name="_Anchor-2"/>
    </contour>
    <contour>
      <point x="-53" y="733" type="line"/>
      <point x="-53" y="587" type="line"/>
      <point x="-117" y="587" type="line"/>
      <point x="-117" y="733" type="line"/>
    </contour>
  </outline>
</glyph>
<glyph name="uni0954" format="1">
  <advance width="0"/>
  <unicode hex="0954"/>
  <outline>
    <contour>
      <point x="-85" y="399" type="move" name="_Anchor-4"/>
    </contour>
    <contour>
      <point x="-85" y="399" type="move" name="_Anchor-3"/>
    </contour>
    <contour>
      <point x="-85" y="399" type="move" name="_Anchor-0"/>
    </contour>
    <contour>
      <point x="-56" y="434" type="line"/>
      <point x="-114" y="434" type="line"/>
      <point x="-64" y="511" type="line"/>
      <point x="6" y="511" type="line"/>
      <point x="6" y="509" type="line"/>
    </contour>
  </outline>
</glyph>
<glyph name="uni095D" format="1">
  <advance width="289"/>
  <unicode hex="095D"/>
  <outline>
    <contour>
      <point x="154" y="28" type="move" name="Anchor-7"/>
    </contour>
    <contour>
      <point x="0" y="0" type="move" name="Anchor-6"/>
    </contour>
    <contour>
      <point x="154" y="28" type="move" name="Anchor-5"/>
    </contour>
    <contour>
      <point x="203" y="399" type="move" name="Anchor-3"/>
    </contour>
    <contour>
      <point x="146" y="399" type="move" name="Anchor-2"/>
    </contour>
    <contour>
      <point x="148" y="240" type="line" smooth="yes"/>
      <point x="107" y="240"/>
      <point x="92" y="217"/>
      <point x="92" y="174" type="curve" smooth="yes"/>
      <point x="92" y="153" type="line" smooth="yes"/>
      <point x="92" y="132"/>
      <point x="96" y="116"/>
      <point x="106" y="105" type="curve"/>
      <point x="103" y="113"/>
      <point x="102" y="122"/>
      <point x="102" y="132" type="curve" smooth="yes"/>
      <point x="102" y="170"/>
      <point x="123" y="213"/>
      <point x="185" y="213" type="curve" smooth="yes"/>
      <point x="235" y="213"/>
      <point x="274" y="186"/>
      <point x="274" y="129" type="curve" smooth="yes"/>
      <point x="274" y="70"/>
      <point x="231" y="28"/>
      <point x="154" y="28" type="curve" smooth="yes"/>
      <point x="70" y="28"/>
      <point x="18" y="78"/>
      <point x="18" y="170" type="curve" smooth="yes"/>
      <point x="18" y="254"/>
      <point x="63" y="299"/>
      <point x="148" y="299" type="curve" smooth="yes"/>
      <point x="168" y="299" type="line"/>
      <point x="168" y="338" type="line"/>
      <point x="-7" y="338" type="line"/>
      <point x="-7" y="399" type="line"/>
      <point x="295" y="399" type="line"/>
      <point x="295" y="338" type="line"/>
      <point x="238" y="338" type="line"/>
      <point x="238" y="240" type="line"/>
    </contour>
    <contour>
      <point x="182" y="156" type="curve" smooth="yes"/>
      <point x="165" y="156"/>
      <point x="158" y="144"/>
      <point x="158" y="120" type="curve" smooth="yes"/>
      <point x="158" y="96"/>
      <point x="165" y="83"/>
      <point x="181" y="83" type="curve" smooth="yes"/>
      <point x="197" y="83"/>
      <point x="206" y="96"/>
      <point x="206" y="121" type="curve" smooth="yes"/>
      <point x="206" y="144"/>
      <point x="198" y="156"/>
    </contour>
    <contour>
      <point x="114" y="-91" type="line"/>
      <point x="114" y="-11" type="line"/>
      <point x="194" y="-11" type="line"/>
      <point x="194" y="-91" type="line"/>
    </contour>
  </outline>
</glyph>
<glyph name="uni0960" format="1">
  <advance width="486"/>
  <unicode hex="0960"/>
  <outline>
    <contour>
      <point x="229" y="0" type="move" name="Anchor-7"/>
    </contour>
    <contour>
      <point x="0" y="0" type="move" name="Anchor-6"/>
    </contour>
    <contour>
      <point x="0" y="0" type="move" name="Anchor-5"/>
    </contour>
    <contour>
      <point x="229" y="399" type="move" name="Anchor-3"/>
    </contour>
    <contour>
      <point x="229" y="399" type="move" name="Anchor-2"/>
    </contour>
    <contour>
      <point x="264" y="338" type="line"/>
      <point x="264" y="202" type="line"/>
      <point x="378" y="257" type="line"/>
      <point x="378" y="283" type="line"/>
      <point x="442" y="283" type="line"/>
      <point x="442" y="109" type="line"/>
      <point x="424" y="109" type="line" smooth="yes"/>
      <point x="404" y="109"/>
      <point x="393" y="101"/>
      <point x="393" y="86" type="curve" smooth="yes"/>
      <point x="393" y="71"/>
      <point x="407" y="64"/>
      <point x="429" y="64" type="curve" smooth="yes"/>
      <point x="442" y="64" type="line"/>
      <point x="442" y="6" type="line"/>
      <point x="424" y="6" type="line" smooth="yes"/>
      <point x="404" y="6"/>
      <point x="393" y="-2"/>
      <point x="393" y="-17" type="curve" smooth="yes"/>
      <point x="393" y="-32"/>
      <point x="407" y="-39"/>
      <point x="429" y="-39" type="curve" smooth="yes"/>
      <point x="445" y="-39"/>
      <point x="460" y="-35"/>
      <point x="471" y="-30" type="curve"/>
      <point x="471" y="-90" type="line"/>
      <point x="455" y="-97"/>
      <point x="441" y="-100"/>
      <point x="423" y="-100" type="curve" smooth="yes"/>
      <point x="372" y="-100"/>
      <point x="323" y="-71"/>
      <point x="323" y="-23" type="curve" smooth="yes"/>
      <point x="323" y="0"/>
      <point x="334" y="20"/>
      <point x="350" y="35" type="curve"/>
      <point x="334" y="49"/>
      <point x="323" y="69"/>
      <point x="323" y="92" type="curve" smooth="yes"/>
      <point x="323" y="126"/>
      <point x="347" y="150"/>
      <point x="378" y="162" type="curve"/>
      <point x="378" y="189" type="line"/>
      <point x="264" y="134" type="line"/>
      <point x="264" y="0" type="line"/>
      <point x="194" y="0" type="line"/>
      <point x="194" y="105" type="line"/>
      <point x="67" y="43" type="line"/>
      <point x="67" y="111" type="line"/>
      <point x="180" y="166" type="line"/>
      <point x="164" y="183" type="line" smooth="yes"/>
      <point x="140" y="208"/>
      <point x="123" y="217"/>
      <point x="103" y="217" type="curve" smooth="yes"/>
      <point x="92" y="217"/>
      <point x="83" y="214"/>
      <point x="71" y="210" type="curve" smooth="yes"/>
      <point x="51" y="204" type="line"/>
      <point x="51" y="264" type="line"/>
      <point x="55" y="267"/>
      <point x="61" y="269"/>
      <point x="67" y="271" type="curve" smooth="yes"/>
      <point x="69" y="271"/>
      <point x="71" y="272"/>
      <point x="73" y="273" type="curve" smooth="yes"/>
      <point x="86" y="277"/>
      <point x="97" y="279"/>
      <point x="109" y="279" type="curve" smooth="yes"/>
      <point x="147" y="279"/>
      <point x="170" y="262"/>
      <point x="194" y="238" type="curve"/>
      <point x="194" y="338" type="line"/>
      <point x="-7" y="338" type="line"/>
      <point x="-7" y="399" type="line"/>
      <point x="492" y="399" type="line"/>
      <point x="492" y="338" type="line"/>
    </contour>
  </outline>
</glyph>
<glyph name="uni0961" format="1">
  <advance width="426"/>
  <unicode hex="0961"/>
  <outline>
    <contour>
      <point x="341" y="-114" type="move" name="Anchor-7"/>
    </contour>
    <contour>
      <point x="0" y="0" type="move" name="Anchor-6"/>
    </contour>
    <contour>
      <point x="0" y="0" type="move" name="Anchor-5"/>
    </contour>
    <contour>
      <point x="341" y="399" type="move" name="Anchor-3"/>
    </contour>
    <contour>
      <point x="0" y="0" type="move" name="Anchor-2"/>
    </contour>
    <contour>
      <point x="358" y="63" type="line" smooth="yes"/>
      <point x="338" y="63"/>
      <point x="327" y="55"/>
      <point x="327" y="40" type="curve" smooth="yes"/>
      <point x="327" y="25"/>
      <point x="341" y="18"/>
      <point x="363" y="18" type="curve" smooth="yes"/>
      <point x="376" y="18" type="line"/>
      <point x="376" y="-40" type="line"/>
      <point x="358" y="-40" type="line" smooth="yes"/>
      <point x="338" y="-40"/>
      <point x="327" y="-48"/>
      <point x="327" y="-63" type="curve" smooth="yes"/>
      <point x="327" y="-78"/>
      <point x="341" y="-85"/>
      <point x="363" y="-85" type="curve" smooth="yes"/>
      <point x="379" y="-85"/>
      <point x="394" y="-81"/>
      <point x="405" y="-76" type="curve"/>
      <point x="405" y="-136" type="line"/>
      <point x="389" y="-143"/>
      <point x="375" y="-146"/>
      <point x="357" y="-146" type="curve" smooth="yes"/>
      <point x="306" y="-146"/>
      <point x="257" y="-117"/>
      <point x="257" y="-69" type="curve" smooth="yes"/>
      <point x="257" y="-46"/>
      <point x="268" y="-26"/>
      <point x="284" y="-11" type="curve"/>
      <point x="268" y="3"/>
      <point x="257" y="23"/>
      <point x="257" y="46" type="curve" smooth="yes"/>
      <point x="257" y="78"/>
      <point x="278" y="101"/>
      <point x="306" y="114" type="curve"/>
      <point x="306" y="177" type="line" smooth="yes"/>
      <point x="306" y="212"/>
      <point x="295" y="235"/>
      <point x="272" y="235" type="curve" smooth="yes"/>
      <point x="243" y="235"/>
      <point x="236" y="206"/>
      <point x="236" y="173" type="curve" smooth="yes"/>
      <point x="236" y="138" type="line"/>
      <point x="163" y="138" type="line"/>
      <point x="163" y="173" type="line" smooth="yes"/>
      <point x="163" y="206"/>
      <point x="156" y="235"/>
      <point x="127" y="235" type="curve" smooth="yes"/>
      <point x="104" y="235"/>
      <point x="93" y="200"/>
      <point x="93" y="151" type="curve" smooth="yes"/>
      <point x="93" y="90"/>
      <point x="118" y="59"/>
      <point x="163" y="59" type="curve" smooth="yes"/>
      <point x="185" y="59" type="line"/>
      <point x="185" y="3" type="line"/>
      <point x="177" y="1"/>
      <point x="170" y="0"/>
      <point x="162" y="0" type="curve" smooth="yes"/>
      <point x="71" y="0"/>
      <point x="20" y="55"/>
      <point x="20" y="158" type="curve" smooth="yes"/>
      <point x="20" y="235"/>
      <point x="57" y="293"/>
      <point x="117" y="293" type="curve" smooth="yes"/>
      <point x="161" y="293"/>
      <point x="188" y="268"/>
      <point x="198" y="234" type="curve"/>
      <point x="200" y="234" type="line"/>
      <point x="210" y="268"/>
      <point x="235" y="293"/>
      <point x="275" y="293" type="curve" smooth="yes"/>
      <point x="286" y="293"/>
      <point x="297" y="291"/>
      <point x="306" y="286" type="curve"/>
      <point x="306" y="338" type="line"/>
      <point x="-7" y="338" type="line"/>
      <point x="-7" y="399" type="line"/>
      <point x="432" y="399" type="line"/>
      <point x="432" y="338" type="line"/>
      <point x="376" y="338" type="line"/>
      <point x="376" y="63" type="line"/>
    </contour>
  </outline>
</glyph>
<glyph name="uni0963" format="1">
  <advance width="0"/>
  <unicode hex="0963"/>
  <outline>
    <contour>
      <point x="-85" y="0" type="move" name="_Anchor-8"/>
    </contour>
    <contour>
      <point x="-85" y="0" type="move" name="_Anchor-7"/>
    </contour>
    <contour>
      <point x="-85" y="0" type="move" name="_Anchor-1"/>
    </contour>
    <contour>
      <point x="-3" y="-157" type="curve"/>
      <point x="-6" y="-163"/>
      <point x="-7" y="-167"/>
      <point x="-7" y="-171" type="curve" smooth="yes"/>
      <point x="-7" y="-182"/>
      <point x="-1" y="-188"/>
      <point x="10" y="-188" type="curve" smooth="yes"/>
      <point x="18" y="-188"/>
      <point x="27" y="-185"/>
      <point x="38" y="-180" type="curve"/>
      <point x="38" y="-223" type="line"/>
      <point x="26" y="-229"/>
      <point x="14" y="-234"/>
      <point x="-2" y="-234" type="curve" smooth="yes"/>
      <point x="-33" y="-234"/>
      <point x="-63" y="-217"/>
      <point x="-63" y="-185" type="curve" smooth="yes"/>
      <point x="-63" y="-170"/>
      <point x="-57" y="-155"/>
      <point x="-47" y="-143" type="curve"/>
      <point x="-57" y="-135"/>
      <point x="-63" y="-124"/>
      <point x="-63" y="-110" type="curve" smooth="yes"/>
      <point x="-63" y="-95"/>
      <point x="-55" y="-79"/>
      <point x="-48" y="-65" type="curve" smooth="yes"/>
      <point x="-42" y="-52"/>
      <point x="-36" y="-40"/>
      <point x="-36" y="-30" type="curve" smooth="yes"/>
      <point x="-36" y="-20"/>
      <point x="-41" y="-16"/>
      <point x="-48" y="-16" type="curve" smooth="yes"/>
      <point x="-59" y="-16"/>
      <point x="-64" y="-26"/>
      <point x="-64" y="-43" type="curve" smooth="yes"/>
      <point x="-64" y="-50" type="line"/>
      <point x="-106" y="-50" type="line"/>
      <point x="-106" y="-43" type="line" smooth="yes"/>
      <point x="-106" y="-27"/>
      <point x="-111" y="-16"/>
      <point x="-123" y="-16" type="curve" smooth="yes"/>
      <point x="-134" y="-16"/>
      <point x="-139" y="-26"/>
      <point x="-139" y="-45" type="curve" smooth="yes"/>
      <point x="-139" y="-69"/>
      <point x="-132" y="-80"/>
      <point x="-113" y="-80" type="curve" smooth="yes"/>
      <point x="-108" y="-80" type="line"/>
      <point x="-108" y="-133" type="line"/>
      <point x="-114" y="-133" type="line" smooth="yes"/>
      <point x="-170" y="-133"/>
      <point x="-196" y="-104"/>
      <point x="-196" y="-45" type="curve" smooth="yes"/>
      <point x="-196" y="5"/>
      <point x="-177" y="37"/>
      <point x="-137" y="37" type="curve" smooth="yes"/>
      <point x="-111" y="37"/>
      <point x="-94" y="22"/>
      <point x="-85" y="3" type="curve"/>
      <point x="-77" y="20"/>
      <point x="-62" y="37"/>
      <point x="-33" y="37" type="curve" smooth="yes"/>
      <point x="0" y="37"/>
      <point x="22" y="14"/>
      <point x="22" y="-18" type="curve" smooth="yes"/>
      <point x="22" y="-38"/>
      <point x="13" y="-56"/>
      <point x="6" y="-71" type="curve" smooth="yes"/>
      <point x="1" y="-81"/>
      <point x="-3" y="-89"/>
      <point x="-3" y="-95" type="curve" smooth="yes"/>
      <point x="-3" y="-102"/>
      <point x="3" y="-108"/>
      <point x="11" y="-108" type="curve" smooth="yes"/>
      <point x="17" y="-108"/>
      <point x="27" y="-105"/>
      <point x="38" y="-100" type="curve"/>
      <point x="38" y="-146" type="line"/>
      <point x="38" y="-146"/>
      <point x="37" y="-146"/>
      <point x="37" y="-147" type="curve" smooth="yes"/>
      <point x="25" y="-152"/>
      <point x="13" y="-157"/>
    </contour>
  </outline>
</glyph>
<glyph name="uni0964" format="1">
  <advance width="188"/>
  <unicode hex="0964"/>
  <outline>
    <contour>
      <point x="129" y="399" type="line"/>
      <point x="129" y="0" type="line"/>
      <point x="59" y="0" type="line"/>
      <point x="59" y="399" type="line"/>
    </contour>
  </outline>
</glyph>
<glyph name="uni0968" format="1">
  <advance width="279"/>
  <unicode hex="0968"/>
  <outline>
    <contour>
      <point x="137" y="419" type="curve" smooth="yes"/>
      <point x="215" y="419"/>
      <point x="251" y="369"/>
      <point x="251" y="259" type="curve" smooth="yes"/>
      <point x="251" y="148"/>
      <point x="215" y="98"/>
      <point x="146" y="98" type="curve" smooth="yes"/>
      <point x="128" y="98"/>
      <point x="112" y="101"/>
      <point x="98" y="108" type="curve"/>
      <point x="98" y="0" type="line"/>
      <point x="34" y="0" type="line"/>
      <point x="34" y="221" type="line"/>
      <point x="105" y="221" type="line"/>
      <point x="105" y="178"/>
      <point x="116" y="158"/>
      <point x="139" y="158" type="curve" smooth="yes"/>
      <point x="167" y="158"/>
      <point x="178" y="188"/>
      <point x="178" y="248" type="curve" smooth="yes"/>
      <point x="178" y="270" type="line" smooth="yes"/>
      <point x="178" y="329"/>
      <point x="167" y="360"/>
      <point x="137" y="360" type="curve" smooth="yes"/>
      <point x="113" y="360"/>
      <point x="103" y="339"/>
      <point x="103" y="297" type="curve"/>
      <point x="35" y="297" type="line"/>
      <point x="34" y="303"/>
      <point x="33" y="311"/>
      <point x="33" y="318" type="curve" smooth="yes"/>
      <point x="33" y="382"/>
      <point x="80" y="419"/>
    </contour>
  </outline>
</glyph>
<glyph name="uni097B" format="1">
  <advance width="392"/>
  <unicode hex="097B"/>
  <outline>
    <contour>
      <point x="307" y="0" type="move" name="Anchor-7"/>
    </contour>
    <contour>
      <point x="0" y="0" type="move" name="Anchor-6"/>
    </contour>
    <contour>
      <point x="90" y="0" type="move" name="Anchor-5"/>
    </contour>
    <contour>
      <point x="307" y="399" type="move" name="Anchor-3"/>
    </contour>
    <contour>
      <point x="222" y="399" type="move" name="Anchor-2"/>
    </contour>
    <contour>
      <point x="399" y="399" type="line"/>
      <point x="399" y="338" type="line"/>
      <point x="342" y="338" type="line"/>
      <point x="342" y="0" type="line"/>
      <point x="26" y="0" type="line"/>
      <point x="26" y="53" type="line"/>
      <point x="272" y="53" type="line"/>
      <point x="272" y="338" type="line"/>
      <point x="193" y="338" type="line"/>
      <point x="193" y="175" type="line" smooth="yes"/>
      <point x="193" y="115"/>
      <point x="154" y="76"/>
      <point x="97" y="76" type="curve" smooth="yes"/>
      <point x="38" y="76"/>
      <point x="0" y="115"/>
      <point x="0" y="175" type="curve" smooth="yes"/>
      <point x="0" y="234"/>
      <point x="38" y="273"/>
      <point x="97" y="273" type="curve" smooth="yes"/>
      <point x="123" y="273" type="line"/>
      <point x="123" y="338" type="line"/>
      <point x="-7" y="338" type="line"/>
      <point x="-7" y="399" type="line"/>
    </contour>
    <contour>
      <point x="123" y="175" type="curve" smooth="yes"/>
      <point x="123" y="211" type="line"/>
      <point x="97" y="211" type="line" smooth="yes"/>
      <point x="80" y="211"/>
      <point x="70" y="196"/>
      <point x="70" y="175" type="curve" smooth="yes"/>
      <point x="70" y="150"/>
      <point x="79" y="138"/>
      <point x="97" y="138" type="curve" smooth="yes"/>
      <point x="113" y="138"/>
      <point x="123" y="150"/>
    </contour>
  </outline>
</glyph>
<glyph name="uni097C" format="1">
  <advance width="392"/>
  <unicode hex="097C"/>
  <outline>
    <contour>
      <point x="307" y="0" type="move" name="Anchor-7"/>
    </contour>
    <contour>
      <point x="0" y="0" type="move" name="Anchor-6"/>
    </contour>
    <contour>
      <point x="80" y="0" type="move" name="Anchor-5"/>
    </contour>
    <contour>
      <point x="307" y="399" type="move" name="Anchor-3"/>
    </contour>
    <contour>
      <point x="171" y="399" type="move" name="Anchor-2"/>
    </contour>
    <contour>
      <point x="399" y="399" type="line"/>
      <point x="399" y="338" type="line"/>
      <point x="342" y="338" type="line"/>
      <point x="342" y="0" type="line"/>
      <point x="16" y="0" type="line"/>
      <point x="16" y="53" type="line"/>
      <point x="272" y="53" type="line"/>
      <point x="272" y="206" type="line"/>
      <point x="224" y="206" type="line"/>
      <point x="224" y="169" type="line" smooth="yes"/>
      <point x="224" y="108"/>
      <point x="182" y="74"/>
      <point x="120" y="74" type="curve" smooth="yes"/>
      <point x="58" y="74"/>
      <point x="16" y="108"/>
      <point x="16" y="169" type="curve" smooth="yes"/>
      <point x="16" y="268" type="line"/>
      <point x="86" y="268" type="line"/>
      <point x="86" y="171" type="line" smooth="yes"/>
      <point x="86" y="148"/>
      <point x="101" y="134"/>
      <point x="120" y="134" type="curve" smooth="yes"/>
      <point x="138" y="134"/>
      <point x="154" y="148"/>
      <point x="154" y="171" type="curve" smooth="yes"/>
      <point x="154" y="268" type="line"/>
      <point x="272" y="268" type="line"/>
      <point x="272" y="338" type="line"/>
      <point x="-7" y="338" type="line"/>
      <point x="-7" y="399" type="line"/>
    </contour>
  </outline>
</glyph>
<glyph name="uni097E" format="1">
  <advance width="296"/>
  <unicode hex="097E"/>
  <outline>
    <contour>
      <point x="152" y="-53" type="move" name="Anchor-7"/>
    </contour>
    <contour>
      <point x="0" y="0" type="move" name="Anchor-6"/>
    </contour>
    <contour>
      <point x="155" y="-53" type="move" name="Anchor-5"/>
    </contour>
    <contour>
      <point x="217" y="399" type="move" name="Anchor-3"/>
    </contour>
    <contour>
      <point x="154" y="399" type="move" name="Anchor-2"/>
    </contour>
    <contour>
      <point x="136" y="238" type="line" smooth="yes"/>
      <point x="115" y="238"/>
      <point x="106" y="232"/>
      <point x="106" y="218" type="curve" smooth="yes"/>
      <point x="106" y="205"/>
      <point x="115" y="199"/>
      <point x="136" y="199" type="curve" smooth="yes"/>
      <point x="181" y="199" type="line" smooth="yes"/>
      <point x="239" y="199"/>
      <point x="273" y="170"/>
      <point x="273" y="120" type="curve" smooth="yes"/>
      <point x="273" y="49"/>
      <point x="219" y="26"/>
      <point x="152" y="26" type="curve" smooth="yes"/>
      <point x="68" y="26"/>
      <point x="25" y="63"/>
      <point x="25" y="114" type="curve" smooth="yes"/>
      <point x="25" y="117"/>
      <point x="25" y="119"/>
      <point x="26" y="124" type="curve"/>
      <point x="97" y="124" type="line"/>
      <point x="97" y="119" type="line" smooth="yes"/>
      <point x="97" y="95"/>
      <point x="119" y="83"/>
      <point x="155" y="83" type="curve" smooth="yes"/>
      <point x="186" y="83"/>
      <point x="202" y="94"/>
      <point x="202" y="115" type="curve" smooth="yes"/>
      <point x="202" y="142"/>
      <point x="181" y="146"/>
      <point x="161" y="146" type="curve" smooth="yes"/>
      <point x="125" y="146" type="line" smooth="yes"/>
      <point x="72" y="146"/>
      <point x="35" y="165"/>
      <point x="35" y="220" type="curve" smooth="yes"/>
      <point x="35" y="279"/>
      <point x="78" y="299"/>
      <point x="138" y="299" type="curve" smooth="yes"/>
      <point x="177" y="299" type="line"/>
      <point x="177" y="338" type="line"/>
      <point x="-7" y="338" type="line"/>
      <point x="-7" y="399" type="line"/>
      <point x="302" y="399" type="line"/>
      <point x="302" y="338" type="line"/>
      <point x="247" y="338" type="line"/>
      <point x="247" y="238" type="line"/>
    </contour>
    <contour>
      <point x="25" y="-53" type="line"/>
      <point x="25" y="0" type="line"/>
      <point x="260" y="0" type="line"/>
      <point x="260" y="-53" type="line"/>
    </contour>
  </outline>
</glyph>
<glyph name="ygrave" format="1">
  <advance width="266"/>
  <unicode hex="1EF3"/>
  <outline>
    <contour>
      <point x="173" y="344" type="line"/>
      <point x="115" y="344" type="line"/>
      <point x="53" y="419" type="line"/>
      <point x="53" y="421" type="line"/>
      <point x="123" y="421" type="line"/>
    </contour>
    <contour>
      <point x="179" y="16" type="line" smooth="yes"/>
      <point x="160" y="-51"/>
      <point x="130" y="-106"/>
      <point x="71" y="-106" type="curve" smooth="yes"/>
      <point x="43" y="-106"/>
      <point x="26" y="-101"/>
      <point x="26" y="-101" type="curve"/>
      <point x="26" y="-47" type="line"/>
      <point x="57" y="-47" type="line" smooth="yes"/>
      <point x="77" y="-47"/>
      <point x="96" y="-34"/>
      <point x="104" y="0" type="curve"/>
      <point x="3" y="306" type="line"/>
      <point x="76" y="306" type="line"/>
      <point x="123" y="163" type="line" smooth="yes"/>
      <point x="128" y="145"/>
      <point x="130" y="128"/>
      <point x="133" y="111" type="curve" smooth="yes"/>
      <point x="135" y="101"/>
      <point x="136" y="92"/>
      <point x="138" y="83" type="curve"/>
      <point x="141" y="83" type="line"/>
      <point x="143" y="92"/>
      <point x="144" y="101"/>
      <point x="145" y="110" type="curve" smooth="yes"/>
      <point x="148" y="127"/>
      <point x="151" y="145"/>
      <point x="156" y="162" type="curve" smooth="yes"/>
      <point x="193" y="306" type="line"/>
      <point x="264" y="306" type="line"/>
    </contour>
  </outline>
</glyph>
<glyph name="uni200C" format="1">
  <advance width="0"/>
  <unicode hex="200C"/>
  <outline>
    <contour>
      <point x="52" y="545" type="line"/>
      <point x="52" y="-266" type="line"/>
      <point x="0" y="-266" type="line"/>
      <point x="0" y="545" type="line"/>
    </contour>
  </outline>
</glyph>
<glyph name="emdash" format="1">
  <advance width="478"/>
  <unicode hex="2014"/>
  <outline>
    <contour>
      <point x="0" y="129" type="line"/>
      <point x="0" y="186" type="line"/>
      <point x="478" y="186" type="line"/>
      <point x="478" y="129" type="line"/>
    </contour>
  </outline>
</glyph>
<glyph name="quotesinglbase" format="1">
  <advance width="133"/>
  <unicode hex="201A"/>
  <outline>
    <contour>
      <point x="68" y="-91" type="line"/>
      <point x="26" y="-91" type="line"/>
      <point x="58" y="0" type="line"/>
      <point x="26" y="0" type="line"/>
      <point x="26" y="80" type="line"/>
      <point x="107" y="80" type="line"/>
      <point x="107" y="7" type="line"/>
    </contour>
  </outline>
</glyph>
<glyph name="quotedblleft" format="1">
  <advance width="239"/>
  <unicode hex="201C"/>
  <outline>
    <contour>
      <point x="74" y="309" type="line"/>
      <point x="106" y="309" type="line"/>
      <point x="106" y="229" type="line"/>
      <point x="26" y="229" type="line"/>
      <point x="26" y="302" type="line"/>
      <point x="64" y="399" type="line"/>
      <point x="106" y="399" type="line"/>
    </contour>
    <contour>
      <point x="181" y="309" type="line"/>
      <point x="213" y="309" type="line"/>
      <point x="213" y="229" type="line"/>
      <point x="132" y="229" type="line"/>
      <point x="132" y="302" type="line"/>
      <point x="171" y="399" type="line"/>
      <point x="213" y="399" type="line"/>
    </contour>
  </outline>
</glyph>
<glyph name="quotedblbase" format="1">
  <advance width="239"/>
  <unicode hex="201E"/>
  <outline>
    <contour>
      <point x="68" y="-91" type="line"/>
      <point x="26" y="-91" type="line"/>
      <point x="58" y="0" type="line"/>
      <point x="26" y="0" type="line"/>
      <point x="26" y="80" type="line"/>
      <point x="107" y="80" type="line"/>
      <point x="107" y="7" type="line"/>
    </contour>
    <contour>
      <point x="175" y="-91" type="line"/>
      <point x="133" y="-91" type="line"/>
      <point x="165" y="0" type="line"/>
      <point x="133" y="0" type="line"/>
      <point x="133" y="80" type="line"/>
      <point x="214" y="80" type="line"/>
      <point x="214" y="7" type="line"/>
    </contour>
  </outline>
</glyph>
<glyph name="ellipsis" format="1">
  <advance width="478"/>
  <unicode hex="2026"/>
  <outline>
    <contour>
      <point x="40" y="0" type="line"/>
      <point x="40" y="80" type="line"/>
      <point x="120" y="80" type="line"/>
      <point x="120" y="0" type="line"/>
    </contour>
    <contour>
      <point x="198" y="0" type="line"/>
      <point x="198" y="80" type="line"/>
      <point x="279" y="80" type="line"/>
      <point x="279" y="0" type="line"/>
    </contour>
    <contour>
      <point x="358" y="0" type="line"/>
      <point x="358" y="80" type="line"/>
      <point x="438" y="80" type="line"/>
      <point x="438" y="0" type="line"/>
    </contour>
  </outline>
</glyph>
<glyph name="perthousand" format="1">
  <advance width="478"/>
  <unicode hex="2030"/>
  <outline>
    <contour>
      <point x="72" y="407" type="curve" smooth="yes"/>
      <point x="118" y="407"/>
      <point x="144" y="382"/>
      <point x="144" y="301" type="curve" smooth="yes"/>
      <point x="144" y="220"/>
      <point x="118" y="196"/>
      <point x="72" y="196" type="curve" smooth="yes"/>
      <point x="28" y="196"/>
      <point x="1" y="221"/>
      <point x="1" y="301" type="curve" smooth="yes"/>
      <point x="1" y="382"/>
      <point x="28" y="407"/>
    </contour>
    <contour>
      <point x="75" y="0" type="line"/>
      <point x="204" y="399" type="line"/>
      <point x="245" y="399" type="line"/>
      <point x="115" y="0" type="line"/>
    </contour>
    <contour>
      <point x="72" y="364" type="curve" smooth="yes"/>
      <point x="57" y="364"/>
      <point x="53" y="348"/>
      <point x="53" y="306" type="curve" smooth="yes"/>
      <point x="53" y="297" type="line" smooth="yes"/>
      <point x="53" y="255"/>
      <point x="57" y="239"/>
      <point x="72" y="239" type="curve" smooth="yes"/>
      <point x="89" y="239"/>
      <point x="93" y="255"/>
      <point x="93" y="297" type="curve" smooth="yes"/>
      <point x="93" y="306" type="line" smooth="yes"/>
      <point x="93" y="348"/>
      <point x="89" y="364"/>
    </contour>
    <contour>
      <point x="248" y="204" type="curve" smooth="yes"/>
      <point x="294" y="204"/>
      <point x="320" y="179"/>
      <point x="320" y="98" type="curve" smooth="yes"/>
      <point x="320" y="17"/>
      <point x="294" y="-7"/>
      <point x="248" y="-7" type="curve" smooth="yes"/>
      <point x="204" y="-7"/>
      <point x="177" y="18"/>
      <point x="177" y="98" type="curve" smooth="yes"/>
      <point x="177" y="179"/>
      <point x="204" y="204"/>
    </contour>
    <contour>
      <point x="406" y="204" type="curve" smooth="yes"/>
      <point x="451" y="204"/>
      <point x="478" y="179"/>
      <point x="478" y="98" type="curve" smooth="yes"/>
      <point x="478" y="17"/>
      <point x="451" y="-7"/>
      <point x="406" y="-7" type="curve" smooth="yes"/>
      <point x="361" y="-7"/>
      <point x="334" y="18"/>
      <point x="334" y="98" type="curve" smooth="yes"/>
      <point x="334" y="179"/>
      <point x="361" y="204"/>
    </contour>
    <contour>
      <point x="248" y="161" type="curve" smooth="yes"/>
      <point x="233" y="161"/>
      <point x="229" y="144"/>
      <point x="229" y="103" type="curve" smooth="yes"/>
      <point x="229" y="94" type="line" smooth="yes"/>
      <point x="229" y="52"/>
      <point x="233" y="36"/>
      <point x="248" y="36" type="curve" smooth="yes"/>
      <point x="265" y="36"/>
      <point x="269" y="52"/>
      <point x="269" y="94" type="curve" smooth="yes"/>
      <point x="269" y="103" type="line" smooth="yes"/>
      <point x="269" y="144"/>
      <point x="265" y="161"/>
    </contour>
    <contour>
      <point x="406" y="161" type="curve" smooth="yes"/>
      <point x="389" y="161"/>
      <point x="386" y="144"/>
      <point x="386" y="103" type="curve" smooth="yes"/>
      <point x="386" y="94" type="line" smooth="yes"/>
      <point x="386" y="52"/>
      <point x="389" y="36"/>
      <point x="406" y="36" type="curve" smooth="yes"/>
      <point x="422" y="36"/>
      <point x="426" y="52"/>
      <point x="426" y="94" type="curve" smooth="yes"/>
      <point x="426" y="103" type="line" smooth="yes"/>
      <point x="426" y="144"/>
      <point x="422" y="161"/>
    </contour>
  </outline>
</glyph>
<glyph name="exclamdbl" format="1">
  <advance width="318"/>
  <unicode hex="203C"/>
  <outline>
    <contour>
      <point x="124" y="399" type="line"/>
      <point x="103" y="115" type="line"/>
      <point x="55" y="115" type="line"/>
      <point x="52" y="163"/>
      <point x="48" y="210"/>
      <point x="45" y="257" type="curve" smooth="yes"/>
      <point x="42" y="304"/>
      <point x="39" y="352"/>
      <point x="35" y="399" type="curve"/>
    </contour>
    <contour>
      <point x="283" y="399" type="line"/>
      <point x="262" y="115" type="line"/>
      <point x="214" y="115" type="line"/>
      <point x="208" y="204"/>
      <point x="202" y="292"/>
      <point x="195" y="381" type="curve" smooth="yes"/>
      <point x="195" y="387"/>
      <point x="194" y="393"/>
      <point x="194" y="399" type="curve"/>
    </contour>
    <contour>
      <point x="120" y="0" type="line"/>
      <point x="40" y="0" type="line"/>
      <point x="40" y="80" type="line"/>
      <point x="120" y="80" type="line"/>
    </contour>
    <contour>
      <point x="279" y="0" type="line"/>
      <point x="198" y="0" type="line"/>
      <point x="198" y="80" type="line"/>
      <point x="279" y="80" type="line"/>
    </contour>
  </outline>
</glyph>
<glyph name="fraction" format="1">
  <advance width="80"/>
  <unicode hex="2044"/>
  <outline>
    <contour>
      <point x="-97" y="-7" type="line"/>
      <point x="134" y="407" type="line"/>
      <point x="173" y="407" type="line"/>
      <point x="-58" y="-7" type="line"/>
    </contour>
  </outline>
</glyph>
<glyph name="lira" format="1">
  <advance width="266"/>
  <unicode hex="20A4"/>
  <outline>
    <contour>
      <point x="147" y="407" type="curve" smooth="yes"/>
      <point x="211" y="407"/>
      <point x="252" y="369"/>
      <point x="252" y="294" type="curve" smooth="yes"/>
      <point x="252" y="291" type="line"/>
      <point x="183" y="291" type="line"/>
      <point x="183" y="301" type="line" smooth="yes"/>
      <point x="183" y="332"/>
      <point x="169" y="348"/>
      <point x="147" y="348" type="curve" smooth="yes"/>
      <point x="125" y="348"/>
      <point x="112" y="334"/>
      <point x="112" y="306" type="curve" smooth="yes"/>
      <point x="112" y="253" type="line"/>
      <point x="179" y="253" type="line"/>
      <point x="179" y="204" type="line"/>
      <point x="112" y="204" type="line"/>
      <point x="112" y="179" type="line"/>
      <point x="179" y="179" type="line"/>
      <point x="179" y="130" type="line"/>
      <point x="111" y="130" type="line"/>
      <point x="105" y="63" type="line"/>
      <point x="248" y="63" type="line"/>
      <point x="248" y="0" type="line"/>
      <point x="12" y="0" type="line"/>
      <point x="12" y="63" type="line"/>
      <point x="42" y="63" type="line"/>
      <point x="42" y="130" type="line"/>
      <point x="5" y="130" type="line"/>
      <point x="5" y="179" type="line"/>
      <point x="42" y="179" type="line"/>
      <point x="42" y="204" type="line"/>
      <point x="5" y="204" type="line"/>
      <point x="5" y="253" type="line"/>
      <point x="42" y="253" type="line"/>
      <point x="42" y="291" type="line" smooth="yes"/>
      <point x="42" y="368"/>
      <point x="81" y="407"/>
    </contour>
  </outline>
</glyph>
